<svg id="Layer_1" data-name="Layer 1" xmlns="http://www.w3.org/2000/svg" viewBox="0 0 100 100"><defs><style>.cls-1{fill:#0084ce;}</style></defs><path class="cls-1" d="M100,78.11a9.23,9.23,0,0,1-5.18,6.34,8,8,0,0,1-3.3.75q-41.5,0-83,0A8.7,8.7,0,0,1,0,76.68Q0,50,0,23.32A8.7,8.7,0,0,1,8.9,14.81H91a8.8,8.8,0,0,1,8.7,6.36c.08.25.17.49.26.74ZM10.54,20.85l.71.77,36,36.15c1.84,1.85,3.69,1.86,5.51,0,4.29-4.31,8.56-8.63,12.86-12.94L88.72,21.71c.24-.24.58-.42.65-.86Zm0,58.28H89.48a3.15,3.15,0,0,0-.32-.4Q77.28,66.81,65.4,54.89c-.52-.52-.81-.38-1.25.07q-3.63,3.67-7.3,7.32a9.29,9.29,0,0,1-13.64,0c-2.37-2.37-4.77-4.71-7.08-7.13-.72-.75-1.09-.63-1.75,0Q22.88,66.77,11.32,78.32C11.09,78.55,10.88,78.79,10.57,79.13ZM6.07,25.27V74.88c.36-.33.6-.53.82-.76Q18.5,62.5,30.12,50.88c.72-.71.68-1.08,0-1.77C22.37,41.41,14.67,33.66,7,25.94A1.7,1.7,0,0,0,6.07,25.27ZM94,74.74V25.27a1.52,1.52,0,0,0-.81.61Q81.58,37.51,70,49.12c-.7.7-.71,1.06,0,1.76Q81.57,62.45,93.12,74.05A1.88,1.88,0,0,0,94,74.74Z"/></svg>