<svg id="Layer_1" data-name="Layer 1" xmlns="http://www.w3.org/2000/svg" viewBox="0 0 137.33 100"><defs><style>.cls-1{fill:#d11e3b;}.cls-2{fill:#fff;}.cls-3{fill:#243969;}</style></defs><path class="cls-1" d="M17,99.15H120.31a16.13,16.13,0,0,0,13.51-7.31H3.51A16.14,16.14,0,0,0,17,99.15Z"/><path class="cls-2" d="M3.51,91.84H133.82a16.11,16.11,0,0,0,2.62-7.62H.9A16,16,0,0,0,3.51,91.84Z"/><path class="cls-1" d="M.85,83c0,.42,0,.84.05,1.24H136.44c0-.4,0-.82,0-1.24V76.63H.85Z"/><rect class="cls-2" x="0.85" y="69.01" width="135.64" height="7.62"/><rect class="cls-1" x="0.85" y="61.4" width="135.64" height="7.62"/><polygon class="cls-2" points="0.85 53.81 0.85 61.4 136.49 61.4 136.49 53.81 68.63 53.81 0.85 53.81"/><rect class="cls-1" x="68.63" y="46.19" width="67.86" height="7.62"/><rect class="cls-2" x="68.63" y="38.6" width="67.86" height="7.59"/><rect class="cls-1" x="68.63" y="30.99" width="67.86" height="7.62"/><rect class="cls-2" x="68.63" y="23.37" width="67.86" height="7.62"/><path class="cls-1" d="M136.44,15.78H68.63v7.59h67.85V17C136.48,16.6,136.46,16.18,136.44,15.78Z"/><path class="cls-1" d="M.85,17c0-.21,0-.43,0-.64C.85,16.59.85,16.81.85,17Z"/><path class="cls-1" d="M.9,15.78a.71.71,0,0,0,0,.14c0-.05,0-.09,0-.14Z"/><path class="cls-2" d="M.91,15.69a.28.28,0,0,0,0,.09h0Z"/><path class="cls-2" d="M1.43,12.72h0Z"/><path class="cls-2" d="M68.63,15.78h67.81a16.11,16.11,0,0,0-2.62-7.62H68.63Z"/><path class="cls-2" d="M1.73,11.78v0Z"/><path class="cls-1" d="M6.77,4.53l.1-.08Z"/><path class="cls-1" d="M6,5.23l.09-.09Z"/><path class="cls-1" d="M7.47,4l.28-.2Z"/><path class="cls-1" d="M5.3,5.9l.09-.09Z"/><path class="cls-1" d="M12.7,1.44,13,1.36Z"/><path class="cls-1" d="M13.84,1.16l.31,0Z"/><path class="cls-1" d="M8.2,3.48l.32-.21Z"/><path class="cls-1" d="M15.76.9l.31,0Z"/><path class="cls-1" d="M133.82,8.16A16.13,16.13,0,0,0,120.31.85H68.63V8.16Z"/><path class="cls-1" d="M14.78,1,15.12,1Z"/><path class="cls-1" d="M10.87,2.07l.38-.15Z"/><path class="cls-1" d="M10,2.44l.35-.16Z"/><path class="cls-1" d="M9,3l.31-.18Z"/><path class="cls-1" d="M11.73,1.74l.38-.12Z"/><path class="cls-3" d="M68.63,46.19V.85H17c-.32,0-.64,0-.95,0l-.31,0L15.12,1,14.78,1l-.63.1-.31,0-.86.2-.28.08a5.76,5.76,0,0,0-.59.18l-.38.12-.48.18-.38.15-.48.21L10,2.44c-.25.12-.5.24-.74.38L9,3l-.47.27-.32.21-.45.31L7.47,4l-.6.46-.1.08c-.24.19-.47.4-.7.61L6,5.23c-.2.19-.4.38-.59.58L5.3,5.9a16.23,16.23,0,0,0-3.56,5.83v0a9.15,9.15,0,0,0-.29.93h0a16.33,16.33,0,0,0-.52,3v.09c0,.05,0,.09,0,.14l0,.46c0,.21,0,.43,0,.64V53.81H68.63ZM13.44,12.56,14,10.94l.53,1.62h1.7l-1.38,1,.53,1.63-1.38-1-1.38,1,.53-1.63-1.38-1Zm10.7,0,.53-1.62.53,1.62h1.7l-1.38,1,.53,1.63-1.38-1-1.38,1,.53-1.63-1.38-1Zm10.71,0,.53-1.62.52,1.62h1.71l-1.38,1,.53,1.63-1.38-1-1.38,1,.53-1.63-1.38-1Zm10.71,0,.53-1.62.52,1.62h1.71l-1.38,1,.52,1.63-1.37-1-1.38,1,.52-1.63-1.37-1Zm10.71,0,.52-1.62.53,1.62H59l-1.38,1,.52,1.63-1.38-1-1.37,1,.52-1.63-1.38-1ZM61.62,8l.53-1.62L62.67,8h1.71L63,9l.53,1.62-1.38-1-1.38,1L61.3,9,59.92,8ZM50.91,8l.53-1.62L52,8h1.7L52.29,9l.53,1.62-1.38-1-1.38,1L50.59,9,49.21,8ZM40.21,8l.52-1.62L41.26,8H43L41.58,9l.53,1.62-1.38-1-1.38,1L39.88,9,38.5,8ZM29.5,8,30,6.41,30.55,8h1.71L30.88,9l.52,1.62L30,9.65l-1.37,1L29.17,9,27.79,8ZM18.79,8l.53-1.62L19.84,8h1.71L20.17,9l.53,1.62-1.38-1-1.38,1L18.46,9,17.09,8ZM10.84,8,9.46,9,10,10.66l-1.38-1-1.38,1L7.76,9,6.38,8h1.7l.53-1.62L9.14,8ZM63.53,38.85l-1.38-1-1.38,1,.53-1.63-1.38-1h1.7l.53-1.62.52,1.62h1.71l-1.38,1Zm-5.36,4.52-1.38-1-1.37,1,.52-1.62-1.38-1h1.71l.52-1.62.53,1.62H59l-1.38,1Zm-5.35-4.52-1.38-1-1.38,1,.53-1.63-1.38-1h1.7l.53-1.62L52,36.22h1.7l-1.38,1Zm-5.36,4.52-1.37-1-1.38,1,.52-1.62-1.37-1h1.7l.53-1.62.52,1.62h1.71l-1.38,1Zm-5.35-4.52-1.38-1-1.38,1,.53-1.63-1.38-1h1.71l.52-1.62.53,1.62H43l-1.38,1Zm-5.35,4.52-1.38-1-1.38,1,.53-1.62-1.38-1h1.7l.53-1.62.52,1.62h1.71l-1.38,1ZM31.4,38.85l-1.38-1-1.37,1,.52-1.63-1.38-1H29.5L30,34.6l.53,1.62h1.71l-1.38,1Zm-5.35,4.52-1.38-1-1.38,1,.53-1.62-1.38-1h1.7l.53-1.62.53,1.62h1.7l-1.38,1ZM20.7,38.85l-1.38-1-1.38,1,.52-1.63-1.37-1h1.7l.53-1.62.52,1.62h1.71l-1.38,1Zm-5.36,4.52-1.38-1-1.38,1,.53-1.62-1.38-1h1.71L14,39.13l.53,1.62h1.7l-1.38,1ZM20.7,20.05l-1.38-1-1.38,1,.52-1.62-1.37-1h1.7l.53-1.62.52,1.62h1.71l-1.38,1ZM22.44,22h1.7l.53-1.62L25.2,22h1.7l-1.38,1,.53,1.62-1.38-1-1.38,1L23.82,23Zm9-1.91-1.38-1-1.37,1,.52-1.62-1.38-1H29.5L30,15.81l.53,1.62h1.71l-1.38,1ZM33.15,22h1.7l.53-1.62L35.9,22h1.71l-1.38,1,.53,1.62-1.38-1-1.38,1L34.53,23Zm9-1.91-1.38-1-1.38,1,.53-1.62-1.38-1h1.71l.52-1.62.53,1.62H43l-1.38,1ZM43.86,22h1.7l.53-1.62L46.61,22h1.71l-1.38,1,.52,1.62-1.37-1-1.38,1L45.23,23Zm9-1.91-1.38-1-1.38,1,.53-1.62-1.38-1h1.7l.53-1.62L52,17.43h1.7l-1.38,1ZM46.61,31.36h1.71l-1.38,1L47.46,34l-1.37-1-1.38,1,.52-1.62-1.37-1h1.7l.53-1.63Zm-10.71,0h1.71l-1.38,1L36.76,34l-1.38-1L34,34l.53-1.62-1.38-1h1.7l.53-1.63Zm-4.5-1.91-1.38-1-1.37,1,.52-1.62-1.38-1H29.5L30,25.21l.53,1.62h1.71l-1.38,1Zm10.71,0-1.38-1-1.38,1,.53-1.62-1.38-1h1.71l.52-1.62.53,1.62H43l-1.38,1Zm10.71,0-1.38-1-1.38,1,.53-1.62-1.38-1h1.7l.53-1.62L52,26.83h1.7l-1.38,1Zm-34-2.62.53-1.62.52,1.62h1.71l-1.38,1,.53,1.62-1.38-1-1.38,1,.52-1.62-1.37-1Zm5.88,2.9.53,1.63h1.7l-1.38,1L26.05,34l-1.38-1-1.38,1,.53-1.62-1.38-1h1.7Zm32.65,1.63H59l-1.38,1L58.17,34l-1.38-1-1.37,1,.52-1.62-1.38-1h1.71l.52-1.63Zm6.21-1.91-1.38-1-1.38,1,.53-1.62-1.38-1h1.7l.53-1.62.52,1.62h1.71l-1.38,1Zm-5.36-4.87-1.38-1-1.37,1L55.94,23l-1.38-1h1.71l.52-1.62L57.32,22H59l-1.38,1Zm5.36-4.53-1.38-1-1.38,1,.53-1.62-1.38-1h1.7l.53-1.62.52,1.62h1.71l-1.38,1ZM10,20.05l-1.38-1-1.38,1,.53-1.62-1.38-1h1.7l.53-1.62.53,1.62h1.7l-1.38,1ZM11.73,22h1.71L14,20.34,14.49,22h1.7l-1.38,1,.53,1.62-1.38-1-1.38,1L13.11,23ZM10,29.45l-1.38-1-1.38,1,.53-1.62-1.38-1h1.7l.53-1.62.53,1.62h1.7l-1.38,1Zm4,.28.53,1.63h1.7l-1.38,1L15.34,34,14,33l-1.38,1,.53-1.62-1.38-1h1.71ZM6.38,36.22h1.7l.53-1.62.53,1.62h1.7l-1.38,1L10,38.85l-1.38-1-1.38,1,.53-1.63Zm2.23,11-1.38,1,.53-1.62-1.38-1h1.7L8.61,44l.53,1.62h1.7l-1.38,1L10,48.24Zm10.71,0-1.38,1,.52-1.62-1.37-1h1.7L19.32,44l.52,1.62h1.71l-1.38,1,.53,1.62Zm10.7,0-1.37,1,.52-1.62-1.38-1H29.5L30,44l.53,1.62h1.71l-1.38,1,.52,1.62Zm10.71,0-1.38,1,.53-1.62-1.38-1h1.71L40.73,44l.53,1.62H43l-1.38,1,.53,1.62Zm10.71,0-1.38,1,.53-1.62-1.38-1h1.7L51.44,44,52,45.62h1.7l-1.38,1,.53,1.62Zm10.71,0-1.38,1,.53-1.62-1.38-1h1.7L62.15,44l.52,1.62h1.71l-1.38,1,.53,1.62Z"/><polygon class="cls-2" points="64.38 45.62 62.67 45.62 62.15 44 61.62 45.62 59.92 45.62 61.3 46.62 60.77 48.24 62.15 47.24 63.53 48.24 63 46.62 64.38 45.62"/><polygon class="cls-2" points="53.67 45.62 51.97 45.62 51.44 44 50.91 45.62 49.21 45.62 50.59 46.62 50.06 48.24 51.44 47.24 52.82 48.24 52.29 46.62 53.67 45.62"/><polygon class="cls-2" points="32.26 45.62 30.55 45.62 30.02 44 29.5 45.62 27.79 45.62 29.17 46.62 28.65 48.24 30.02 47.24 31.4 48.24 30.88 46.62 32.26 45.62"/><polygon class="cls-2" points="42.96 45.62 41.26 45.62 40.73 44 40.21 45.62 38.5 45.62 39.88 46.62 39.35 48.24 40.73 47.24 42.11 48.24 41.58 46.62 42.96 45.62"/><polygon class="cls-2" points="21.55 45.62 19.84 45.62 19.32 44 18.79 45.62 17.09 45.62 18.46 46.62 17.94 48.24 19.32 47.24 20.7 48.24 20.17 46.62 21.55 45.62"/><polygon class="cls-2" points="10.84 45.62 9.13 45.62 8.61 44 8.08 45.62 6.38 45.62 7.76 46.62 7.23 48.24 8.61 47.24 9.99 48.24 9.46 46.62 10.84 45.62"/><polygon class="cls-2" points="64.38 36.22 62.67 36.22 62.15 34.6 61.62 36.22 59.92 36.22 61.3 37.22 60.77 38.84 62.15 37.84 63.53 38.84 63 37.22 64.38 36.22"/><polygon class="cls-2" points="53.67 36.22 51.97 36.22 51.44 34.6 50.91 36.22 49.21 36.22 50.59 37.22 50.06 38.84 51.44 37.84 52.82 38.84 52.29 37.22 53.67 36.22"/><polygon class="cls-2" points="32.26 36.22 30.55 36.22 30.02 34.6 29.5 36.22 27.79 36.22 29.17 37.22 28.65 38.84 30.02 37.84 31.4 38.84 30.88 37.22 32.26 36.22"/><polygon class="cls-2" points="42.96 36.22 41.26 36.22 40.73 34.6 40.21 36.22 38.5 36.22 39.88 37.22 39.35 38.84 40.73 37.84 42.11 38.84 41.58 37.22 42.96 36.22"/><polygon class="cls-2" points="21.55 36.22 19.84 36.22 19.32 34.6 18.79 36.22 17.09 36.22 18.46 37.22 17.94 38.84 19.32 37.84 20.7 38.84 20.17 37.22 21.55 36.22"/><polygon class="cls-2" points="7.23 38.84 8.61 37.84 9.99 38.84 9.46 37.22 10.84 36.22 9.13 36.22 8.61 34.6 8.08 36.22 6.38 36.22 7.76 37.22 7.23 38.84"/><polygon class="cls-2" points="62.67 26.83 62.15 25.21 61.62 26.83 59.92 26.83 61.3 27.83 60.77 29.45 62.15 28.45 63.53 29.45 63 27.83 64.38 26.83 62.67 26.83"/><polygon class="cls-2" points="51.97 26.83 51.44 25.21 50.91 26.83 49.21 26.83 50.59 27.83 50.06 29.45 51.44 28.45 52.82 29.45 52.29 27.83 53.67 26.83 51.97 26.83"/><polygon class="cls-2" points="30.55 26.83 30.02 25.21 29.5 26.83 27.79 26.83 29.17 27.83 28.65 29.45 30.02 28.45 31.4 29.45 30.88 27.83 32.26 26.83 30.55 26.83"/><polygon class="cls-2" points="41.26 26.83 40.73 25.21 40.21 26.83 38.5 26.83 39.88 27.83 39.35 29.45 40.73 28.45 42.11 29.45 41.58 27.83 42.96 26.83 41.26 26.83"/><polygon class="cls-2" points="17.94 29.45 19.32 28.45 20.7 29.45 20.17 27.83 21.55 26.83 19.84 26.83 19.32 25.21 18.79 26.83 17.09 26.83 18.46 27.83 17.94 29.45"/><polygon class="cls-2" points="9.13 26.83 8.61 25.21 8.08 26.83 6.38 26.83 7.76 27.83 7.23 29.45 8.61 28.45 9.99 29.45 9.46 27.83 10.84 26.83 9.13 26.83"/><polygon class="cls-2" points="62.67 17.43 62.15 15.81 61.62 17.43 59.92 17.43 61.3 18.43 60.77 20.05 62.15 19.05 63.53 20.05 63 18.43 64.38 17.43 62.67 17.43"/><polygon class="cls-2" points="51.97 17.43 51.44 15.81 50.91 17.43 49.21 17.43 50.59 18.43 50.06 20.05 51.44 19.05 52.82 20.05 52.29 18.43 53.67 17.43 51.97 17.43"/><polygon class="cls-2" points="30.55 17.43 30.02 15.81 29.5 17.43 27.79 17.43 29.17 18.43 28.65 20.05 30.02 19.05 31.4 20.05 30.88 18.43 32.26 17.43 30.55 17.43"/><polygon class="cls-2" points="41.26 17.43 40.73 15.81 40.21 17.43 38.5 17.43 39.88 18.43 39.35 20.05 40.73 19.05 42.11 20.05 41.58 18.43 42.96 17.43 41.26 17.43"/><polygon class="cls-2" points="19.84 17.43 19.32 15.81 18.79 17.43 17.09 17.43 18.46 18.43 17.94 20.05 19.32 19.05 20.7 20.05 20.17 18.43 21.55 17.43 19.84 17.43"/><polygon class="cls-2" points="9.13 17.43 8.61 15.81 8.08 17.43 6.38 17.43 7.76 18.43 7.23 20.05 8.61 19.05 9.99 20.05 9.46 18.43 10.84 17.43 9.13 17.43"/><polygon class="cls-2" points="61.3 9.04 60.77 10.66 62.15 9.65 63.53 10.66 63 9.04 64.38 8.03 62.67 8.03 62.15 6.41 61.62 8.03 59.92 8.03 61.3 9.04"/><polygon class="cls-2" points="50.59 9.04 50.06 10.66 51.44 9.65 52.82 10.66 52.29 9.04 53.67 8.03 51.97 8.03 51.44 6.41 50.91 8.03 49.21 8.03 50.59 9.04"/><polygon class="cls-2" points="29.17 9.04 28.65 10.66 30.02 9.65 31.4 10.66 30.88 9.04 32.26 8.03 30.55 8.03 30.02 6.41 29.5 8.03 27.79 8.03 29.17 9.04"/><polygon class="cls-2" points="39.88 9.04 39.35 10.66 40.73 9.65 42.11 10.66 41.58 9.04 42.96 8.03 41.26 8.03 40.73 6.41 40.21 8.03 38.5 8.03 39.88 9.04"/><polygon class="cls-2" points="18.46 9.04 17.94 10.66 19.32 9.65 20.7 10.66 20.17 9.04 21.55 8.03 19.84 8.03 19.32 6.41 18.79 8.03 17.09 8.03 18.46 9.04"/><polygon class="cls-2" points="8.08 8.03 6.38 8.03 7.76 9.04 7.23 10.66 8.61 9.65 9.99 10.66 9.46 9.04 10.84 8.03 9.13 8.03 8.61 6.41 8.08 8.03"/><polygon class="cls-2" points="14.49 40.75 13.96 39.13 13.44 40.75 11.73 40.75 13.11 41.75 12.58 43.37 13.96 42.37 15.34 43.37 14.81 41.75 16.19 40.75 14.49 40.75"/><polygon class="cls-2" points="57.32 40.75 56.79 39.13 56.27 40.75 54.56 40.75 55.94 41.75 55.41 43.37 56.79 42.37 58.17 43.37 57.65 41.75 59.02 40.75 57.32 40.75"/><polygon class="cls-2" points="46.61 40.75 46.09 39.13 45.56 40.75 43.85 40.75 45.23 41.75 44.71 43.37 46.09 42.37 47.47 43.37 46.94 41.75 48.32 40.75 46.61 40.75"/><polygon class="cls-2" points="35.91 40.75 35.38 39.13 34.85 40.75 33.15 40.75 34.53 41.75 34 43.37 35.38 42.37 36.76 43.37 36.23 41.75 37.61 40.75 35.91 40.75"/><polygon class="cls-2" points="25.2 40.75 24.67 39.13 24.14 40.75 22.44 40.75 23.82 41.75 23.29 43.37 24.67 42.37 26.05 43.37 25.52 41.75 26.9 40.75 25.2 40.75"/><polygon class="cls-2" points="11.73 31.36 13.11 32.36 12.58 33.98 13.96 32.98 15.34 33.98 14.81 32.36 16.19 31.36 14.49 31.36 13.96 29.73 13.44 31.36 11.73 31.36"/><polygon class="cls-2" points="56.27 31.36 54.56 31.36 55.94 32.36 55.41 33.98 56.79 32.98 58.17 33.98 57.65 32.36 59.02 31.36 57.32 31.36 56.79 29.73 56.27 31.36"/><polygon class="cls-2" points="45.56 31.36 43.85 31.36 45.23 32.36 44.71 33.98 46.09 32.98 47.47 33.98 46.94 32.36 48.32 31.36 46.61 31.36 46.09 29.73 45.56 31.36"/><polygon class="cls-2" points="34.85 31.36 33.15 31.36 34.53 32.36 34 33.98 35.38 32.98 36.76 33.98 36.23 32.36 37.61 31.36 35.91 31.36 35.38 29.73 34.85 31.36"/><polygon class="cls-2" points="22.44 31.36 23.82 32.36 23.29 33.98 24.67 32.98 26.05 33.98 25.52 32.36 26.9 31.36 25.2 31.36 24.67 29.73 24.14 31.36 22.44 31.36"/><polygon class="cls-2" points="12.58 24.58 13.96 23.58 15.34 24.58 14.81 22.96 16.19 21.96 14.49 21.96 13.96 20.34 13.44 21.96 11.73 21.96 13.11 22.96 12.58 24.58"/><polygon class="cls-2" points="59.02 21.96 57.32 21.96 56.79 20.34 56.27 21.96 54.56 21.96 55.94 22.96 55.41 24.58 56.79 23.58 58.17 24.58 57.65 22.96 59.02 21.96"/><polygon class="cls-2" points="44.71 24.58 46.09 23.58 47.47 24.58 46.94 22.96 48.32 21.96 46.61 21.96 46.09 20.34 45.56 21.96 43.85 21.96 45.23 22.96 44.71 24.58"/><polygon class="cls-2" points="34 24.58 35.38 23.58 36.76 24.58 36.23 22.96 37.61 21.96 35.91 21.96 35.38 20.34 34.85 21.96 33.15 21.96 34.53 22.96 34 24.58"/><polygon class="cls-2" points="23.29 24.58 24.67 23.58 26.05 24.58 25.52 22.96 26.9 21.96 25.2 21.96 24.67 20.34 24.14 21.96 22.44 21.96 23.82 22.96 23.29 24.58"/><polygon class="cls-2" points="12.58 15.19 13.96 14.18 15.34 15.19 14.81 13.56 16.19 12.56 14.49 12.56 13.96 10.94 13.44 12.56 11.73 12.56 13.11 13.56 12.58 15.19"/><polygon class="cls-2" points="55.41 15.19 56.79 14.18 58.17 15.19 57.65 13.56 59.02 12.56 57.32 12.56 56.79 10.94 56.27 12.56 54.56 12.56 55.94 13.56 55.41 15.19"/><polygon class="cls-2" points="44.71 15.19 46.09 14.18 47.47 15.19 46.94 13.56 48.32 12.56 46.61 12.56 46.09 10.94 45.56 12.56 43.85 12.56 45.23 13.56 44.71 15.19"/><polygon class="cls-2" points="34 15.19 35.38 14.18 36.76 15.19 36.23 13.56 37.61 12.56 35.91 12.56 35.38 10.94 34.85 12.56 33.15 12.56 34.53 13.56 34 15.19"/><polygon class="cls-2" points="23.29 15.19 24.67 14.18 26.05 15.19 25.52 13.56 26.9 12.56 25.2 12.56 24.67 10.94 24.14 12.56 22.44 12.56 23.82 13.56 23.29 15.19"/><path class="cls-2" d="M120.31,100H17A16.9,16.9,0,0,1,8,97.36,17.19,17.19,0,0,1,2.62,92,16.87,16.87,0,0,1,0,83V17A16.9,16.9,0,0,1,2.7,7.85,17.15,17.15,0,0,1,7.82,2.72,16.92,16.92,0,0,1,17,0H120.3a16.93,16.93,0,0,1,9.17,2.69,17.21,17.21,0,0,1,5.18,5.19A17,17,0,0,1,137.33,17V83a17,17,0,0,1-2.6,9,17.23,17.23,0,0,1-5.39,5.39A16.89,16.89,0,0,1,120.31,100ZM17,1.69a15.26,15.26,0,0,0-8.3,2.45A15.5,15.5,0,0,0,4.13,8.76,15.19,15.19,0,0,0,1.69,17V83a15.29,15.29,0,0,0,2.36,8.16,15.52,15.52,0,0,0,4.8,4.81A15.2,15.2,0,0,0,17,98.31H120.3A15.3,15.3,0,0,0,128.44,96a15.66,15.66,0,0,0,4.86-4.86A15.28,15.28,0,0,0,135.64,83V17a15.33,15.33,0,0,0-2.41-8.25h0a15.64,15.64,0,0,0-4.67-4.67,15.23,15.23,0,0,0-8.25-2.43Z"/></svg>