<svg id="Layer_1" data-name="Layer 1" xmlns="http://www.w3.org/2000/svg" viewBox="0 0 137.33 100"><defs><style>.cls-1{fill:#23376e;}.cls-2{fill:#fff;}.cls-3{fill:#d11735;}</style></defs><path class="cls-1" d="M3.34,91.55l-.09-.14Z"/><path class="cls-1" d="M120.68.87a2.3,2.3,0,0,0-.37,0H81.88v27.9Z"/><path class="cls-1" d="M1.57,87.73c-.11-.36-.21-.72-.3-1.1C1.36,87,1.46,87.37,1.57,87.73Z"/><path class="cls-1" d="M10.63,97.82l-.1,0Z"/><path class="cls-1" d="M2.88,90.77c-.07-.11-.13-.23-.2-.35C2.75,90.54,2.81,90.66,2.88,90.77Z"/><path class="cls-1" d="M2.39,89.82l-.21-.46Z"/><path class="cls-1" d="M2,88.8c-.08-.19-.14-.38-.21-.57C1.81,88.42,1.87,88.61,2,88.8Z"/><path class="cls-1" d="M1.27,13.37A16.07,16.07,0,0,0,.85,17V32.8h27.5Z"/><path class="cls-1" d="M.85,64.53V83a16.07,16.07,0,0,0,.42,3.65l30.79-22.1Z"/><path class="cls-1" d="M81.88,99.15h38.43a2.3,2.3,0,0,0,.37,0L81.88,71.25Z"/><polygon class="cls-1" points="5.13 93.88 5.13 93.88 5.13 93.88 5.13 93.88"/><path class="cls-1" d="M16.65,99.13a2.3,2.3,0,0,0,.37,0H55.45V71.25Z"/><path class="cls-1" d="M136.06,86.63a15.53,15.53,0,0,0,.43-3.65V64.53H105.28Z"/><path class="cls-1" d="M55.45.85H17a2.3,2.3,0,0,0-.37,0l38.8,27.88Z"/><path class="cls-1" d="M136.06,13.37,109,32.8h27.51V17A15.53,15.53,0,0,0,136.06,13.37Z"/><polygon class="cls-2" points="28.35 32.8 0.85 32.8 0.85 39.42 37.56 39.42 28.35 32.8"/><polygon class="cls-2" points="41.24 57.94 0.85 57.94 0.85 64.53 32.06 64.53 41.24 57.94"/><polygon class="cls-2" points="105.28 64.53 136.49 64.53 136.49 57.94 96.09 57.94 105.28 64.53"/><polygon class="cls-2" points="75.29 66.53 75.29 99.15 81.88 99.15 81.88 71.25 75.29 66.53"/><polygon class="cls-2" points="81.88 28.75 81.88 0.85 75.29 0.85 75.29 33.47 81.88 28.75"/><polygon class="cls-2" points="62.05 33.47 62.05 0.85 55.45 0.85 55.45 28.75 62.05 33.47"/><polygon class="cls-2" points="55.45 71.25 55.45 99.15 62.05 99.15 62.05 66.53 55.45 71.25"/><polygon class="cls-2" points="99.78 39.42 136.49 39.42 136.49 32.8 108.98 32.8 99.78 39.42"/><path class="cls-2" d="M6.94,95.57c-.23-.18-.45-.37-.67-.57C6.49,95.2,6.71,95.39,6.94,95.57Z"/><path class="cls-2" d="M5.53,94.3c-.14-.14-.28-.28-.4-.42Z"/><path class="cls-2" d="M7.8,96.23c-.18-.13-.36-.26-.53-.4C7.44,96,7.62,96.1,7.8,96.23Z"/><path class="cls-2" d="M45.94,64.53H32.06L1.27,86.63c.09.38.19.74.3,1.1.05.17.11.33.17.5s.13.38.21.57.15.38.23.56l.21.46c.09.2.19.4.29.6s.13.24.2.35.24.43.37.64l.09.14a15.51,15.51,0,0,0,1.79,2.33h0Z"/><path class="cls-2" d="M55.45,64.53l-2.71,2-43,30.91a16.7,16.7,0,0,1-1.79-1,15.2,15.2,0,0,0,2.56,1.42l.1,0c.26.11.53.22.79.31a15.1,15.1,0,0,0,5.23,1l38.8-27.88Z"/><polygon class="cls-2" points="45.94 64.53 55.45 64.53 55.45 71.25 62.05 66.53 62.05 57.94 41.24 57.94 32.06 64.53 45.94 64.53"/><path class="cls-2" d="M75.29,33.47v6H99.78L109,32.8l27.08-19.43a15.91,15.91,0,0,0-5-8.37L92.36,32.8H82.85L125.91,1.87a15.1,15.1,0,0,0-5.23-1L81.88,28.75Z"/><path class="cls-2" d="M96.09,57.94H75.29v8.59l6.59,4.72,38.8,27.88a15.85,15.85,0,0,0,10.58-4.31L89.12,64.53h9.51l36,25.89a14.74,14.74,0,0,0,1.42-3.79l-30.78-22.1Z"/><path class="cls-2" d="M37.56,39.42H62.05v-6l-6.6-4.72L16.65.87A15.85,15.85,0,0,0,6.07,5.18L44.52,32.8H35L2.69,9.58a15.12,15.12,0,0,0-1.42,3.79L28.35,32.8Z"/><polygon class="cls-3" points="75.29 39.42 75.29 33.47 75.29 0.85 62.05 0.85 62.05 33.47 62.05 39.42 37.56 39.42 0.85 39.42 0.85 57.94 41.24 57.94 62.05 57.94 62.05 66.53 62.05 99.15 75.29 99.15 75.29 66.53 75.29 57.94 96.09 57.94 136.49 57.94 136.49 39.42 99.78 39.42 75.29 39.42"/><path class="cls-3" d="M89.12,64.53l42.14,30.29a14.83,14.83,0,0,0,3.38-4.4l-36-25.89Z"/><path class="cls-3" d="M44.52,32.8,6.07,5.18a14.83,14.83,0,0,0-3.38,4.4L35,32.8Z"/><path class="cls-3" d="M92.36,32.8,131.06,5a15.3,15.3,0,0,0-5.15-3.13L82.85,32.8Z"/><path class="cls-3" d="M52.74,66.48l2.71-2H45.94L5.13,93.88h0c.12.14.26.28.4.42s.49.48.74.7.44.39.67.57l.33.26c.17.14.35.27.53.4l.17.12a16.7,16.7,0,0,0,1.79,1Z"/><path class="cls-2" d="M120.31,100H17A16.9,16.9,0,0,1,8,97.36,17.19,17.19,0,0,1,2.62,92,16.87,16.87,0,0,1,0,83V17A16.9,16.9,0,0,1,2.7,7.85,17.15,17.15,0,0,1,7.82,2.72,16.92,16.92,0,0,1,17,0H120.3a16.93,16.93,0,0,1,9.17,2.69,17.21,17.21,0,0,1,5.18,5.19A17,17,0,0,1,137.33,17V83a17,17,0,0,1-2.6,9,17.23,17.23,0,0,1-5.39,5.39A16.89,16.89,0,0,1,120.31,100ZM17,1.69a15.26,15.26,0,0,0-8.3,2.45A15.5,15.5,0,0,0,4.13,8.76,15.19,15.19,0,0,0,1.69,17V83a15.29,15.29,0,0,0,2.36,8.16,15.52,15.52,0,0,0,4.8,4.81A15.2,15.2,0,0,0,17,98.31H120.3A15.3,15.3,0,0,0,128.44,96a15.66,15.66,0,0,0,4.86-4.86A15.28,15.28,0,0,0,135.64,83V17a15.33,15.33,0,0,0-2.41-8.25h0a15.64,15.64,0,0,0-4.67-4.67,15.23,15.23,0,0,0-8.25-2.43Z"/></svg>