<svg id="Layer_1" data-name="Layer 1" xmlns="http://www.w3.org/2000/svg" viewBox="0 0 137.33 100"><defs><style>.cls-1{fill:#ff9a15;}.cls-2{fill:#37aa41;}.cls-3{fill:#fff;}.cls-4{fill:#2d3a8e;}</style></defs><rect class="cls-1" x="0.85" y="0.54" width="135.57" height="98.93" rx="16.96"/><path class="cls-2" d="M119.56,99.46H17.7A16.84,16.84,0,0,1,.85,82.61V48.36H136.41V82.61A16.84,16.84,0,0,1,119.56,99.46Z"/><rect class="cls-3" x="0.85" y="31.49" width="135.64" height="36.38"/><path class="cls-4" d="M74.59,50.94a2,2,0,0,1-.1.35l9.56,4.44L74.26,52.2l-.09,0c0,.11-.09.21-.13.31l8.44,6.05-8.92-5.28a2.37,2.37,0,0,0-.21.3l7,7.65-7.67-7c0,.06-.11.11-.15.17L78,63.18l-6.25-8.26-.32.19L75,64.86l-4.41-9.37-.27.08v0L72.05,66,69.47,55.9l0-.11a1,1,0,0,1-.37.07l-.46,10.51L68.15,56v-.1a.37.37,0,0,1-.21,0L65.55,66.1,67,55.82l0-.07c-.12,0-.25-.07-.39-.09l-4.42,9.51,3.54-9.79,0,0-.25-.12L59.4,63.73l5.3-9,0-.05c-.11-.06-.19-.14-.29-.2l-7.72,7,7-7.67,0,0a1.39,1.39,0,0,1-.15-.19l-8.88,5.53L63,53l-.18-.32L53,56.19l9.41-4.43a.18.18,0,0,1-.06-.14L52.11,53.31l10-2.57a2.85,2.85,0,0,1,0-.4l-10.38-.46L62,49.41a1.42,1.42,0,0,1,0-.28L51.94,46.81l10.22,1.41a2.78,2.78,0,0,1,.12-.38l-9.41-4.37L62.58,47a1.31,1.31,0,0,1,.1-.21l-8.49-6.1L63.13,46a3.92,3.92,0,0,1,.25-.32l-7.05-7.71,7.67,7,.19-.2-5.51-8.83,6.25,8.28.36-.2-3.58-9.8,4.41,9.39a1.5,1.5,0,0,0,.34-.11l-1.68-10.2,2.57,10a2.71,2.71,0,0,1,.4,0l.47-10.37.46,10.35a1.27,1.27,0,0,1,.28,0l2.33-10.1L69.85,43.35a2.92,2.92,0,0,1,.4.1l4.37-9.4L71.1,43.78l.21.12,6.13-8.54-5.3,9,0,0a1.66,1.66,0,0,0,.31.23l7.76-7.1-7,7.7-.06.06a.85.85,0,0,1,.16.17l9-5.56-8.31,6.26-.08.06.19.32h0l9.9-3.63-9.43,4.43-.11,0a2.07,2.07,0,0,1,.09.24l10.34-1.7L74.7,48.48h0a2.45,2.45,0,0,1,0,.38l10.49.47-10.38.46h-.09a1,1,0,0,1,0,.24L85,52.39,74.66,51Z"/><path class="cls-4" d="M68.46,66.51a17,17,0,1,1,17-17A17,17,0,0,1,68.46,66.51Zm0-32.84A15.9,15.9,0,1,0,84.35,49.56,15.9,15.9,0,0,0,68.46,33.67Z"/><path class="cls-3" d="M120.31,100H17A16.9,16.9,0,0,1,8,97.36,17.19,17.19,0,0,1,2.62,92,16.87,16.87,0,0,1,0,83V17A16.9,16.9,0,0,1,2.7,7.85,17.15,17.15,0,0,1,7.82,2.72,16.92,16.92,0,0,1,17,0H120.3a16.93,16.93,0,0,1,9.17,2.69,17.21,17.21,0,0,1,5.18,5.19A17,17,0,0,1,137.33,17V83a17,17,0,0,1-2.6,9,17.23,17.23,0,0,1-5.39,5.39A16.89,16.89,0,0,1,120.31,100ZM17,1.69a15.26,15.26,0,0,0-8.3,2.45A15.5,15.5,0,0,0,4.13,8.76,15.19,15.19,0,0,0,1.69,17V83a15.29,15.29,0,0,0,2.36,8.16,15.52,15.52,0,0,0,4.8,4.81A15.2,15.2,0,0,0,17,98.31H120.3A15.3,15.3,0,0,0,128.44,96a15.66,15.66,0,0,0,4.86-4.86A15.28,15.28,0,0,0,135.64,83V17a15.33,15.33,0,0,0-2.41-8.25h0a15.64,15.64,0,0,0-4.67-4.67,15.23,15.23,0,0,0-8.25-2.43Z"/></svg>