<svg id="Layer_1" data-name="Layer 1" xmlns="http://www.w3.org/2000/svg" viewBox="0 0 137.33 100"><defs><style>.cls-1{fill:#e31e25;}.cls-2{fill:#fff;}</style></defs><path class="cls-1" d="M120.31.85h-23v98.3h23A16.2,16.2,0,0,0,136.49,83V17A16.2,16.2,0,0,0,120.31.85Z"/><path class="cls-1" d="M17,.85A16.2,16.2,0,0,0,.85,17V83A16.2,16.2,0,0,0,17,99.15H40V.85Z"/><path class="cls-2" d="M91.81.85H40v98.3H97.29V.85Zm-2.06,50L78,58.69a.73.73,0,0,0-.26.89l1.71,3.84a.16.16,0,0,1-.18.23L69.55,61.7a.3.3,0,0,0-.35.3c.09,1.65.42,8.38.49,9.79a.23.23,0,0,1-.24.25H67.88a.23.23,0,0,1-.24-.25c.07-1.41.4-8.14.49-9.79a.29.29,0,0,0-.35-.3L58,63.65a.16.16,0,0,1-.18-.23l1.71-3.84a.73.73,0,0,0-.26-.89L47.58,50.87a.16.16,0,0,1,0-.29l3.27-1.22a.65.65,0,0,0,.38-.82L49,42.1a.16.16,0,0,1,.18-.21l6,.91a.64.64,0,0,0,.71-.43L56.6,40a.16.16,0,0,1,.28,0l4.84,5.81a.6.6,0,0,0,.45.21.58.58,0,0,0,.55-.74L59.41,33.9a.16.16,0,0,1,.23-.19l3.78,2.1a.64.64,0,0,0,.87-.25L68.52,28a.17.17,0,0,1,.29,0L73,35.56a.64.64,0,0,0,.87.25l3.78-2.1a.17.17,0,0,1,.24.19L74.61,45.27a.58.58,0,0,0,.55.74.59.59,0,0,0,.45-.21L80.45,40a.16.16,0,0,1,.28,0l.78,2.33a.64.64,0,0,0,.71.43l6-.91a.16.16,0,0,1,.18.21l-2.3,6.44a.65.65,0,0,0,.38.82l3.27,1.22A.16.16,0,0,1,89.75,50.87Z"/><path class="cls-1" d="M89.71,50.58l-3.27-1.22a.65.65,0,0,1-.38-.82l2.3-6.44a.16.16,0,0,0-.18-.21l-6,.91a.64.64,0,0,1-.71-.43L80.73,40a.16.16,0,0,0-.28,0L75.61,45.8a.59.59,0,0,1-.45.21.58.58,0,0,1-.55-.74L77.93,33.9a.17.17,0,0,0-.24-.19l-3.78,2.1a.64.64,0,0,1-.87-.25L68.81,28a.17.17,0,0,0-.29,0l-4.23,7.52a.64.64,0,0,1-.87.25l-3.78-2.1a.16.16,0,0,0-.23.19l3.31,11.37a.58.58,0,0,1-.55.74.6.6,0,0,1-.45-.21L56.88,40a.16.16,0,0,0-.28,0l-.78,2.33a.64.64,0,0,1-.71.43l-6-.91a.16.16,0,0,0-.18.21l2.3,6.44a.65.65,0,0,1-.38.82l-3.27,1.22a.16.16,0,0,0,0,.29l11.73,7.82a.73.73,0,0,1,.26.89l-1.71,3.84a.16.16,0,0,0,.18.23l9.74-1.95a.29.29,0,0,1,.35.3c-.09,1.65-.42,8.38-.49,9.79a.23.23,0,0,0,.24.25h1.57a.23.23,0,0,0,.24-.25c-.07-1.41-.4-8.14-.49-9.79a.3.3,0,0,1,.35-.3l9.74,1.95a.16.16,0,0,0,.18-.23l-1.71-3.84a.73.73,0,0,1,.26-.89l11.73-7.82A.16.16,0,0,0,89.71,50.58Z"/><path class="cls-2" d="M120.31,100H17A16.9,16.9,0,0,1,8,97.36,17.19,17.19,0,0,1,2.62,92,16.87,16.87,0,0,1,0,83V17A16.9,16.9,0,0,1,2.7,7.85,17.15,17.15,0,0,1,7.82,2.72,16.92,16.92,0,0,1,17,0H120.3a16.93,16.93,0,0,1,9.17,2.69,17.21,17.21,0,0,1,5.18,5.19A17,17,0,0,1,137.33,17V83a17,17,0,0,1-2.6,9,17.23,17.23,0,0,1-5.39,5.39A16.89,16.89,0,0,1,120.31,100ZM17,1.69a15.26,15.26,0,0,0-8.3,2.45A15.5,15.5,0,0,0,4.13,8.76,15.19,15.19,0,0,0,1.69,17V83a15.29,15.29,0,0,0,2.36,8.16,15.52,15.52,0,0,0,4.8,4.81A15.2,15.2,0,0,0,17,98.31H120.3A15.3,15.3,0,0,0,128.44,96a15.66,15.66,0,0,0,4.86-4.86A15.28,15.28,0,0,0,135.64,83V17a15.33,15.33,0,0,0-2.41-8.25h0a15.64,15.64,0,0,0-4.67-4.67,15.23,15.23,0,0,0-8.25-2.43Z"/></svg>