<svg id="Layer_1" data-name="Layer 1" xmlns="http://www.w3.org/2000/svg" xmlns:xlink="http://www.w3.org/1999/xlink" viewBox="0 0 100 100"><defs><style>.cls-1{fill:none;}.cls-2{fill:#ea4335;}.cls-2,.cls-3,.cls-4,.cls-5{fill-rule:evenodd;}.cls-3{fill:#34a853;}.cls-4{fill:#4285f4;}.cls-5{fill:#fbbc05;}.cls-6{opacity:0.4;}.cls-7{clip-path:url(#clip-path);}</style><clipPath id="clip-path"><rect class="cls-1" x="0.16" y="493.57" width="1920" height="1080"/></clipPath></defs><path class="cls-2" d="M6.4,27.58a43.22,43.22,0,0,1,8.3-11.94A48.29,48.29,0,0,1,42.57.74C57.91-1.71,71.64,1.9,83.5,12.12c.75.65.94,1,.12,1.82-4.18,4.1-8.31,8.27-12.45,12.42-.43.42-.72.94-1.47.25-10.45-9.57-27.5-9.47-38.6.86a31.8,31.8,0,0,0-8.29,12.66c-.26-.17-.53-.32-.78-.51Z"/><path class="cls-3" d="M22.68,59.68a33.45,33.45,0,0,0,6.13,10.45Q39.36,81.79,55,80.16a31.57,31.57,0,0,0,13.4-4.67c.4.35.78.73,1.2,1.06L84.11,87.86A41.56,41.56,0,0,1,65.39,98.09c-16.71,4.23-32.12,1.56-45.8-9.24A46.33,46.33,0,0,1,6.36,72.35Z"/><path class="cls-4" d="M84.11,87.86,69.6,76.55c-.42-.33-.8-.71-1.2-1.06a25.31,25.31,0,0,0,7.81-9.22,31.51,31.51,0,0,0,1.7-4.65c.32-1.09.22-1.52-1.13-1.5-8,.06-16.11,0-24.16,0-1.71,0-1.71,0-1.71-1.77,0-5.46,0-10.91,0-16.37,0-1.06.17-1.46,1.36-1.46q22.27.08,44.56,0c.81,0,1.31,0,1.45,1,1.85,13,.37,25.41-6.43,36.87A36.92,36.92,0,0,1,84.11,87.86Z"/><path class="cls-5" d="M22.68,59.68,6.36,72.35A45.28,45.28,0,0,1,1.45,56.57,49.33,49.33,0,0,1,5.64,29c.22-.48.5-.94.76-1.41L22,39.62c.25.19.52.34.78.51A31.55,31.55,0,0,0,22.68,59.68Z"/></svg>