<svg id="Layer_1" data-name="Layer 1" xmlns="http://www.w3.org/2000/svg" viewBox="0 0 100 100"><defs><style>.cls-1{fill:#0084ce;}</style></defs><path class="cls-1" d="M50,0a50,50,0,1,0,50,50A50,50,0,0,0,50,0ZM80.16,80.16A42.66,42.66,0,1,1,92.65,50,42.53,42.53,0,0,1,80.16,80.16Z"/><path class="cls-1" d="M56.8,39.59c0,.21-.15,1.15-.44,2.82s-.68,3.76-1.15,6.28-1,5.24-1.59,8.18-1.18,5.88-1.79,8.79-1.18,5.54-1.71,7.87h6v3.81a27.45,27.45,0,0,1-5.64,1.71,28.52,28.52,0,0,1-5.09.52,7.78,7.78,0,0,1-4.13-.91c-1-.61-1.43-1.85-1.43-3.7a20.12,20.12,0,0,1,.43-3q.44-2.27,1.16-5.61t1.55-7.11q.82-3.78,1.67-7.59t1.47-7L40.82,44,40,40.7c2-.53,4-1,6-1.43s3.84-.77,5.48-1a24.63,24.63,0,0,1,3.58-.4C56.24,37.84,56.8,38.42,56.8,39.59ZM54.17,20.43a5.94,5.94,0,0,1,4.21,1.75,5.73,5.73,0,0,1,0,8.35,5.93,5.93,0,0,1-4.26,1.75A5.8,5.8,0,0,1,50,30.53a5.62,5.62,0,0,1-1.79-4.14A5.69,5.69,0,0,1,50,22.18,5.8,5.8,0,0,1,54.17,20.43Z"/></svg>