<svg id="Layer_1" data-name="Layer 1" xmlns="http://www.w3.org/2000/svg" viewBox="0 0 552.6 100"><defs><style>.cls-1{fill:#1a1a1a;}.cls-2{fill:#0084ce;}.cls-3{fill:#fff;}</style></defs><path class="cls-1" d="M534.47,99.65H261.92V.35H534.47A18.13,18.13,0,0,1,552.6,18.48v63A18.13,18.13,0,0,1,534.47,99.65Z"/><path class="cls-2" d="M255.88.35H12.51A12.62,12.62,0,0,0,0,13.09V86.88A12.62,12.62,0,0,0,12.51,99.62H255.88Z"/><path class="cls-3" d="M46.48,60.31c0,1.58,0,3-.08,4.18a9.05,9.05,0,0,1-.61,3.05,5.37,5.37,0,0,1-2.69,2.89,8.08,8.08,0,0,1-3.5.9,6.94,6.94,0,0,1-4.48-1.74,6.64,6.64,0,0,1-2.5-4.11L21.09,68.23a20.39,20.39,0,0,0,6.82,10.24q4.8,3.8,12.2,3.79a21,21,0,0,0,9.34-2.06,16,16,0,0,0,6.84-6.63,13.74,13.74,0,0,0,1.62-4,21.32,21.32,0,0,0,.43-4.11c0-1.47,0-3.19,0-5.17V19H46.48Z"/><path class="cls-3" d="M113.9,21.75a30.63,30.63,0,0,0-16-4,30.64,30.64,0,0,0-16,4A27,27,0,0,0,71.46,33.07,37.42,37.42,0,0,0,67.83,50,37.44,37.44,0,0,0,71.46,66.9,27,27,0,0,0,81.83,78.22a30.64,30.64,0,0,0,16,4,30.63,30.63,0,0,0,16-4A27,27,0,0,0,124.27,66.9,37.44,37.44,0,0,0,127.9,50a37.42,37.42,0,0,0-3.63-16.91A27,27,0,0,0,113.9,21.75Zm-.35,39.51a15.79,15.79,0,0,1-5.87,7.44,16.69,16.69,0,0,1-9.81,2.54,17.67,17.67,0,0,1-9.82-2.71,15.87,15.87,0,0,1-5.87-7.36,29,29,0,0,1-2-11.19,29.71,29.71,0,0,1,2-11.27,15.87,15.87,0,0,1,5.87-7.45,16.85,16.85,0,0,1,9.82-2.54,17.75,17.75,0,0,1,9.81,2.72,15.87,15.87,0,0,1,5.87,7.36,29,29,0,0,1,2,11.18A29.73,29.73,0,0,1,113.55,61.26Z"/><path class="cls-3" d="M174.05,48.37a11.21,11.21,0,0,0,3.5-3.33,15.06,15.06,0,0,0,2.34-8.65,18.81,18.81,0,0,0-1.89-8.1,16.11,16.11,0,0,0-6-6.64Q167.93,19,161.3,19H136.51V81H164a21,21,0,0,0,10.5-2.39,15.07,15.07,0,0,0,6.22-6.6,22.22,22.22,0,0,0,2-9.77,16,16,0,0,0-2.9-9.34A12.51,12.51,0,0,0,174.05,48.37ZM148.39,29.93h12.74a6.6,6.6,0,0,1,5.12,1.94A6.84,6.84,0,0,1,168,36.64a7,7,0,0,1-.9,3.73,5.45,5.45,0,0,1-2.45,2.13,8.62,8.62,0,0,1-3.53.68H148.39ZM169.88,66.1a7.33,7.33,0,0,1-2.9,2.84,8.58,8.58,0,0,1-4.22,1H148.39V54.12h14.37a9.21,9.21,0,0,1,4.54,1A6.61,6.61,0,0,1,170,57.86a8.33,8.33,0,0,1,.9,3.92A8.44,8.44,0,0,1,169.88,66.1Z"/><path class="cls-3" d="M237.88,54.8a14.84,14.84,0,0,0-4.43-4.92A24.14,24.14,0,0,0,227.83,47q-2.93-1.05-5.34-1.7l-10.75-2.93A29.9,29.9,0,0,1,207.86,41a9.09,9.09,0,0,1-3.14-2,4.5,4.5,0,0,1-1.25-3.29A5.27,5.27,0,0,1,205,31.91a9.85,9.85,0,0,1,4-2.43,14.55,14.55,0,0,1,5.19-.76,14.85,14.85,0,0,1,5.35,1.17A12.13,12.13,0,0,1,223.92,33a11.24,11.24,0,0,1,2.53,5.08L239.11,36a24.54,24.54,0,0,0-4.91-9.83A22,22,0,0,0,225.77,20a30.49,30.49,0,0,0-11.45-2.2,31.82,31.82,0,0,0-11.62,2,18.68,18.68,0,0,0-8.39,6.16,16.59,16.59,0,0,0-3.14,10.37,16.09,16.09,0,0,0,1.48,7.34,14,14,0,0,0,3.72,4.67A18.66,18.66,0,0,0,201,51c1.59.63,3,1.12,4.19,1.46l16.1,4.73a15,15,0,0,1,3,1.25,6.76,6.76,0,0,1,1.83,1.47,4.86,4.86,0,0,1,.93,1.65,6.24,6.24,0,0,1,.28,1.83,6,6,0,0,1-1.75,4.35,11.16,11.16,0,0,1-4.45,2.67,17.65,17.65,0,0,1-5.6.9,15.5,15.5,0,0,1-9.21-2.88A13.65,13.65,0,0,1,201,60.23L188.76,62a22.8,22.8,0,0,0,4.49,10.83,23.15,23.15,0,0,0,9.08,7,30.58,30.58,0,0,0,12.42,2.43,35.22,35.22,0,0,0,9.19-1.2,26,26,0,0,0,8-3.64,18.29,18.29,0,0,0,5.62-6.15,17.58,17.58,0,0,0,2.08-8.72A15.51,15.51,0,0,0,237.88,54.8Z"/><path class="cls-3" d="M321.94,49.83a24.22,24.22,0,0,0-5.61-2.92c-1.95-.71-3.73-1.27-5.34-1.7l-10.76-2.93A29.27,29.27,0,0,1,296.36,41a9.38,9.38,0,0,1-3.14-2,4.53,4.53,0,0,1-1.25-3.3,5.26,5.26,0,0,1,1.53-3.78,9.85,9.85,0,0,1,4-2.43,14.53,14.53,0,0,1,5.18-.76A15.11,15.11,0,0,1,308,29.84,12.15,12.15,0,0,1,312.41,33,11.22,11.22,0,0,1,315,38.06l12.65-2.15a24.53,24.53,0,0,0-4.9-9.83A22,22,0,0,0,314.26,20a30.41,30.41,0,0,0-11.45-2.2,31.35,31.35,0,0,0-11.61,2,18.71,18.71,0,0,0-8.4,6.16,16.66,16.66,0,0,0-3.14,10.37,16,16,0,0,0,1.49,7.33,13.79,13.79,0,0,0,3.72,4.67A18.3,18.3,0,0,0,289.49,51c1.6.64,3,1.12,4.2,1.47l16.1,4.73a15,15,0,0,1,3,1.25,6.94,6.94,0,0,1,1.83,1.46,5,5,0,0,1,.92,1.66,6.26,6.26,0,0,1-1.46,6.18,11.07,11.07,0,0,1-4.46,2.66,17.32,17.32,0,0,1-5.59.91,15.44,15.44,0,0,1-9.21-2.89,13.59,13.59,0,0,1-5.34-8.22L277.25,62a22.71,22.71,0,0,0,4.5,10.83,23.17,23.17,0,0,0,9.08,7,30.54,30.54,0,0,0,12.41,2.43A34.75,34.75,0,0,0,312.43,81a25.88,25.88,0,0,0,8-3.63A18.2,18.2,0,0,0,326,71.22a17.52,17.52,0,0,0,2.09-8.71,15.51,15.51,0,0,0-1.74-7.75A15,15,0,0,0,321.94,49.83Z"/><polygon class="cls-3" points="350.15 18.96 338.45 18.96 338.45 80.93 376.83 80.93 376.83 70 350.15 70 350.15 18.96"/><path class="cls-3" d="M398.78,19l-18.93,62h12L395.82,68h23.33l4,12.91h12.05L416.25,19Zm.36,38.13,8.26-27.16,8.38,27.16Z"/><polygon class="cls-3" points="432.61 29.89 452.15 29.89 452.15 80.93 463.85 80.93 463.85 29.89 483.39 29.89 483.39 18.96 432.61 18.96 432.61 29.89"/><polygon class="cls-3" points="530.73 29.89 530.73 18.96 490.27 18.96 490.27 80.93 530.73 80.93 530.73 70 501.98 70 501.98 54.07 525.56 54.07 525.56 43.14 501.98 43.14 501.98 29.89 530.73 29.89"/></svg>