<svg xmlns="http://www.w3.org/2000/svg" xmlns:xlink="http://www.w3.org/1999/xlink" viewBox="0 0 432.85 300"><defs><style>.cls-1,.cls-11,.cls-12,.cls-15,.cls-25,.cls-28,.cls-40,.cls-42,.cls-43,.cls-47,.cls-49,.cls-5,.cls-50,.cls-7{fill:none;}.cls-2{isolation:isolate;}.cls-3,.cls-30{opacity:0.35;}.cls-4{fill:#c3ecfe;}.cls-5{stroke:#c3ecfe;}.cls-11,.cls-12,.cls-15,.cls-25,.cls-42,.cls-5,.cls-50,.cls-7{stroke-miterlimit:10;}.cls-11,.cls-12,.cls-15,.cls-25,.cls-47,.cls-5,.cls-50,.cls-7{stroke-width:1.06px;}.cls-6{fill:#599fd2;}.cls-11,.cls-12,.cls-7{stroke:#a1dbff;}.cls-7{stroke-dasharray:2.64;}.cls-8{fill:#88d2ff;}.cls-9{fill:#9bdfff;}.cls-10{fill:#c0edff;}.cls-12{stroke-dasharray:2.62 2.62;}.cls-13{fill:#fe7d90;}.cls-14{opacity:0.5;}.cls-15{stroke:#ccf3ff;}.cls-16{fill:#ccf3ff;}.cls-17{fill:#e9e8ee;}.cls-18{fill:#e8505b;}.cls-19,.cls-23,.cls-29{opacity:0.45;}.cls-20,.cls-23{fill:#b03d44;}.cls-21{fill:#457eff;}.cls-22,.cls-48{fill:#fff;}.cls-24,.cls-26,.cls-46{fill:#0964af;}.cls-24{opacity:0.25;}.cls-25,.cls-48,.cls-49{stroke:#fe7d90;}.cls-27{opacity:0.15;}.cls-28{stroke:#0964af;}.cls-28,.cls-40,.cls-43,.cls-47,.cls-48,.cls-49{stroke-linecap:round;stroke-linejoin:round;}.cls-28,.cls-48,.cls-49{stroke-width:2.11px;}.cls-29{fill:#5ab5e2;mix-blend-mode:multiply;}.cls-30{fill:#bdeeff;}.cls-31{fill:#ffbe9d;}.cls-32{fill:#170d54;}.cls-33{fill:#f2a181;}.cls-34{fill:#ffccb0;}.cls-35{fill:#3e89cc;}.cls-36{fill:#57c6f2;}.cls-37{fill:#1b227a;}.cls-38{fill:#eaeaea;}.cls-39{fill:#e5f8ff;}.cls-40{stroke:#a1d2f0;stroke-width:0.53px;}.cls-41{fill:#2679c4;}.cls-42,.cls-43{stroke:#333;stroke-width:5.28px;}.cls-44{fill:#80cfff;}.cls-45{fill:#a4e1ff;}.cls-46{opacity:0.19;}.cls-47{stroke:#fff;}.cls-50{stroke:#2f3f91;}.cls-51{fill:#c2ebff;}.cls-52{opacity:0.4;}.cls-53{clip-path:url(#clip-path);}</style><clipPath id="clip-path"><rect class="cls-1" x="-647.29" y="361.27" width="1920" height="1080"/></clipPath></defs><g class="cls-2"><g id="Layer_1" data-name="Layer 1"><g class="cls-3"><path class="cls-4" d="M405.08,201.27c-5.84-21,12.74-21.79,13.15-48.81.17-11.05-5.89-22.31-20.45-27.47-7.16-2.54-14.3-4.29-20.67-8.32-14.52-9.2-14.26-26.69-18.22-41.61-8.7-32.76-42.17-58.78-76.06-57.93-24.42.61-46.51,1.35-68.77,22.09-15.24,14.18-25.15,31.64-39.29,46.27-15,15.48-33.24,22.91-53.74,27.89-19.38,4.71-40.47,10.31-55.31,24.42-13.95,13.26-11.91,27.13-5.94,43.41,6.6,18-7.7,30.18-22.61,37.17-12.55,5.89-29.25,5.37-35.08,19.46-6.32,15.27,12.45,15.53,29.9,15.53s243.4-1.34,306.55.52c17,.51,71.23,5.14,78.9-16C422.66,223.41,409.17,215.91,405.08,201.27Z"/></g><path class="cls-5" d="M424.47,194.73c-12.62,29.38-36.94,53.35-66.08,66.34"/><path class="cls-4" d="M420.76,202.55a24.17,24.17,0,0,0,8.33-14.63c.22-1.39.27-3-.67-4a1.55,1.55,0,0,0-1-.57,2,2,0,0,0-1.57.86c-2.2,2.46-3,5.87-3.33,9.14s-1.1,5.68-1.78,9.22"/><path class="cls-4" d="M414.77,212.55a24.16,24.16,0,0,0,1.84-16.73c-.35-1.36-.93-2.83-2.2-3.43a1.59,1.59,0,0,0-1.13-.13,2,2,0,0,0-1.11,1.41c-1,3.14-.38,6.57.57,9.72s1.25,5.65,2,9.16"/><path class="cls-4" d="M406,224.86a24.2,24.2,0,0,0,3.88-16.38c-.18-1.4-.58-2.93-1.78-3.67a1.55,1.55,0,0,0-1.1-.27c-.61.11-1,.7-1.27,1.27-1.41,3-1.18,6.46-.62,9.71s.55,5.76.89,9.34"/><path class="cls-4" d="M395.82,235.65a24.22,24.22,0,0,0,3.87-16.39c-.18-1.39-.58-2.92-1.77-3.67a1.55,1.55,0,0,0-1.1-.26,2,2,0,0,0-1.27,1.26c-1.41,3-1.18,6.47-.62,9.72s.55,5.75.89,9.34"/><path class="cls-4" d="M380.64,248.09a24.21,24.21,0,0,0,5.55-15.89c0-1.41-.28-3-1.38-3.83a1.55,1.55,0,0,0-1.07-.38,2,2,0,0,0-1.4,1.12c-1.71,2.82-1.84,6.31-1.62,9.6s-.05,5.79-.08,9.38"/><path class="cls-4" d="M368.74,256A25.72,25.72,0,0,0,375.18,241c.13-1.4.08-3-.77-4a1.27,1.27,0,0,0-.87-.51c-.54,0-1,.46-1.32.95-1.77,2.58-2.25,6-2.41,9.32s-.66,5.74-1.07,9.3"/><path class="cls-4" d="M411.77,217a26.25,26.25,0,0,0,17.32-3.32c1.28-.76,2.61-1.78,2.88-3.2a1.52,1.52,0,0,0-.16-1.13,2,2,0,0,0-1.7-.65c-3.42,0-6.71,1.63-9.64,3.53s-5.36,2.94-8.7,4.77"/><path class="cls-4" d="M404.64,226.27a26.22,26.22,0,0,0,17.62.91c1.42-.43,2.95-1.1,3.56-2.41a1.63,1.63,0,0,0,.12-1.14,2,2,0,0,0-1.51-1c-3.31-.86-6.9,0-10.2,1.13s-5.91,1.57-9.59,2.55"/><path class="cls-4" d="M394,237.14a26.24,26.24,0,0,0,17.07,4.41c1.48-.13,3.12-.49,4-1.66a1.58,1.58,0,0,0,.34-1.09c-.09-.61-.69-1-1.27-1.31-3.06-1.51-6.75-1.4-10.21-.94s-6.11.36-9.91.59"/><path class="cls-4" d="M379.11,249.68a26.19,26.19,0,0,0,17.63.51c1.41-.45,2.93-1.16,3.5-2.49a1.56,1.56,0,0,0,.1-1.14,2,2,0,0,0-1.53-1c-3.33-.79-6.9.14-10.17,1.35s-5.88,1.71-9.53,2.77"/><path class="cls-4" d="M367.07,256.87a26.21,26.21,0,0,0,15.51,8.39c1.47.23,3.14.28,4.25-.64a1.6,1.6,0,0,0,.6-1,2,2,0,0,0-.91-1.58c-2.62-2.21-6.23-3-9.7-3.38s-6-1.12-9.75-1.81"/><path class="cls-6" d="M353.11,133a.32.32,0,0,1-.3-.29l-.11-1.58a.31.31,0,1,1,.62,0l.11,1.57a.3.3,0,0,1-.28.33Z"/><polygon class="cls-4" points="360.16 204.33 356.01 204.62 351.39 137.69 353.47 137.54 355.54 137.4 360.16 204.33"/><polygon class="cls-4" points="353.5 131.98 352.66 132.04 351.39 137.69 355.54 137.4 353.5 131.98"/><path class="cls-5" d="M125.86,148.64c7.38,40.34,35.51,76.31,72.88,93.21"/><path class="cls-4" d="M127.73,157.08A24.17,24.17,0,0,1,122.87,141c.1-1.4.4-3,1.55-3.77a1.58,1.58,0,0,1,1.08-.33,2,2,0,0,1,1.35,1.19c1.58,2.89,1.57,6.38,1.2,9.66s-.2,5.78-.32,9.37"/><path class="cls-4" d="M131.34,168.17a24.15,24.15,0,0,1,1.93-16.72c.65-1.25,1.54-2.55,2.92-2.85a1.55,1.55,0,0,1,1.12.13,2,2,0,0,1,.77,1.62c.31,3.28-1.09,6.48-2.72,9.35s-2.48,5.22-4,8.47"/><path class="cls-4" d="M137.19,182.14a24.16,24.16,0,0,1-.12-16.84c.48-1.31,1.21-2.72,2.54-3.18a1.52,1.52,0,0,1,1.13,0,2,2,0,0,1,1,1.51c.71,3.22-.29,6.57-1.56,9.61s-1.82,5.49-2.95,8.91"/><path class="cls-4" d="M144.66,194.91a24.24,24.24,0,0,1-.12-16.83c.49-1.32,1.22-2.72,2.55-3.18a1.57,1.57,0,0,1,1.13,0,2,2,0,0,1,1,1.52c.71,3.22-.29,6.56-1.56,9.61s-1.82,5.49-3,8.9"/><path class="cls-4" d="M156.69,210.43a24.17,24.17,0,0,1-1.87-16.73c.35-1.36.93-2.83,2.2-3.43a1.59,1.59,0,0,1,1.13-.13,2,2,0,0,1,1.11,1.41c1,3.13.39,6.56-.56,9.72s-1.24,5.65-2,9.16"/><path class="cls-4" d="M166.51,220.83a25.79,25.79,0,0,1-2.91-16.15c.19-1.39.58-2.92,1.64-3.7a1.3,1.3,0,0,1,1-.3c.53.09.86.67,1.07,1.22,1.15,2.91.85,6.38.27,9.63s-.63,5.73-1,9.3"/><path class="cls-4" d="M133.28,173.14a26.22,26.22,0,0,1-16.14-7.1c-1.08-1-2.15-2.31-2.1-3.76a1.57,1.57,0,0,1,.41-1.07,2,2,0,0,1,1.81-.25c3.34.71,6.17,3.09,8.6,5.59s4.58,4.06,7.42,6.59"/><path class="cls-4" d="M138.15,183.81a26.18,26.18,0,0,1-17.37-3.05c-1.29-.73-2.64-1.73-2.93-3.14a1.54,1.54,0,0,1,.14-1.14,2,2,0,0,1,1.69-.67c3.42-.11,6.73,1.52,9.69,3.37s5.42,2.85,8.78,4.63"/><path class="cls-4" d="M146.11,196.77a26.2,26.2,0,0,1-17.63.49c-1.42-.46-2.93-1.16-3.51-2.49a1.59,1.59,0,0,1-.09-1.15,2,2,0,0,1,1.53-1c3.33-.78,6.9.15,10.17,1.37s5.87,1.71,9.53,2.78"/><path class="cls-4" d="M157.83,212.32a26.22,26.22,0,0,1-17.3-3.43c-1.28-.76-2.6-1.79-2.87-3.21a1.54,1.54,0,0,1,.17-1.14,2,2,0,0,1,1.71-.63c3.42,0,6.69,1.67,9.61,3.58s5.35,3,8.68,4.83"/><path class="cls-4" d="M168,222a26.24,26.24,0,0,1-17,4.73c-1.48-.11-3.13-.43-4-1.58a1.61,1.61,0,0,1-.37-1.09c.08-.62.67-1,1.24-1.34,3-1.57,6.73-1.52,10.2-1.13s6.12.25,9.92.41"/><path class="cls-5" d="M53.11,205c41-1.86,82.34,17.46,107.19,50.09"/><path class="cls-4" d="M61.76,204.9A24.16,24.16,0,0,0,45,203.79c-1.35.41-2.79,1.06-3.33,2.35a1.58,1.58,0,0,0-.08,1.13,2,2,0,0,0,1.46,1c3.17.9,6.57.09,9.68-1s5.59-1.49,9.07-2.42"/><path class="cls-4" d="M73.37,205.93a24.18,24.18,0,0,0-15.86,5.64c-1.07.91-2.14,2.07-2.12,3.48a1.62,1.62,0,0,0,.37,1.07,2,2,0,0,0,1.76.38c3.27-.43,6.07-2.52,8.49-4.75s4.54-3.59,7.36-5.82"/><path class="cls-4" d="M88.3,208.49a24.23,24.23,0,0,0-16.44,3.66c-1.17.77-2.37,1.8-2.53,3.2a1.61,1.61,0,0,0,.24,1.11,2,2,0,0,0,1.7.59c3.3,0,6.33-1.76,9-3.68s4.94-3,8-4.88"/><path class="cls-4" d="M102.42,212.91A24.15,24.15,0,0,0,86,216.57c-1.18.77-2.38,1.8-2.53,3.19a1.58,1.58,0,0,0,.24,1.11,2,2,0,0,0,1.69.59c3.3,0,6.34-1.75,9-3.68s4.94-3,8-4.87"/><path class="cls-4" d="M120.24,221.14a24.15,24.15,0,0,0-16.72,1.94c-1.25.64-2.55,1.54-2.85,2.91a1.58,1.58,0,0,0,.13,1.13,2,2,0,0,0,1.62.76c3.28.31,6.48-1.09,9.35-2.72s5.22-2.48,8.47-4"/><path class="cls-4" d="M132.59,228.37a25.87,25.87,0,0,0-16.4.79c-1.31.5-2.71,1.23-3.23,2.43a1.28,1.28,0,0,0-.08,1c.21.49.84.68,1.43.77,3.1.46,6.41-.61,9.44-1.9s5.45-1.91,8.84-3.1"/><path class="cls-4" d="M78.65,206.71A26.21,26.21,0,0,0,68.1,192.57c-1.24-.82-2.73-1.57-4.13-1.2A1.53,1.53,0,0,0,63,192a2,2,0,0,0,.16,1.82c1.45,3.09,4.39,5.31,7.38,7.13s5,3.54,8.09,5.75"/><path class="cls-4" d="M90.14,209.05a26.24,26.24,0,0,0-6.87-16.24c-1-1.1-2.28-2.18-3.73-2.15a1.52,1.52,0,0,0-1.07.39,2,2,0,0,0-.28,1.8c.66,3.36,3,6.22,5.46,8.69s4,4.63,6.49,7.51"/><path class="cls-4" d="M104.55,213.89a26.22,26.22,0,0,0-3.47-17.29c-.77-1.27-1.8-2.59-3.22-2.85a1.54,1.54,0,0,0-1.14.17,2,2,0,0,0-.63,1.71c0,3.42,1.69,6.69,3.61,9.61s3,5.33,4.85,8.65"/><path class="cls-4" d="M122.34,221.82a26.23,26.23,0,0,0-7.23-16.09c-1-1.07-2.33-2.13-3.77-2.06a1.5,1.5,0,0,0-1.07.41,2,2,0,0,0-.24,1.81c.74,3.34,3.14,6.15,5.66,8.56s4.1,4.55,6.65,7.37"/><path class="cls-4" d="M134.06,229.52a26.22,26.22,0,0,0,.79-17.62c-.44-1.42-1.12-3-2.44-3.54a1.47,1.47,0,0,0-1.14-.11,2,2,0,0,0-1,1.51c-.84,3.31,0,6.9,1.2,10.19s1.61,5.9,2.62,9.57"/><path class="cls-4" d="M182.59,222.31a29,29,0,0,0-22.4-7.56c-5.48.55-11.45,3.47-12.65,8.84-.58,2.56-.38,5.95-2.8,7s-4.65-1.46-7.09-2.27c-4-1.36-8.66,3.27-7.3,7.31.62,1.84,2.18,3.44,2.05,5.38-.18,2.64-3.44,4-6.05,3.61s-4.92-1.94-7.48-2.59-5.88,0-6.78,2.49c-.81,2.22.59,5.22-1.17,6.82a4.8,4.8,0,0,1-2.84.92c-22.19,2.11-46.62,6.09-44.14,10,.68,1.07,2.41.73,3.69.71,47.22-.74,90.12-1.44,137.32,0"/><path class="cls-7" d="M188.09,132.43c-3.3,9.4-13.12,19.91-24.32,19.91-12.72,0-15.82-10.31-19.53-13.57-9.13-8-14.83-9.89-26.44-11.87-7.55-1.29-15.63-11.89-13.67-22.41,3.57-19.19,38.17-28.34,46.93-42.38,7.14-11.44,6.77-18.27,19.26-26.48"/><polyline class="cls-8" points="339.88 148.13 353.88 203.03 351.22 203.71 333.9 149.66"/><path class="cls-9" d="M326.93,149.38c-7.15,1.83-14.76-3.72-17-12.35s1.82-17.15,9-19,14.76,3.73,17,12.36S334.08,147.56,326.93,149.38Zm-6.76-26.52c-4.5,1.14-6.92,7-5.4,12.94s6.44,9.93,10.94,8.78,6.91-7,5.39-12.94S324.67,121.71,320.17,122.86Z"/><path class="cls-10" d="M334.29,134.13l4.26,16.69a1.58,1.58,0,0,1-1.13,1.91h0a1.57,1.57,0,0,1-1.91-1.13l-.48-1.89s-2.24-4.77-8.42-2.8c0,0,7.37-.92,7.62-.9S334.06,133.22,334.29,134.13Z"/><path class="cls-9" d="M338,155.13a4,4,0,0,1-4.92-2.92,6.55,6.55,0,0,0-.77-2c-.8-1.14-2.43-1.56-5.42-.8l-.76-4.22c1.57-.51,2.7-1.26,4-1.17l1.71-.21c0-1.29,0-3,0-4.3s1.78-2.95,1.77-3.95c0-1.79-1.84-3.6.38-3.89l2.19-.29L341,150.21A4.05,4.05,0,0,1,338,155.13Z"/><polyline class="cls-8" points="341.95 147.63 341.99 204.29 344.74 204.28 348.12 147.63"/><path class="cls-9" d="M341.42,129.48c0-8.91,6-16.17,13.36-16.18s13.39,7.25,13.4,16.16-6,16.17-13.37,16.18S341.42,138.39,341.42,129.48Zm4.95,0c0,6.18,3.79,11.2,8.43,11.2s8.42-5,8.42-11.22-3.79-11.2-8.43-11.2S346.37,123.3,346.37,129.48Z"/><path class="cls-10" d="M343.9,132.68c0,.94,0,17.23,0,17.23a1.57,1.57,0,0,0,1.57,1.57h0a1.58,1.58,0,0,0,1.57-1.57V148s1-5.17,7.46-4.8c0,0-7.37.93-7.6,1S343.9,131.74,343.9,132.68Z"/><path class="cls-9" d="M345.48,154a4,4,0,0,0,4-4,6.68,6.68,0,0,1,.24-2.16c.49-1.3,2-2.12,5.05-2.12l-.31-4.28c-1.64-.1-2.93-.55-4.13-.15l-1.71.22c-.31-1.25-.71-2.91-1-4.18s-2.46-2.41-2.7-3.38c-.44-1.74.89-3.94-1.34-3.68l-2.18.26v19.48A4,4,0,0,0,345.48,154Z"/><path class="cls-11" d="M269.38,67.68c.09-.42.2-.85.32-1.28"/><path class="cls-12" d="M270.52,63.91c3.93-10.06,15.07-20.18,31.91-16.31,12.19,2.81,15.43,14.29,22,21.67,4.85,5.47,11.74,10,14,17.69,5.21,17.82-1.88,37.12-14.57,43.19-7.06,3.38-24.61,1.86-33.58-1.28"/><path class="cls-11" d="M289,128.4c-.43-.17-.83-.35-1.2-.53"/><path class="cls-8" d="M365.4,130.93h4.9a1.17,1.17,0,0,1,1.17,1.17v62a0,0,0,0,1,0,0h-7.24a0,0,0,0,1,0,0v-62A1.17,1.17,0,0,1,365.4,130.93Z" transform="translate(34.74 -62.78) rotate(10.24)"/><path class="cls-13" d="M370.4,131.38h4.9a1.17,1.17,0,0,1,1.17,1.17v5.74a0,0,0,0,1,0,0h-7.24a0,0,0,0,1,0,0v-5.74A1.17,1.17,0,0,1,370.4,131.38Z" transform="translate(29.9 -64.12) rotate(10.24)"/><g class="cls-14"><rect class="cls-6" x="370.96" y="135.68" width="2.17" height="7.24" transform="translate(168.84 480.67) rotate(-79.76)"/></g><rect class="cls-4" x="371.71" y="140.76" width="12.5" height="67.62" transform="translate(90.34 -126.43) rotate(21.51)"/><line class="cls-15" x1="391.53" y1="145.94" x2="395.37" y2="147.45"/><line class="cls-15" x1="390.25" y1="149.21" x2="394.08" y2="150.72"/><line class="cls-15" x1="388.96" y1="152.48" x2="392.79" y2="153.99"/><line class="cls-15" x1="385.79" y1="155.01" x2="391.5" y2="157.26"/><line class="cls-15" x1="386.38" y1="159.01" x2="390.21" y2="160.52"/><line class="cls-15" x1="385.09" y1="162.28" x2="388.93" y2="163.79"/><line class="cls-15" x1="383.81" y1="165.55" x2="387.64" y2="167.06"/><line class="cls-15" x1="380.64" y1="168.08" x2="386.35" y2="170.33"/><line class="cls-15" x1="381.23" y1="172.08" x2="385.06" y2="173.59"/><line class="cls-15" x1="379.94" y1="175.35" x2="383.77" y2="176.86"/><line class="cls-15" x1="378.65" y1="178.62" x2="382.49" y2="180.13"/><line class="cls-15" x1="375.49" y1="181.15" x2="381.2" y2="183.4"/><line class="cls-15" x1="376.08" y1="185.15" x2="379.91" y2="186.67"/><line class="cls-15" x1="374.79" y1="188.42" x2="378.62" y2="189.93"/><line class="cls-15" x1="373.5" y1="191.69" x2="377.33" y2="193.2"/><line class="cls-15" x1="370.34" y1="194.22" x2="376.05" y2="196.47"/><line class="cls-15" x1="370.93" y1="198.23" x2="374.76" y2="199.74"/><line class="cls-15" x1="369.64" y1="201.49" x2="373.47" y2="203"/><line class="cls-15" x1="368.35" y1="204.76" x2="372.18" y2="206.27"/><path class="cls-9" d="M379.87,265.75h-58L312.16,178A1.88,1.88,0,0,1,314,176h73.71a1.88,1.88,0,0,1,1.87,2.09Z"/><path class="cls-16" d="M307.17,269.57,411.94,271c1.17,0,4.86-1.13-1.5-5.23-5.39-3.48-22.43-.35-22.43-.35s4-1.59,3.94-3.65a5.53,5.53,0,0,0-3.44-4.7,12.74,12.74,0,0,0-6-.8A38.55,38.55,0,0,0,370.3,259a3.53,3.53,0,1,0-4.1-5.73c2.62-3.54,6.67-19.25-5.77-26.17-15.59-8.68-27.43-1.54-29.95,3.68-1.28-5.12-7.16-9-11-10-8.83-2.19-14.59-1.54-22.84,2.31-2.91,1.36-6.82,6-8.76,8.59-3,4-3.51,9.38-3.68,14.42q-.18,5.67-.05,11.36"/><path class="cls-17" d="M327.58,275.15c0,1.81-35.18,3.28-78.57,3.28s-78.56-1.47-78.56-3.28,35.17-3.28,78.56-3.28S327.58,273.34,327.58,275.15Z"/><path class="cls-18" d="M250.51,46.48a7.88,7.88,0,0,0-7.88,7.89v10.1h15.76V54.37A7.88,7.88,0,0,0,250.51,46.48Zm0,12.41a4.43,4.43,0,1,1,4.42-4.42A4.42,4.42,0,0,1,250.51,58.89Z"/><g class="cls-19"><path class="cls-20" d="M254.93,54.47A4.42,4.42,0,0,0,250.51,50a4.6,4.6,0,0,0-.66.07,3.26,3.26,0,0,1,1.79-.43,4.42,4.42,0,0,1,4.42,4.42A3.59,3.59,0,0,1,253.23,58,4.86,4.86,0,0,0,254.93,54.47Zm-9.9,9V53.36a7.69,7.69,0,0,1,3.32-6.57,7.88,7.88,0,0,0-5.72,7.58v10.1h15.76v-1Z"/></g><rect class="cls-21" x="174.71" y="65" width="148.61" height="210.11" rx="9.74"/><rect class="cls-4" x="183.32" y="73.24" width="131.38" height="193.63"/><rect class="cls-22" x="188.38" y="79.16" width="121.28" height="181.8"/><path class="cls-18" d="M208.24,62.93h81.55a7,7,0,0,1,7,7v6.42a0,0,0,0,1,0,0h-95.6a0,0,0,0,1,0,0V70a7,7,0,0,1,7-7Z"/><path class="cls-23" d="M204.91,74.4V68.68a7.68,7.68,0,0,1,2.38-5.57,7.73,7.73,0,0,0-6.07,7.55v5.72h95.59v-2Z"/><circle class="cls-24" cx="212.66" cy="104.15" r="15.59"/><circle class="cls-25" cx="212.66" cy="104.15" r="18.1" transform="translate(62.75 287.45) rotate(-76.82)"/><path class="cls-22" d="M215.72,104.39a5.62,5.62,0,1,0-6.13,0,7.91,7.91,0,0,0-6.09,7.69v4.67a15.53,15.53,0,0,0,18.32,0v-4.67A7.92,7.92,0,0,0,215.72,104.39Z"/><polygon class="cls-26" points="237.96 89.79 238.71 91.32 240.4 91.56 239.18 92.76 239.47 94.44 237.96 93.64 236.44 94.44 236.73 92.76 235.51 91.56 237.2 91.32 237.96 89.79"/><polygon class="cls-26" points="245.33 89.79 246.09 91.32 247.78 91.56 246.55 92.76 246.84 94.44 245.33 93.64 243.82 94.44 244.11 92.76 242.89 91.56 244.58 91.32 245.33 89.79"/><polygon class="cls-26" points="252.71 89.79 253.46 91.32 255.15 91.56 253.93 92.76 254.22 94.44 252.71 93.64 251.19 94.44 251.48 92.76 250.26 91.56 251.95 91.32 252.71 89.79"/><polygon class="cls-26" points="260.08 89.79 260.84 91.32 262.53 91.56 261.31 92.76 261.59 94.44 260.08 93.64 258.57 94.44 258.86 92.76 257.64 91.56 259.33 91.32 260.08 89.79"/><polygon class="cls-26" points="267.46 89.79 268.21 91.32 269.9 91.56 268.68 92.76 268.97 94.44 267.46 93.64 265.95 94.44 266.24 92.76 265.01 91.56 266.7 91.32 267.46 89.79"/><g class="cls-27"><line class="cls-28" x1="236.32" y1="98.49" x2="252.02" y2="98.49"/><line class="cls-28" x1="287.23" y1="104.77" x2="299.16" y2="104.77"/><line class="cls-28" x1="236.32" y1="104.77" x2="282.06" y2="104.77"/><line class="cls-28" x1="236.32" y1="111.05" x2="299.16" y2="111.05"/><line class="cls-28" x1="279.19" y1="117.33" x2="299.16" y2="117.33"/><line class="cls-28" x1="236.32" y1="117.33" x2="274.22" y2="117.33"/><line class="cls-28" x1="257.17" y1="98.49" x2="299.16" y2="98.49"/></g><circle class="cls-24" cx="212.66" cy="148.2" r="15.59" transform="translate(-40.73 93.63) rotate(-22.72)"/><path class="cls-22" d="M215.72,148.43a5.62,5.62,0,1,0-6.13,0,7.91,7.91,0,0,0-6.09,7.69v4.67a15.53,15.53,0,0,0,18.32,0v-4.67A7.92,7.92,0,0,0,215.72,148.43Z"/><polygon class="cls-26" points="237.96 133.83 238.71 135.36 240.4 135.61 239.18 136.8 239.47 138.48 237.96 137.69 236.44 138.48 236.73 136.8 235.51 135.61 237.2 135.36 237.96 133.83"/><polygon class="cls-26" points="245.33 133.83 246.09 135.36 247.78 135.61 246.55 136.8 246.84 138.48 245.33 137.69 243.82 138.48 244.11 136.8 242.89 135.61 244.58 135.36 245.33 133.83"/><polygon class="cls-26" points="252.71 133.83 253.46 135.36 255.15 135.61 253.93 136.8 254.22 138.48 252.71 137.69 251.19 138.48 251.48 136.8 250.26 135.61 251.95 135.36 252.71 133.83"/><polygon class="cls-24" points="260.08 133.83 260.84 135.36 262.53 135.61 261.31 136.8 261.59 138.48 260.08 137.69 258.57 138.48 258.86 136.8 257.64 135.61 259.33 135.36 260.08 133.83"/><polygon class="cls-24" points="267.46 133.83 268.21 135.36 269.9 135.61 268.68 136.8 268.97 138.48 267.46 137.69 265.95 138.48 266.24 136.8 265.01 135.61 266.7 135.36 267.46 133.83"/><g class="cls-27"><line class="cls-28" x1="236.32" y1="142.53" x2="264.23" y2="142.53"/><line class="cls-28" x1="252.85" y1="148.81" x2="299.16" y2="148.81"/><line class="cls-28" x1="236.32" y1="148.81" x2="247.68" y2="148.81"/><line class="cls-28" x1="236.32" y1="155.09" x2="299.16" y2="155.09"/><line class="cls-28" x1="286.29" y1="161.37" x2="299.16" y2="161.37"/><line class="cls-28" x1="236.32" y1="161.37" x2="281.32" y2="161.37"/><line class="cls-28" x1="269.38" y1="142.53" x2="299.16" y2="142.53"/></g><circle class="cls-24" cx="212.66" cy="192.24" r="15.59" transform="translate(-46.1 315.63) rotate(-67.61)"/><path class="cls-22" d="M215.72,192.47a5.62,5.62,0,1,0-6.13,0,7.92,7.92,0,0,0-6.09,7.7v4.66a15.48,15.48,0,0,0,18.32,0v-4.66A7.92,7.92,0,0,0,215.72,192.47Z"/><polygon class="cls-26" points="237.96 177.87 238.71 179.4 240.4 179.65 239.18 180.84 239.47 182.52 237.96 181.73 236.44 182.52 236.73 180.84 235.51 179.65 237.2 179.4 237.96 177.87"/><polygon class="cls-26" points="245.33 177.87 246.09 179.4 247.78 179.65 246.55 180.84 246.84 182.52 245.33 181.73 243.82 182.52 244.11 180.84 242.89 179.65 244.58 179.4 245.33 177.87"/><polygon class="cls-26" points="252.71 177.87 253.46 179.4 255.15 179.65 253.93 180.84 254.22 182.52 252.71 181.73 251.19 182.52 251.48 180.84 250.26 179.65 251.95 179.4 252.71 177.87"/><polygon class="cls-26" points="260.08 177.87 260.84 179.4 262.53 179.65 261.31 180.84 261.59 182.52 260.08 181.73 258.57 182.52 258.86 180.84 257.64 179.65 259.33 179.4 260.08 177.87"/><polygon class="cls-24" points="267.46 177.87 268.21 179.4 269.9 179.65 268.68 180.84 268.97 182.52 267.46 181.73 265.95 182.52 266.24 180.84 265.01 179.65 266.7 179.4 267.46 177.87"/><g class="cls-27"><line class="cls-28" x1="236.32" y1="186.57" x2="252.02" y2="186.57"/><line class="cls-28" x1="265.11" y1="192.85" x2="299.16" y2="192.85"/><line class="cls-28" x1="236.32" y1="192.85" x2="259.94" y2="192.85"/><line class="cls-28" x1="236.32" y1="199.13" x2="299.16" y2="199.13"/><line class="cls-28" x1="250.62" y1="205.41" x2="299.16" y2="205.41"/><line class="cls-28" x1="236.32" y1="205.41" x2="245.65" y2="205.41"/><line class="cls-28" x1="257.17" y1="186.57" x2="299.16" y2="186.57"/></g><circle class="cls-24" cx="212.66" cy="236.28" r="15.59"/><path class="cls-22" d="M215.72,236.51a5.62,5.62,0,1,0-6.13,0,7.92,7.92,0,0,0-6.09,7.7v4.66a15.48,15.48,0,0,0,18.32,0v-4.66A7.92,7.92,0,0,0,215.72,236.51Z"/><polygon class="cls-26" points="237.96 221.92 238.71 223.45 240.4 223.69 239.18 224.88 239.47 226.57 237.96 225.77 236.44 226.57 236.73 224.88 235.51 223.69 237.2 223.45 237.96 221.92"/><polygon class="cls-26" points="245.33 221.92 246.09 223.45 247.78 223.69 246.55 224.88 246.84 226.57 245.33 225.77 243.82 226.57 244.11 224.88 242.89 223.69 244.58 223.45 245.33 221.92"/><polygon class="cls-26" points="252.71 221.92 253.46 223.45 255.15 223.69 253.93 224.88 254.22 226.57 252.71 225.77 251.19 226.57 251.48 224.88 250.26 223.69 251.95 223.45 252.71 221.92"/><polygon class="cls-26" points="260.08 221.92 260.84 223.45 262.53 223.69 261.31 224.88 261.59 226.57 260.08 225.77 258.57 226.57 258.86 224.88 257.64 223.69 259.33 223.45 260.08 221.92"/><polygon class="cls-26" points="267.46 221.92 268.21 223.45 269.9 223.69 268.68 224.88 268.97 226.57 267.46 225.77 265.95 226.57 266.24 224.88 265.01 223.69 266.7 223.45 267.46 221.92"/><g class="cls-27"><line class="cls-28" x1="299.16" y1="249.46" x2="283.47" y2="249.46"/><line class="cls-28" x1="248.26" y1="243.17" x2="236.32" y2="243.17"/><line class="cls-28" x1="299.16" y1="243.17" x2="253.43" y2="243.17"/><line class="cls-28" x1="299.16" y1="236.89" x2="236.32" y2="236.89"/><line class="cls-28" x1="256.3" y1="230.61" x2="236.32" y2="230.61"/><line class="cls-28" x1="299.16" y1="230.61" x2="261.27" y2="230.61"/><line class="cls-28" x1="278.32" y1="249.46" x2="236.32" y2="249.46"/></g><path class="cls-29" d="M260.63,188.78a24.81,24.81,0,0,0,14.25,4.51,25.36,25.36,0,0,0,4.41-.39,24.85,24.85,0,0,0,9.84-4.07l9.3,11.24a3.84,3.84,0,0,0,.11,1.12,3.17,3.17,0,0,0,1.95,2.42c.27.07.59.12.74.36a1.48,1.48,0,0,1,.12.47,1.66,1.66,0,0,0,1.77,1.29h0l6.9,8.34a1.32,1.32,0,0,0,.53,1.09c.2.13.47.25.49.49a.78.78,0,0,1-.08.36,1,1,0,0,0,.31,1,1,1,0,0,0,1.06.08,1.59,1.59,0,0,0,1.47,1.52l7.11,8.59a2.78,2.78,0,0,0,2.14,1l.27,0v-6.78l-5.07-6.12.16-.21a4.57,4.57,0,0,1,.9-.8l.13.31,3.88-1.38v-5.11c-2.91,1.78-5.26,3.24-5.26,3.24l0,.08-.2.06a20.69,20.69,0,0,1-2.76,0l-6.93-8.37c1.29-.36,3-.85,4.81-1.44l.11,0,.7-.23.25-.09.57-.19.29-.1.54-.19.32-.11.51-.19.31-.11.52-.2.29-.11L318,200l.26-.1.69-.29.07,0,.74-.32.18-.09.51-.24.24-.12.41-.21.24-.14.36-.19.23-.14.32-.2.21-.14.28-.2.18-.13.26-.23.13-.1,0-.05V169.56c-.14.14-.28.25-.42.4-2.79,3-4.76,22.23-4.84,22.94-.05.54-8,5.13-11.94,7.38a2.21,2.21,0,0,0-.56-1.47,3.89,3.89,0,0,0-1.56-1,.64.64,0,0,0-.24-.05l-10.45-12.61A25,25,0,1,0,254.45,154,25,25,0,0,0,260.63,188.78ZM259,157.18a19.32,19.32,0,0,1,12.52-8,20.07,20.07,0,0,1,3.44-.3,19.43,19.43,0,1,1-16,8.3Z"/><path class="cls-30" d="M125.86,278.69c0,.94-9.85,1.71-22,1.71s-22-.77-22-1.71,9.85-1.71,22-1.71S125.86,277.75,125.86,278.69Z"/><path class="cls-31" d="M132.51,192.5a28.74,28.74,0,0,0,2.88,3c.28.1,2.14.45,2.76.57a2.48,2.48,0,0,1,.66.18,2.22,2.22,0,0,1,.56.45,18.88,18.88,0,0,1,1.27,1.54,3.35,3.35,0,0,1,.29.44,3.09,3.09,0,0,1,.19.61c.26,1.2.49,2.4.68,3.61a.3.3,0,0,1,0,.19c-.07.14-.28.11-.4,0s-.2-.25-.35-.29v.3a.73.73,0,0,1-.68-.09,5.66,5.66,0,0,1-2.12-2.06,2.38,2.38,0,0,0-.34-.49c-.37-.37-1-.36-1.46-.49a8.24,8.24,0,0,1-1.38-.45c-.79-.36-.89-1.31-1-1.49a1,1,0,0,0-.21-.25c-.52-.46-2.58-2-2.58-2"/><path class="cls-32" d="M104,131.78c1.14.33,1.75,1.81,2.14,2.82a16.06,16.06,0,0,1,.86,3.81,5.31,5.31,0,0,1-.19,2.69,5.74,5.74,0,0,1-.75,1.16,2.44,2.44,0,0,1-.54.57.83.83,0,0,1-.74.13c-.36-.14-.51-.56-.61-.93a24.4,24.4,0,0,0-2.74-6.94"/><path class="cls-33" d="M105.27,139.4c0-.77.83-1.26,1.53-.47a4.86,4.86,0,0,1,.76,2.82c0,1.11-.81,1.33-1.52,1.48"/><path class="cls-34" d="M113.61,270.22a26.56,26.56,0,0,1-.14,3.19c-.17.83-2.86.56-3.12.09s.06-4.36.06-4.36"/><path class="cls-18" d="M109.57,274.3c-.07.88-.07,2.55-.07,2.55l2.76.66.35-.46a4.94,4.94,0,0,0,1.62.88,10.82,10.82,0,0,0,2.6.25c2.28-.15,3.86-.86,3.93-1.2.33-1.39-2.7-1.21-3.31-1.27a4,4,0,0,1-3.31-2.32c-.25-.65-.1-.8-.48-.72a1,1,0,0,0-.59.42,1.63,1.63,0,0,1-1.74.74,2,2,0,0,1-1-.59A1.13,1.13,0,0,0,109.57,274.3Z"/><path class="cls-35" d="M108.34,241.35c.26-4.13-3.07-9.66-3.07-9.66s9-5,9.15-6.5c0,0,1.23,8.51,1.67,11.51.77,5.21-1.83,34.94-1.83,34.94a10.78,10.78,0,0,1-4.39.06s-.47-11.48-2.35-19.26C106.63,248.75,108,242.37,108.34,241.35Z"/><path class="cls-35" d="M107.62,193.7c3.38,7.55,7.06,31.92,7.94,40.33.37,3.57-2.6,7.75-6.06,4.52-4.13-3.85-9.94-21.49-12-24.6s-9.84-6-4.54-21.76"/><path class="cls-34" d="M92.42,270.37s-.3,3.32-.42,4.16-2.82.72-3.11.26-.17-4.36-.17-4.36"/><path class="cls-18" d="M88.13,275.49a18,18,0,0,0,.09,2.34l3.11.21.19-.51a4.81,4.81,0,0,0,1.76.64l2.63.18c1.92.12,3-.05,3.1-.38.29-1.4-2-1.49-2.6-1.53-1.72-.12-3.52-1-3.87-1.94-.25-.65-.11-.8-.47-.71a.91.91,0,0,0-.57.42,1.58,1.58,0,0,1-1.68.78,1.85,1.85,0,0,1-1-.58A1.14,1.14,0,0,0,88.13,275.49Z"/><path class="cls-35" d="M99.18,240.86c-.57,2.94-8.25,1.84-8.08-.76.23-3.7-2.36-8.48-3.35-26.09-.12-2-2.13-2.31-2.93-7.78s2.47-11.55,2.47-11.55L99.1,193s4.54,10.24,3.6,20.45S99.86,237.4,99.18,240.86Z"/><path class="cls-35" d="M91.12,239.48s-2.69,5.32-3,9.17c-.46,5.62.11,24.14.11,24.14a12,12,0,0,0,4.45.17s6.82-32.85,7.07-36.38S91.12,239.48,91.12,239.48Z"/><path class="cls-36" d="M112.19,158.09c-1.33-1.53-5.57-4.05-11.23-3.88-3.91.13-14.53.77-15.72,3.38-.61,1.34-1.26,15-.37,19.71.67,3.55,2.38,12.32,2.38,14.44s-1.14,3-.61,3.64c1.19,1.38,9.32,2,13.14,2,3.4,0,9.18-.91,9.47-2,.44-1.62-.66-1.56-.81-3.25s-1-12.87,0-14.49c1.58-2.58,3.15-9.37,3.27-11.31S113.53,159.62,112.19,158.09Z"/><path class="cls-29" d="M87.86,169.15c-.41.84-3.16,5.26-3.16,5.26l-.11.53a22.63,22.63,0,0,0,.28,2.36c.67,3.55,2.38,12.32,2.38,14.44s-1.14,3-.61,3.64,2.07,1,4,1.28a4.93,4.93,0,0,1-.91-1.31c-.16-.62.88-.46,1.07-1s-2.36-10.76-3-15.68S88.26,168.3,87.86,169.15Z"/><path class="cls-31" d="M104.29,149.41a44.34,44.34,0,0,0,.23,4.9,7.44,7.44,0,0,0,1.12.63S105,159,104,158.73,96.14,155,96.14,155s1-.39,1-.77-.91-7.79-.91-7.79"/><path class="cls-31" d="M99.58,132.29c1,.27,3.59-.27,4.31.8a24.78,24.78,0,0,1,1.62,4.4c.53,1.43.88,3,1.27,4.44.51,1.92,1.35,5.44-.53,7a2.51,2.51,0,0,1-1.45.74l-2.67.5a8.82,8.82,0,0,1-4.27.09c-1.83-.59-2.84-3.11-3.31-4.82l-2.69-9.78Z"/><path class="cls-37" d="M104.2,159.86s.37,17.34,1.08,27.89l-2.55,3.52-1.75-4.4A134.15,134.15,0,0,1,102.64,160Z"/><path class="cls-37" d="M104.79,158.33l-.06.24a5,5,0,0,1-.53,1.29h0l-1.56.12s-1.07-.56-1.21-1.16,1.75-1.58,1.75-1.58l.23.09a3.47,3.47,0,0,1,1.36,1Z"/><path class="cls-38" d="M96.93,152.59a9.71,9.71,0,0,0-2.13,2.16,20,20,0,0,0,5.2,6.46,9.07,9.07,0,0,1,3.18-4S97.49,156.06,96.93,152.59Z"/><path class="cls-38" d="M103.18,157.24a6.7,6.7,0,0,1,3.11,3,15,15,0,0,0-.42-5.49s-1.06-1.77-1.5-1.81A8.46,8.46,0,0,1,103.18,157.24Z"/><path class="cls-36" d="M111.05,157.08c3.45,1.92,9.35,21.64,10,21.86s14,16,14,16L133,197.78s-13.5-9.82-17.38-14.12c-2.73-3-7.89-16.54-7.89-16.54S107.59,155.16,111.05,157.08Z"/><path class="cls-29" d="M116.86,182.86c-1.33-1.18-5.57-13.71-5.57-13.71l-1,4.29c1.69,3.95,3.86,8.6,5.32,10.22C119.47,188,133,197.78,133,197.78l.83-1.12S118.2,184,116.86,182.86Z"/><path class="cls-13" d="M93.48,189.92,73,193.79a1,1,0,0,0-.76,1.22L75,209.19a1,1,0,0,0,1.12.7L96.59,206a1,1,0,0,0,.76-1.22L94.6,190.62A1,1,0,0,0,93.48,189.92Z"/><polygon class="cls-39" points="93.24 191.01 73.61 194.72 76.33 208.8 95.96 205.09 93.24 191.01"/><line class="cls-40" x1="93.76" y1="204.36" x2="91.62" y2="192.37"/><line class="cls-40" x1="91.91" y1="204.71" x2="89.77" y2="192.73"/><line class="cls-40" x1="89.25" y1="205.26" x2="87.1" y2="193.27"/><line class="cls-40" x1="86.58" y1="205.81" x2="84.44" y2="193.82"/><line class="cls-40" x1="83.92" y1="206.35" x2="81.52" y2="194.36"/><line class="cls-40" x1="81.26" y1="206.9" x2="78.85" y2="194.91"/><line class="cls-40" x1="78.59" y1="207.44" x2="76.09" y2="195.46"/><path class="cls-31" d="M82.62,200.23s.81,1.66,1.24,2.5c.28.54,2.44,2.38,3.3,3.84a3.75,3.75,0,0,1,.68,2.31,1.55,1.55,0,0,1-1.67,1.41c-.23,0-.49-.16-.68,0a1,1,0,0,0-.19.29.93.93,0,0,1-.92.46,1,1,0,0,1-.76-.69,1.55,1.55,0,0,1-2.05,0,1.26,1.26,0,0,0,.5-1.09,2.42,2.42,0,0,0-.63-1,3.12,3.12,0,0,1-.64-2c0-.5.15-1,.2-1.5a4.7,4.7,0,0,0-.66-3"/><path class="cls-36" d="M88.79,167.11c-.62,2.21-10.06,16.73-10.06,16.73l5.06,18.41-2.88,1.81s-9-14.93-9-19.14,6.57-19.66,11.39-26a11.07,11.07,0,0,1,4.61-3"/><path class="cls-37" d="M93.54,143.79c.62-.37,1.1-.75,1.5-.15.22.31.35.75.71.86a.75.75,0,0,0,.84-.59,2.16,2.16,0,0,0-.14-1.12l-.75-2.41a3.6,3.6,0,0,1-.17-2.41,2.55,2.55,0,0,1,.76-1,7.89,7.89,0,0,1,3.69-1.58c1.33-.28,2.69-.41,4-.82a4.52,4.52,0,0,0,1.52-.76,3.28,3.28,0,0,0,1.07-2.45,5.07,5.07,0,0,0-.78-2.61,4.23,4.23,0,0,1-.39.9,3.38,3.38,0,0,0-.73-1.13c-.39,2.15-9.46,1.43-11.58,2.38-1.47.66-2.69,1.09-2.64,3.47a.9.9,0,0,1-.29.38,6.63,6.63,0,0,0-2,4.82c-.2,2.64,1.34,5.5,2.85,7.68a4.85,4.85,0,0,0,1.12,1.34,2.91,2.91,0,0,0,2.11.48c.65-.13,1.94-.07,2-.74,0-.47-1-1.32-1.29-1.71"/><path class="cls-31" d="M95.92,146.29a1,1,0,0,1-.17.79,1,1,0,0,1-1.07.15A2.88,2.88,0,0,1,92.86,145c-.21-1.15.4-2.29,1.45-2a1.54,1.54,0,0,1,1,1.5"/><path class="cls-33" d="M104.28,149.81l-2.91.53a4.05,4.05,0,0,0,2.95,1.09"/><path class="cls-41" d="M110.75,241.29c.53-1.72-1-4.4-1.69-6.4s-6.21-18-6.21-18l-1.21,6.45c1.14,2.76,2.38,5.72,3.63,8.33h0c.48,1,1,1.95,1.43,2.83a15.86,15.86,0,0,1,1.64,6.83c-.31,1-1.71,7.4-.82,11.09,1.88,7.78,2.35,19.26,2.35,19.26a11.47,11.47,0,0,0,1.35.16c-.16-2.83-.44-7.84-.47-8.83,0-1.4-1.81-9.45-1.69-12.63A43,43,0,0,1,110.75,241.29Z"/><polygon class="cls-13" points="96.83 200.59 95.06 201.01 93.78 194.38 95.56 194 96.83 200.59"/><path class="cls-13" d="M99.3,196.67a1.6,1.6,0,0,0-1.88-1.29l-2,.38.6,3.18,2-.39A1.61,1.61,0,0,0,99.3,196.67Zm-2.49.47a.9.9,0,0,1,.72-1.06.91.91,0,1,1,.33,1.78A.9.9,0,0,1,96.81,197.14Z"/><ellipse class="cls-30" cx="160.48" cy="291.43" rx="22.85" ry="2.06"/><path class="cls-29" d="M188.61,167.72l-14-1.88v28.1l7.61,1a1.27,1.27,0,0,0,1.42-.91l6.06-24.89A1.21,1.21,0,0,0,188.61,167.72Z"/><path class="cls-36" d="M170.91,164.52l-5,22.18a1.07,1.07,0,0,0,.89,1.29l15.72,2.25a1.05,1.05,0,0,0,1.18-.81l5-22.18a1.06,1.06,0,0,0-.88-1.29l-15.72-2.25A1.06,1.06,0,0,0,170.91,164.52Z"/><polygon class="cls-39" points="171.9 165.24 167.06 186.47 182.67 188.71 187.5 167.48 171.9 165.24"/><line class="cls-40" x1="185.85" y1="169.04" x2="172.59" y2="167.14"/><line class="cls-40" x1="185.4" y1="171.05" x2="172.14" y2="169.14"/><line class="cls-40" x1="179.88" y1="172.71" x2="171.59" y2="171.52"/><line class="cls-40" x1="179.29" y1="174.44" x2="171" y2="173.25"/><line class="cls-40" x1="178.7" y1="176.16" x2="170.42" y2="174.97"/><line class="cls-40" x1="181.74" y1="185.7" x2="173.45" y2="184.51"/><path class="cls-33" d="M164.87,187a6.88,6.88,0,0,0,2.18-1.95c.62-.75,1.25-1.49,1.87-2.23a1.9,1.9,0,0,0,.54-1c-1.05-.08-1.73,1.28-2.77,1.36a21.47,21.47,0,0,1,2.08-4.94,1.59,1.59,0,0,0,.3-1.24,8,8,0,0,0-2.91,2.13,15.27,15.27,0,0,0-1.58,2,21.63,21.63,0,0,0-2.82,6.93"/><path class="cls-31" d="M160.36,204.83l-11.22-9.47s-5.22,7.09-3.26,13.92c1,3.36,2.18,5,2.71,6.62s3.87,22.58,3.62,24.12-2.07,5.85-2.76,10.39c-.83,5.45-.69,23.23-1.33,27.94s3.7,5.51,3.94,3.92c2.05-13.63,7.45-34.87,8.21-41.68S160.72,221.3,160.36,204.83Z"/><path class="cls-33" d="M160.39,218.26l-4.88,11.2a25.11,25.11,0,0,1,3.41,11.74c.08,2.16-.11,4.32,0,6.48a1.84,1.84,0,0,0,.06.47c.66-3.2,1.15-5.84,1.34-7.56.53-4.81.53-12.46.36-22.34Z"/><path class="cls-31" d="M152.82,277.89s-1,4.95-.77,5.58a8.83,8.83,0,0,0,2.33,3.12c1.09.7,3.49,1.52,3.69,1.82a.75.75,0,0,1-.14,1,5,5,0,0,1-3.43.87c-3.26-.54-3.6-2-5.5-2.21-.33,0-.94.45-1.85,0a2.17,2.17,0,0,1-1.27-2.09,9.3,9.3,0,0,1,1.45-3.49c.54-1,.93-5.62.93-5.62"/><path class="cls-37" d="M158.18,289.66c.24-.41.3-1,.08-1.17a19.25,19.25,0,0,0-2-1.22c-.63-.29-1.64-.55-1.28-.36s-.3.9-.89.87c-2.05-.13-3.56-1.49-4.72-1.78a4,4,0,0,1-2.46-2.72,7.79,7.79,0,0,0-1.21,2.3,4.08,4.08,0,0,0-.25,1.76,4,4,0,0,1,.19,1.67,3.12,3.12,0,0,0,1.21.44,5,5,0,0,0,1.3,0l.14-1.06a4.69,4.69,0,0,1,1,.1,5.66,5.66,0,0,1,1.59.74c.24.28.42.79.73.95a6.54,6.54,0,0,0,2.68.67C156.5,291,157.78,290.36,158.18,289.66Z"/><path class="cls-31" d="M175.68,289.46c-.24-.27-2.84-.69-4.06-1.2a7,7,0,0,1-2.84-2.71,29.27,29.27,0,0,1-.17-5.43c.24-9.7,2-33.42,2.29-39.09.45-9.87-.83-20.06-4.63-35.91l-14.14-10.85s-4,7.36-2.63,14.4c.77,4.08,4.15,4.71,4.73,6.3s9.13,27.18,9.13,27.18a48.07,48.07,0,0,0-1.77,11.59c-.08,5.18,2.27,20.79,2.7,26.73.05,1.17.25,3.95-.09,4.83-.42,1.09-1.49,2.36-1.43,3.73a2.1,2.1,0,0,0,1.6,1.86c1,.31,1.56-.27,1.91-.28,2-.08,2.55,1.29,6,1.29a5.43,5.43,0,0,0,3.41-1.42A.72.72,0,0,0,175.68,289.46Z"/><path class="cls-37" d="M176,290.67c.19-.44.16-1.06-.09-1.17a19.6,19.6,0,0,0-2.26-.88c-.7-.18-1.77-.27-1.38-.14s-.18.94-.79,1c-2.13.21-3.88-.88-5.12-1-1.8-.14-2.45-2-2.58-2.29a8.33,8.33,0,0,0-1.27,2.47,4,4,0,0,0,0,1.78,4.1,4.1,0,0,1,.43,1.62,3.31,3.31,0,0,0,1.3.24,5.27,5.27,0,0,0,1.35-.2v-1.06a4.7,4.7,0,0,1,1.09-.07,3.58,3.58,0,0,1,1.75.62c.29.22.6.59.94.67a7.27,7.27,0,0,0,2.8.22C174.43,292.26,175.66,291.42,176,290.67Z"/><path class="cls-37" d="M149.43,194.17c-1,1.06-4.38,6.76-4.41,11.39s1.61,7.62,1.76,8.59c1.08,7.08,2.13,15.63,2.13,16.09s4,3.15,9.44,2.81c10-.63,13.88-3.25,13.88-3.25s-.48-17.16-2-25.63c-.77-4.24-4.13-11.07-4.13-11.07"/><path class="cls-31" d="M140.31,175.64s1.61,8,2,9.42,2.51,10.46,4.49,10.3,12.82-9.21,12.82-9.21l-1.54-3.07-9.54,4.55s-.86-10.33-1.62-12.79"/><path class="cls-33" d="M144,180.56c1,3.57,3.08,7.34,3.7,10.1.13.56,6.74-1.84,6.75-4.32"/><path class="cls-18" d="M146.78,164.55s-3.17.34-4.77,1.56c-4.09,3.14-.93,14.5-.93,14.5s-.2.61,2.55.45a19.68,19.68,0,0,0,5-.93l-.79-9.32"/><path class="cls-20" d="M143.16,171s-.35,6.68.86,10.06a11.11,11.11,0,0,0,2.24-.3Z"/><path class="cls-31" d="M161.9,143.58c1.91,2.48,1.53,5.95,1.06,9-.23,1.56-.47,3.12-.71,4.68a2.35,2.35,0,0,1-3,2.47c0,1.29,0,2.59,0,3.88q-3.31.07-6.63,0a6.48,6.48,0,0,0-.57-2.63c-1.08,0-1.81-1.1-2.23-2.1a30.65,30.65,0,0,1-1.19-3.54,19.79,19.79,0,0,1-.93-4.86,7.06,7.06,0,0,1,1.4-4.66,8.47,8.47,0,0,1,2.69-2c1.37-.71,3-1.28,4.43-.65"/><path class="cls-37" d="M159.62,155.36a4,4,0,0,1,.18-2.89,1.94,1.94,0,0,1,.58-.74,1.22,1.22,0,0,1,1.18-.12,1.38,1.38,0,0,1,.6.55,16.92,16.92,0,0,0,.41-5.41,7,7,0,0,0-4.47-6.13c-4.68-1.93-11.4,0-13.3,4.57a11.36,11.36,0,0,0,2,11.39c2.43,2.57,5.93,2.95,9.16,2.42,1.65-.27,4.21-.11,5.06-2.36a.25.25,0,0,0-.26-.33C160.13,156.36,159.67,155.6,159.62,155.36Z"/><path class="cls-37" d="M160,149.25c.17.27.13.64.29.92a2.19,2.19,0,0,0,1.13.87c.8.36.61,1.52.59,2,.6-.4.7-1.49.84-2s.27-1.25.45-1.86a9.42,9.42,0,0,0,.53-1.79,7.31,7.31,0,0,0-2.81-5.94,3.91,3.91,0,0,0-4.38.05,3.38,3.38,0,0,0-1.25,1.59,1.06,1.06,0,0,0-.05.85"/><path class="cls-20" d="M149.34,164.58c.11-.76.32-1.64,1-1.94a2.21,2.21,0,0,1,.62-.13,52.3,52.3,0,0,1,6.5-.31,6.2,6.2,0,0,1,2.63.46,6.47,6.47,0,0,1,2.55,3.26"/><path class="cls-18" d="M167.6,192.31a17.51,17.51,0,0,1-1.24-1.47,22.86,22.86,0,0,1-.92-7.4c.22-1.36,1.42-2.09,2-5.11a11.12,11.12,0,0,0-1.79-8.21c-1.26-1.84-.51-1.83-.94-4.07a2.15,2.15,0,0,0-.45-1.12,10.37,10.37,0,0,0-2.52-1.19c-3.51-.55-5.57-.12-9.11,0a30.92,30.92,0,0,0-5.23.66c-1.9.42-3.56.93-4,3.52a25.92,25.92,0,0,0,1.12,11.83c.8,2.51,5.61,11.21,4.42,12.89a5.83,5.83,0,0,0-1,1.6c-.31,1.76,3.66,2.37,5.36,2.51a65.35,65.35,0,0,0,8.16-.05c2-.09,6.27-.78,6.57-3.21A1.75,1.75,0,0,0,167.6,192.31Z"/><path class="cls-20" d="M166.85,179.08a6.62,6.62,0,0,1-.52,2,5.41,5.41,0,0,1-3.57.16,52.94,52.94,0,0,0-1.61-6.83S166.85,178.43,166.85,179.08Z"/><path class="cls-37" d="M150.49,157.39a3.76,3.76,0,0,0-3.7,1.45c-1,1.25-1.49,3.18-.52,4.47a4.32,4.32,0,0,0,1.41,1.13,7.47,7.47,0,0,0,5.3,1,4.25,4.25,0,0,0,3.33-3.88c0-1.66-1.24-3-2.46-4.17"/><path class="cls-31" d="M164.34,177.45s6.48,15.65,9.29,15.65c2,0,7.05-14.44,7.05-14.44l-3.16-1.5L174,183.21l-3.58-11.29"/><path class="cls-31" d="M176.89,178.23a6.12,6.12,0,0,0,1-2.82,12,12,0,0,1-.07-3,12.05,12.05,0,0,1,1.06-2.06c.3-.26,1.43-.69,1.7-.5s.62-.69,1.08-.61a1,1,0,0,1,.83.87c0,.42.61.5.69.8a3.45,3.45,0,0,0,.15.8c.11.23.45.12.57.69s0,.57,0,.83.27.24.19.75a6.3,6.3,0,0,1-.73,1.74,4.94,4.94,0,0,1-1.76,1.78c-.42.25-.64.69-1,1.43"/><path class="cls-37" d="M178.63,166.14a.39.39,0,0,0-.56-.15.49.49,0,0,0-.12.62c.05.13,1.91,4.33,1.91,4.33s.16.18.45-.08.22-.42.22-.42S178.71,166.27,178.63,166.14Z"/><path class="cls-33" d="M180.65,170.16a4.58,4.58,0,0,1-1.17,1.22c-.3.28-.26.46-.59.74.58,0,.48-.38,1.22-.92a1.54,1.54,0,0,0,.77-.94.13.13,0,0,0-.23-.1Z"/><path class="cls-18" d="M158.39,163.5c1.68.08,6.59-.78,9.32,2.08,2.29,2.39,3.6,8.66,4.52,11.2-2.29,2.33-4.5,4.21-8,3.46-.13-.1-1.85-5.52-3.1-6"/><path class="cls-32" d="M160.26,232.9c-.64-4.12-4.58-16.89-4.75-17.24a15.37,15.37,0,0,1-4.28-4.77c-.48,2.8.79,5.57,2,8.14,2.09,4.5,3.33,9.4,5.13,14"/><path class="cls-36" d="M326.72,167.91c-2.79,3-4.76,22.22-4.83,22.93s-14.14,8.63-14.14,8.63l2,2.27s15-3.78,17.68-7c2.29-2.76,7.57-25.36,7.57-25.36S331.36,162.93,326.72,167.91Z"/><ellipse class="cls-30" cx="348.55" cy="297.46" rx="41.89" ry="2.87"/><path class="cls-31" d="M369.68,282.2a25.29,25.29,0,0,0,1.73,2.9c.57.7,3.08-.88,3.1-1.45s-2.23-4-2.23-4"/><path class="cls-37" d="M375.62,283.87c.54.76,1.43,2.29,1.43,2.29l-2.21,2-.58-.25a5,5,0,0,1-1,1.63,11.16,11.16,0,0,1-2.29,1.56c-2.2,1-4.05,1.19-4.3.92-1.05-1.1,1.86-2.49,2.41-2.86a4.07,4.07,0,0,0,1.83-3.81c-.11-.73-.33-.79.07-.9a1,1,0,0,1,.77.08,1.78,1.78,0,0,0,2-.22,2,2,0,0,0,.65-1.07A1.25,1.25,0,0,1,375.62,283.87Z"/><path class="cls-31" d="M328.47,289.77A6.4,6.4,0,0,0,328,292c.07.9,3,1,3.4.5s.51-4.58.51-4.58"/><path class="cls-37" d="M332.16,293.32a18.33,18.33,0,0,1-.27,2.45h-3.43l-.17-.55a5.53,5.53,0,0,1-2,.55h-2.9c-2.12,0-3.32-.26-3.38-.61-.22-1.5,2.31-1.43,3-1.43,1.89,0,3.94-.85,4.39-1.77.33-.67.18-.84.57-.71a1,1,0,0,1,.59.48,1.75,1.75,0,0,0,1.79.94,2.12,2.12,0,0,0,1.16-.54A1.2,1.2,0,0,1,332.16,293.32Z"/><path class="cls-18" d="M346,227.49c0,.12-2.8-3.06-2.83-2.93-1.11,5.58-6.25,24.22-8,29.11h0a5.17,5.17,0,0,1-2.66,2.44c-2.51.65-6.52-.21-6.84-5,0-.53.08-1.11,0-1.74-.72-7.39,6.36-40,6.54-42.1s4.26-.57,5.41-1C343.34,204.41,347.44,219.69,346,227.49Z"/><path class="cls-18" d="M335.49,256.31c-1.16-3.47.6-7.54.6-7.54s-9.86-7.59-10.37-3c-.05.37-.41,3.51-.41,5.28,0,6.33,2.2,26.38,2,38.63v.8a24.3,24.3,0,0,0,4.54.3h.41c.83-7.63,2.61-18,3.46-28.43A23.83,23.83,0,0,0,335.49,256.31Z"/><path class="cls-18" d="M360.67,254.75c-2-2.46-4.06-3.55-4.68-5.42-1.43-4.35-1-22-1.18-26.87.41-1,4.21-11-3.5-18.37,0,0-6.94,3-12.5,3.34a28.4,28.4,0,0,1-6.59-.16s4.13,6.24,4.37,9c.41,4.69,9.18,33,9.85,34.59a18.4,18.4,0,0,0,3.77,5.65c3.89,5.06,13,15.71,19.89,25.9l.47.66a19.52,19.52,0,0,0,4-2.25C370.82,274,366.93,262.52,360.67,254.75Z"/><path class="cls-36" d="M326.72,167.91c1.39-1.59,7.33-4,13.21-3.86,4.05.12,16.92,1.45,18.15,4.16.63,1.38.57,14.53-.35,19.42-.69,3.67-2.79,13.12-2.79,15.32s1.18,3.14.63,3.78c-1.23,1.43-10.46,2.07-14.42,2.07-3.52,0-9.53-.94-9.83-2.07-.45-1.68.69-1.62.84-3.37s1-13.35-.05-15c-1.63-2.67-4.12-10.25-4.25-12.27S325.34,169.5,326.72,167.91Z"/><path class="cls-31" d="M336.47,159.05a47.74,47.74,0,0,1-.23,5.09,7.75,7.75,0,0,1-1.17.66s.69,4.25,1.76,3.93,8.09-3.87,8.09-3.87-1-.4-1-.8.94-8.08.94-8.08"/><path class="cls-32" d="M338.37,143a3,3,0,0,0-3-.21,4.42,4.42,0,0,0-2.07,2.35,3.52,3.52,0,0,0,0,3,1.85,1.85,0,0,0-1.15,1.74,4.33,4.33,0,0,0,.91,2.24,2.05,2.05,0,0,0,2,.85,2.36,2.36,0,0,0,1.29-.91,5.65,5.65,0,0,0,.72-1.43,38.75,38.75,0,0,0,2-7.18"/><path class="cls-31" d="M341.36,141.29c-1,.28-3.73-.28-4.48.84a26,26,0,0,0-1.67,4.56c-.56,1.49-.92,3.07-1.33,4.6-.52,2-1.88,5.75.07,7.42a4,4,0,0,0,2,.66l2.77.52a9.27,9.27,0,0,0,4.44.1c1.9-.62,2.94-3.23,3.42-5l2.8-10.16Z"/><path class="cls-31" d="M345.55,156a1,1,0,0,0,.27.79,1,1,0,0,0,1.13,0,3,3,0,0,0,1.6-2.5c.08-1.21-.69-2.31-1.73-1.88a1.6,1.6,0,0,0-.84,1.67"/><path class="cls-37" d="M348.12,150.44c-.33,1-1.2,3.3-2.11,3.08s.37-3.81,1.16-5.25c-1.15,0-2.57-.18-3-1.26-.09-.24-.17-.56-.42-.61s-.39.12-.57.24a2.13,2.13,0,0,1-2.56-.71c-.15-.16-.32-.35-.54-.34a.77.77,0,0,0-.36.18c-1.33.94-4.86.89-4.85-.77-1.16.6-1.92-.84-1.85-1.83s.81-2.63,2.41-2.59c-.08-1.21.87-2,1.84-2.71a6,6,0,0,1,3.4-1.12c1.92-.09,4.1.7,4.75,2.5a.63.63,0,0,0,.21.35.59.59,0,0,0,.45,0,4.62,4.62,0,0,1,4.25.85,3.23,3.23,0,0,1,.64,4.08,2.4,2.4,0,0,1,1.54,2.74,5.86,5.86,0,0,1-1.7,3,2.26,2.26,0,0,1,1.09,3.17,3.55,3.55,0,0,1-3.46,1.54,2.08,2.08,0,0,0-1.33-2.68"/><path class="cls-37" d="M336.56,169.9s-.38,18-1.12,28.95l2.65,3.65,1.82-4.57A139.19,139.19,0,0,0,338.19,170Z"/><path class="cls-32" d="M336,168.32l.07.25a5.09,5.09,0,0,0,.54,1.33h0l1.63.12s1.1-.57,1.25-1.2-1.81-1.64-1.81-1.64l-.24.1a3.5,3.5,0,0,0-1.42,1Z"/><path class="cls-38" d="M344.11,162.36a10.2,10.2,0,0,1,2.21,2.24,20.8,20.8,0,0,1-5.4,6.71,9.41,9.41,0,0,0-3.29-4.13S343.52,166,344.11,162.36Z"/><path class="cls-38" d="M337.63,167.18a7,7,0,0,0-3.23,3.07,15.49,15.49,0,0,1,.43-5.69s1.1-1.84,1.56-1.87A8.69,8.69,0,0,0,337.63,167.18Z"/><path class="cls-20" d="M335.49,256.31a8.35,8.35,0,0,1-.39-2.5,1.39,1.39,0,0,0,.06-.13h0c1.15-3.29,3.85-12.8,5.83-20.37l-3.07-11s-1.87,22.31-2.48,23.91-2.51,6.76-2.33,7.87,1.39,3.14,1.21,4.9-.16,17.52-.16,17.61c.61-4.56,1.2-9.4,1.6-14.25A23.83,23.83,0,0,0,335.49,256.31Z"/><circle class="cls-42" cx="278.75" cy="166.25" r="22.2" transform="matrix(0.84, -0.54, 0.54, 0.84, -45.68, 175.43)"/><line class="cls-43" x1="293.81" y1="183.46" x2="326.87" y2="223.39"/><path class="cls-31" d="M324.49,208.59l-2.77.85c-.61.17-3.53-.14-5.25.25a3.9,3.9,0,0,0-2.23,1.14,1.62,1.62,0,0,0,.13,2.27c.2.14.47.25.5.49a.91.91,0,0,1-.09.36.95.95,0,0,0,1.38,1.1,1.59,1.59,0,0,0,1.48,1.53,1.26,1.26,0,0,1,.46-1.15,2.55,2.55,0,0,1,1.21-.25,3.27,3.27,0,0,0,1.94-.92c.37-.37.64-.83,1-1.23a4.94,4.94,0,0,1,2.71-1.62"/><path class="cls-29" d="M358.08,168.21a1.41,1.41,0,0,0-.22-.34l-8.49,8.31c-2,5.38-6.06,19.55-6.06,19.55s-3.82,1.79-6.38,3.13c-.65.33-2.49,1.57-4.66,3.07,0,.65-.08,1.16-.11,1.43-.15,1.75-.39,1.74.06,3.42a33.36,33.36,0,0,1-.72,4.43c6.38-1.63,19.55-5.75,20-6,.75-.41,4.63-16,6.87-25.47C358.76,174,358.54,169.22,358.08,168.21Z"/><path class="cls-36" d="M349.32,175.27c-.78,2.25-4.95,22-4.95,22a37.64,37.64,0,0,0-6.64,2.35c-2,1-15.84,9.64-15.84,9.64l1.38,3.24s24.66-8.74,25.74-9.33,11-25.57,11-30c0-2.62-2.12-5.31-2.12-5.31"/><path class="cls-31" d="M306.94,203.67a1.66,1.66,0,0,1-1.77-1.29,1.16,1.16,0,0,0-.12-.46c-.15-.24-.47-.29-.74-.37a3.17,3.17,0,0,1-1.95-2.41,3.31,3.31,0,0,1,0-1.71,1.77,1.77,0,0,1,1.15-1.2.45.45,0,0,1,.58.21,4,4,0,0,1,.71,1.42,1.83,1.83,0,0,0,.5,1,5.6,5.6,0,0,0,.71.3,2,2,0,0,1,.88,1.25c.27.75-.08,2.46.06,3.24"/><path class="cls-31" d="M309.92,198.54a2.15,2.15,0,0,0-.53-1.79,4,4,0,0,0-1.56-1c-.15-.05-.36-.09-.45.05a.29.29,0,0,0,0,.32c.22.38.68.55.92.91a4.39,4.39,0,0,1,.21.44,1.91,1.91,0,0,0,1.38,1"/><path class="cls-29" d="M330.82,185.43a64.68,64.68,0,0,1-2.76-8.17c-1.12,5.68-.75,15.62-1.69,16.47S316,199.94,316,199.94h0c4.45-1.4,9.88-3.4,11.4-5.24.86-1,2.14-4.88,3.41-9.27Z"/><path class="cls-33" d="M336.47,159.47a33.79,33.79,0,0,0,4.68.75c.71-.12-1.53,1.21-1.95,1.26s-2.73-.27-2.73-.27Z"/><path class="cls-44" d="M178,22.87c.05-.11-5.54,3.35-5.54,3.35l1.46,9.41,2.73-7,7.22-1.37,10.28-9.67Z"/><polygon class="cls-45" points="194.13 17.55 173.9 35.63 176.63 28.59 194.13 17.55"/><polygon class="cls-4" points="194.13 17.55 167.36 23.23 172.44 26.22 194.13 17.55 176.63 28.59 185.28 33.93 194.13 17.55"/><path class="cls-32" d="M96.11,141.67c.07.13.5.1.58.12s.1.07.94,1c.62.67,1.56.78,3.22,0,1.27-.57,1-1.55,1-2s.15-.58.36-.65.32,0,.63.35a2.06,2.06,0,0,0,2.26,1c1.07-.25,1.43-.78,1.49-1.46.11-1.22.12-1.2.24-1.34s0-.61-.07-.86-.9-.08-1.7.17a9.92,9.92,0,0,0-2.45,1c-.41.35-.34.52-.57.59s-.29-.1-.83-.16a17.66,17.66,0,0,0-3.47.84c-.8.24-1.89.68-1.84.95A1.6,1.6,0,0,0,96.11,141.67Zm7-2.15c0-.34.31-.45,1.23-.78s1.31-.49,1.52-.38.41.56.36,1.27-.26,1.22-1,1.45a1.36,1.36,0,0,1-1.68-.54A2.75,2.75,0,0,1,103.13,139.52Zm-5.73,1.42a8.21,8.21,0,0,1,2.3-.77c.94-.25,1.25-.33,1.44,0a2.76,2.76,0,0,1,.23,1.07c0,.55-.05,1.05-1.5,1.5a1.61,1.61,0,0,1-2.06-.5C97.37,141.64,97.29,141.14,97.4,140.94Z"/><rect class="cls-4" x="120.92" y="80.69" width="49.71" height="35.59" rx="4.52" transform="translate(291.55 196.97) rotate(180)"/><polyline class="cls-4" points="165.04 104.75 176.97 101.39 166.34 98.61"/><rect class="cls-24" x="138.6" y="96.54" width="7.42" height="1.7" transform="translate(284.62 194.79) rotate(180)"/><rect class="cls-24" x="133.36" y="94" width="12.66" height="1.7" transform="translate(279.38 189.7) rotate(180)"/><rect class="cls-24" x="127.54" y="103.62" width="36.39" height="2.1" transform="translate(291.48 209.34) rotate(180)"/><rect class="cls-24" x="127.54" y="106.76" width="36.39" height="2.1" transform="translate(291.48 215.63) rotate(180)"/><rect class="cls-24" x="133.36" y="91.46" width="12.66" height="1.7" transform="translate(279.38 184.61) rotate(180)"/><rect class="cls-24" x="141.37" y="88.91" width="4.65" height="1.7" transform="translate(287.39 179.53) rotate(180)"/><path class="cls-24" d="M149,94.23a7.45,7.45,0,1,0,7.45-7.44A7.45,7.45,0,0,0,149,94.23Z"/><path class="cls-46" d="M155,94.35a2.68,2.68,0,1,1,2.92,0A3.77,3.77,0,0,1,160.87,98v2.23a7.42,7.42,0,0,1-8.76,0V98A3.77,3.77,0,0,1,155,94.35Z"/><path class="cls-13" d="M125.6,69.21a5.18,5.18,0,1,1-2.89-6.73A5.18,5.18,0,0,1,125.6,69.21Z"/><polyline class="cls-47" points="118.58 66.67 119.75 69.26 123.64 66.86"/><path class="cls-13" d="M326.29,26.87a5.18,5.18,0,1,1-6.8-2.72A5.16,5.16,0,0,1,326.29,26.87Z"/><polyline class="cls-47" points="319.53 30.03 322.18 31.04 323.24 26.59"/><circle class="cls-48" cx="376.94" cy="208.03" r="15.95" transform="translate(110.95 546.57) rotate(-80.74)"/><circle class="cls-49" cx="376.94" cy="208.03" r="11.18"/><path class="cls-49" d="M383.25,208a6.32,6.32,0,1,1-6.31-6.31A6.31,6.31,0,0,1,383.25,208Z"/><circle class="cls-13" cx="376.94" cy="208.03" r="2.68"/><line class="cls-50" x1="376.94" y1="208.03" x2="397.49" y2="187.47"/><polyline class="cls-50" points="400.8 187.8 397.14 187.8 397.14 184.13"/><polyline class="cls-50" points="398.97 189.63 395.31 189.63 395.31 185.97"/><polyline class="cls-50" points="397.11 191.49 393.45 191.49 393.45 187.82"/><polyline class="cls-50" points="380.46 208.14 376.8 208.14 376.8 204.48"/><path class="cls-13" d="M43.38,155.91a1.91,1.91,0,1,1-1.9-1.9A1.91,1.91,0,0,1,43.38,155.91Z"/><path class="cls-13" d="M402.7,114.05a1.9,1.9,0,1,1-1.9-1.9A1.9,1.9,0,0,1,402.7,114.05Z"/><path class="cls-13" d="M223.72,42.45a1.91,1.91,0,1,1-1.9-1.91A1.9,1.9,0,0,1,223.72,42.45Z"/><path class="cls-13" d="M160.3,79.2a.6.6,0,0,1-.6-.61V74.31a.61.61,0,1,1,1.21,0v4.28A.61.61,0,0,1,160.3,79.2Z"/><path class="cls-13" d="M162.45,77.06h-4.29a.61.61,0,0,1,0-1.21h4.29a.61.61,0,0,1,0,1.21Z"/><path class="cls-13" d="M55.39,242.39a.61.61,0,0,1-.61-.61V237.5a.62.62,0,0,1,.61-.61.61.61,0,0,1,.61.61v4.28A.61.61,0,0,1,55.39,242.39Z"/><path class="cls-13" d="M57.53,240.25H53.25a.61.61,0,1,1,0-1.21h4.28a.61.61,0,1,1,0,1.21Z"/><path class="cls-13" d="M418.63,178.32a.61.61,0,0,1-.61-.61v-4.28a.61.61,0,1,1,1.21,0v4.28A.6.6,0,0,1,418.63,178.32Z"/><path class="cls-13" d="M420.77,176.18h-4.29a.61.61,0,0,1-.6-.61.6.6,0,0,1,.6-.61h4.29a.61.61,0,0,1,.61.61A.62.62,0,0,1,420.77,176.18Z"/><rect class="cls-9" x="273.31" y="10.06" width="27.83" height="18.1" transform="translate(20.78 -89.84) rotate(18.43)"/><polygon class="cls-9" points="303.29 14.93 276.89 6.13 293.71 -0.33 303.29 14.93"/><rect class="cls-22" x="276.35" y="8.69" width="22.28" height="18.82" transform="translate(20.47 -89.97) rotate(18.43)"/><polygon class="cls-51" points="276.89 6.13 271.17 23.29 287.03 19.72 276.89 6.13"/><polygon class="cls-51" points="303.29 14.93 297.57 32.09 287.03 19.72 303.29 14.93"/><polygon class="cls-51" points="297.57 32.09 271.17 23.29 287.99 16.84 297.57 32.09"/><path class="cls-9" d="M271.17,23.29c5.5-2.55,11.38-4.92,17-7.1,1.67,2.67,3.33,5.34,4.92,8.06,1.33,2.28,3.25,5.53,4.45,7.84-1.54-2.08-3.67-5.22-5.13-7.41-1.68-2.49-3.29-5-4.9-7.56l.64.21c-5.53,2.1-11.36,4.22-17,6Z"/></g></g></svg>