<svg id="Layer_1" data-name="Layer 1" xmlns="http://www.w3.org/2000/svg" viewBox="0 0 100 100"><defs><style>.cls-1{fill:#0084ce;}</style></defs><path class="cls-1" d="M49.58,0a41.92,41.92,0,0,1,42,36c1.87,13.66-2,25.59-11.67,35.47-8.91,9.15-18,18.1-27.07,27.12-1.84,1.84-3.85,1.84-5.7,0q-13.51-13.5-27-27a41.07,41.07,0,0,1-12-25.46A42,42,0,0,1,41.78.77,33.44,33.44,0,0,1,49.58,0Zm35.1,42A31.83,31.83,0,0,0,84.36,37,34.72,34.72,0,0,0,15.44,38.9a33.75,33.75,0,0,0,9.81,27.48c7.91,8.07,16,16,23.93,24,.67.67,1,.59,1.68,0,7.92-8,15.9-15.84,23.78-23.84A33.94,33.94,0,0,0,84.68,42.06Z"/><path class="cls-1" d="M67.75,40A17.75,17.75,0,1,1,50.07,22.14,17.82,17.82,0,0,1,67.75,40ZM50,29.52A10.45,10.45,0,1,0,60.49,40,10.36,10.36,0,0,0,50,29.52Z"/></svg>