<svg id="Layer_1" data-name="Layer 1" xmlns="http://www.w3.org/2000/svg" viewBox="0 0 100 100"><defs><style>.cls-1{fill:#0084ce;}</style></defs><path class="cls-1" d="M26.38,100a9.94,9.94,0,0,1-6.14-4.17,9.15,9.15,0,0,1-1.54-5q0-40.74,0-81.48A9.3,9.3,0,0,1,28.05,0H72A9.29,9.29,0,0,1,81.29,9.3q0,40.74,0,81.48A9.28,9.28,0,0,1,75,99.55c-.45.16-.92.3-1.38.45ZM25.09,50V89.75c0,2.8,1.12,3.93,3.89,3.94H71.33a3.42,3.42,0,0,0,3-1.43,4.1,4.1,0,0,0,.55-2.43q0-39.81,0-79.62c0-.19,0-.39,0-.58A3.16,3.16,0,0,0,71.69,6.4c-1.72-.05-3.45,0-5.17,0-.71,0-.9.29-.89.94,0,1.1,0,2.21,0,3.31A3.28,3.28,0,0,1,62,14.19H37.93a3.27,3.27,0,0,1-3.56-3.49q0-1.71,0-3.42c0-.67-.24-.92-.92-.9-1.43,0-2.86,0-4.29,0-3,0-4.07,1.06-4.07,4ZM50,7.81h8.19c.51,0,1,0,1-.72s-.51-.7-1-.7H41.84c-.51,0-1,0-1,.72s.51.7,1,.7Z"/></svg>