<svg id="Layer_1" data-name="Layer 1" xmlns="http://www.w3.org/2000/svg" viewBox="0 0 100 100"><defs><style>.cls-1{fill:#0084ce;}</style></defs><path class="cls-1" d="M19.94,100a12.29,12.29,0,0,1-7.41-4.53,11.13,11.13,0,0,1-2.41-6.87q0-20.25,0-40.5A11.68,11.68,0,0,1,21.56,36.69c2.08,0,4.16,0,6.25,0,.81,0,1.05-.26,1.05-1.06,0-5,0-10.09,0-15.13A20.81,20.81,0,0,1,47,.18a21.11,21.11,0,0,1,22.26,12,17.85,17.85,0,0,1,1.84,7.72q.06,7.82,0,15.62c0,.9.26,1.18,1.16,1.15,1.92-.06,3.84,0,5.76,0a11.66,11.66,0,0,1,11.83,11.8q0,19.86,0,39.72A11.71,11.71,0,0,1,81,99.74l-.94.26Zm30-7.88H77.22c3.26,0,4.72-1.46,4.72-4.71,0-4,0-7.94,0-11.91V49.25a4.35,4.35,0,0,0-1.56-3.81,5.18,5.18,0,0,0-3.25-.81H22.88a8.92,8.92,0,0,0-1.55.12,3.53,3.53,0,0,0-3.14,3.13,10.11,10.11,0,0,0-.13,1.65q0,15.85,0,31.71c0,2.18,0,4.36,0,6.54,0,2.77,1.55,4.27,4.32,4.33H49.9Zm0-55.44c4.07,0,8.13,0,12.2,0,.87,0,1.1-.28,1.1-1.12,0-4.78,0-9.56,0-14.35a16.05,16.05,0,0,0-.33-3.09,13.22,13.22,0,0,0-26.07,3.24c0,4.71,0,9.43,0,14.15,0,.87.21,1.19,1.14,1.17C41.92,36.66,45.92,36.68,49.92,36.68Z"/></svg>