<svg xmlns="http://www.w3.org/2000/svg" xmlns:xlink="http://www.w3.org/1999/xlink" viewBox="0 0 300 300"><defs><style>.cls-1,.cls-6{fill:#506ac1;}.cls-12,.cls-2{fill:#fdab7d;}.cls-3{fill:#fdfefd;}.cls-22,.cls-4{fill:none;}.cls-5{isolation:isolate;}.cls-20,.cls-6{opacity:0.4;}.cls-7{fill:#17161d;}.cls-8{clip-path:url(#clip-path);}.cls-9{fill:#20367b;opacity:0.35;}.cls-12,.cls-9{mix-blend-mode:multiply;}.cls-10{clip-path:url(#clip-path-2);}.cls-11{clip-path:url(#clip-path-3);}.cls-12{opacity:0.37;}.cls-13{fill:#37344b;}.cls-14{clip-path:url(#clip-path-4);}.cls-15{fill:#ffa21f;}.cls-16{fill:#6181d8;}.cls-17{fill:#fff;}.cls-18{fill:#333;}.cls-19{fill:#0084ce;}.cls-21{clip-path:url(#clip-path-5);}.cls-22{stroke:#0084ce;stroke-miterlimit:10;}</style><clipPath id="clip-path"><path class="cls-1" d="M154.13,162.24s3.56,29.61,1.58,45.79,2.37,37.89.79,46.58S153,283,155.32,285.39c0,0-7.5,4.35-10.27,0,0,0-5.92-36.31-7.49-48.94s-7.9-60-9.48-60.39,3.95,50.13,2.76,60.39-2.76,38.68-1.57,45c0,0-9.48,2.76-12.24-.4,0,0,.79-31.58,0-39.47s-11-58.81-6.32-74.6S139.92,122,154.13,162.24Z"/></clipPath><clipPath id="clip-path-2"><path class="cls-1" d="M145.25,76.59H129.07L110.71,87.25l-3,28.81s2.77,46.58-1.18,55.26,15-1.18,17-3.95a44.69,44.69,0,0,0,3.95-7.89s-2,7.89,9.47,12.63,25.26,7.1,24.48,5.53-4.74-21.71-5.53-26.45.39-27.63.39-27.63S169.53,87.25,145.25,76.59Z"/></clipPath><clipPath id="clip-path-3"><path class="cls-2" d="M143.87,67.12c0,.39,0,7.49,1.58,9.47S137.56,79,137.56,79l-7-4.82s1.45-6.63,1-9.79S143.87,67.12,143.87,67.12Z"/></clipPath><clipPath id="clip-path-4"><polygon class="cls-3" points="145.06 73.83 146.63 78.96 138.34 108.17 131.62 127.36 127.29 92.38 128.21 78.43 130.06 73.83 137.16 78.17 145.06 73.83"/></clipPath><clipPath id="clip-path-5"><rect class="cls-4" x="0.16" y="361.27" width="1920" height="1080"/></clipPath></defs><g class="cls-5"><g id="Layer_1" data-name="Layer 1"><path class="cls-6" d="M201.48,178.4l2.37-.67,1.57-36.36c3,.79,6.42-1,6.42-1,1.8-7.43-5.18-40.64-5.18-40.64L191.8,92.63l-3.1-2.48c-2.92-6.41,1.92-4.27,3.55-11.14,0,0,.2-.92.44-2.37h.13A3,3,0,0,0,196,74a2.7,2.7,0,0,0-1.78-2.43,2.59,2.59,0,0,0,.9-1.78,2.49,2.49,0,0,0,1-2.18,2.34,2.34,0,0,0-.42-1.1,2.49,2.49,0,0,0,1.09-2.28,2.56,2.56,0,0,0-1.81-2.11,2.35,2.35,0,0,0,.48-1.41,2.8,2.8,0,0,0-3-2.58h-.07a2.82,2.82,0,0,0-3-2.48,3.79,3.79,0,0,0-.84.1,3,3,0,0,0-2.88-1.9,3.15,3.15,0,0,0-2.47,1.13,3.26,3.26,0,0,0-4.8.07,3.22,3.22,0,0,0-2-.64,3,3,0,0,0-2.75,1.6,3.43,3.43,0,0,0-1-.14,2.8,2.8,0,0,0-3,2.59,2.35,2.35,0,0,0,.52,1.47,2.66,2.66,0,0,0-2.1,2.47,2.44,2.44,0,0,0,1,1.89,2.52,2.52,0,0,0-1.34,2.16A2.5,2.5,0,0,0,169,68.51a2.53,2.53,0,0,0-1.37,2.17,2.64,2.64,0,0,0,1.95,2.43,3.38,3.38,0,0,0-.08.72c0,1.56,1,2.82,2.19,2.82a1.84,1.84,0,0,0,.65-.13,11.34,11.34,0,0,0,1.09,3.28s4.67,5.85,2.64,9.68c-.22.42-19.29,12-19.29,12-7.66,12.84,6.75,42.44,6.75,42.44l-.45,31.85,4.5.68s.56,31.07-1,35.91-3.83,41.19-5.4,44.79.56,2.93.9,5.29-3.16,3.94-1,8.9,11.26,2.25,12.16.78-3-8.1-2.14-9.34.56-1.46.45-3.49,0-4,0-4c.23-11.82,6.64-41.31,6.64-41.31,1.8-3.15,8.78-37.14,8.78-37.14L183.36,214c-3.83,12.05.23,38.61.79,40.07a13.46,13.46,0,0,1,.79,7c-.45,3.27,1.12,4.73,1.12,4.73l-2.59,5.06c5.29,4.28,25,1.35,25,1.35s2.14-4.61-4.73-4.39-8.33-3.93-8.33-3.93c1.69-1.92-.67-5.07.12-6s-.79-33.54,1.68-42.44S201.48,178.4,201.48,178.4Z"/><path class="cls-6" d="M245.54,69.81s1.36-7.17,11.92-4.86S281,92,266.12,100.8L277,106.58s13.81,23.36,10.56,34.46c0,0-4.06,2.31-10.29-.7l1.35,11.57-3,.92s4.6,25.67-14.08,63.83l2.43,41.4,5.15,10.17s10.56,3.7,3.79,4.4-10.29-.47-10.83-1.85-2.17-8.33-2.17-8.33-1.08,9.48-1.35,8.79-2.17-10.87-2.17-10.87l2.17-5.09-5.15-19.89-6.49,16.42s-1.36,13.42-.27,14.34,6.22,2.54,2.7,3.7-9.74.69-9.47-1.39c.11-.84.53-3.17,1-5.64.68-3.62,1.44-7.54,1.44-7.54L239,263.14s-.27-10.63,3-13.41,0-28,9.21-35.38l-.54-10.64s-3.79-15.26-10-24.28,4.87-26.83,4.87-26.83l-.81-2.08s-2.17,1.62-6.23-5.78S225,112.36,233.36,107.5,246.08,102,246.08,102s-9.47-3-9.2-10.64S239.86,67.73,245.54,69.81Z"/><path class="cls-6" d="M48.48,210s.61-4.46,1-11.09c-1.94,1-2,1-.05,0,.71-12.82.56-33.75-6.66-46.28l2.65-.37a2.08,2.08,0,0,0,1.71-1.51,2,2,0,0,1,.61-1c2.68-2.44,16.67-15.32,18.69-20.46,0,0-9.83-20.18-19.31-25.35l-5.34-2.07S49.52,91.23,48.65,80,41,54.59,31.39,62.31c0,0-5.85-4.51-10.85,4.8S18,104.17,18,104.17s-9.14,10.86-8.1,35c0,0-6.72,27.75-7.24,28.27s-4.31,6.21-1.73,11.38,4,1.55,4,1.55,2.93-3.28,1.21-7.07c0,0,.52-3.45-.34-5.17l10-25.17v4s-9.95,17.56-2.38,52.93c0,0,0,0,0,0,.7,3.26,1.52,6.66,2.54,10.23a344.5,344.5,0,0,1,5.5,54.31l-5.35,10.34s-5.86.69-3.62,1.9,7.07.17,7.07.17L22.45,270l.69,6.89c1.55-.17,3.1-10.51,3.1-10.51l-2.41-3.11s8.73-32.09,2.58-53.62a56.91,56.91,0,0,1,.89-6.34,40.94,40.94,0,0,0,8.94-.21h0c1-.14,1.14-.14.09,0,1.42,4.84,2.88,8.73,4.22,10.34l14.83,48.8L54.52,274s-3.11,1-.52,1.9,6,.69,6-1.21-1.89-12.41-1.89-13.1S58.31,220.72,48.48,210ZM39.3,146.12l8.84-24.89,10.17,9.66L45.38,147.44Z"/><path class="cls-6" d="M142.64,272.14a30.85,30.85,0,0,1-15.59-6.24l4-92.31,2.12-.29-.71-30.49a30.89,30.89,0,0,0,4.68.42,4.11,4.11,0,0,0,4-3.17c3.7-15.87-.92-31.71-3.12-37.91a6.65,6.65,0,0,0-3.57-3.84l-12.18-5.4-1.61-2.42-.39-3.77a3.88,3.88,0,0,1,1-3,4,4,0,0,0,1-2l.82-4.55h0a2.92,2.92,0,0,0,2.76-3,3.1,3.1,0,0,0-1.42-2.66c4.25-13.13-2.69-15.84-2.69-15.84-13-5.39-17.87,3-17.87,3-3.68-.56-3.26,4.54-3.26,4.54L100.45,69a11.88,11.88,0,0,0,.11,2.15,3,3,0,0,0-2.16,3,2.92,2.92,0,0,0,2.77,3,2.46,2.46,0,0,0,.67-.09l1,4.62a3.3,3.3,0,0,0,.78,1.52l.78.89a2.66,2.66,0,0,1,.65,2l-.46,4.53-1.7,2.13L90.42,98.31a6.63,6.63,0,0,0-3.56,3.84c-2.21,6.2-6.83,22-3.12,37.91a4.09,4.09,0,0,0,4,3.17,30.89,30.89,0,0,0,4.68-.42l-.71,30.49,2.12.29,4,92.31a30.91,30.91,0,0,1-15.6,6.24s-2.41.14-1.56,2.69c0,0,4,2,15,1s13.61-.85,13.61-.85l-3-8.36,1.14-2.84-1.42-4.39L112.44,179l6.38,80.38-1.42,4.39,1.14,2.84-3,8.36s2.55-.14,13.61.85,15-1,15-1C145.06,272.28,142.64,272.14,142.64,272.14Z"/><path class="cls-7" d="M127.69,279.87c0,.39,2.37,7.89.79,8.29s-5.53.39-6.32,0-1.58-.4-3.16.39-15.79,1.19-16.57,0,11-3.95,15.78-8.29S127.69,279.87,127.69,279.87Z"/><path class="cls-7" d="M153,284.6s7.89,5.14,7.5,6.71-10.26,2.77-14.21,1.58-5.92-1.58-3.16-4.73S148.61,282.63,153,284.6Z"/><path class="cls-1" d="M154.13,162.24s3.56,29.61,1.58,45.79,2.37,37.89.79,46.58S153,283,155.32,285.39c0,0-7.5,4.35-10.27,0,0,0-5.92-36.31-7.49-48.94s-7.9-60-9.48-60.39,3.95,50.13,2.76,60.39-2.76,38.68-1.57,45c0,0-9.48,2.76-12.24-.4,0,0,.79-31.58,0-39.47s-11-58.81-6.32-74.6S139.92,122,154.13,162.24Z"/><g class="cls-8"><path class="cls-9" d="M158.48,182s-24.08-1.32-31.19-16.45h0s-17,18-24.47,12.5,28-29.6,28-29.6S162,165.4,158.48,182Z"/></g><path class="cls-1" d="M145.25,76.59H129.07L110.71,87.25l-3,28.81s2.77,46.58-1.18,55.26,15-1.18,17-3.95a44.69,44.69,0,0,0,3.95-7.89s-2,7.89,9.47,12.63,25.26,7.1,24.48,5.53-4.74-21.71-5.53-26.45.39-27.63.39-27.63S169.53,87.25,145.25,76.59Z"/><g class="cls-10"><path class="cls-9" d="M106,129.68s7.89-1.58,10.66-2.37c0,0,39.86,17.76,46.57,13.42s-18.55-11.84-18.55-11.84l-35.92-10.26Z"/><path class="cls-9" d="M155.71,101.26c-.56,0-4,14.42-7.5,14.51s-10.65.09-10.65.09l-1.19-2S120.87,113,119,112.7c-4.73-.78-5.92-16.77-5.92-16.77s-7.1,13.22-7.89,16,3.16,9.21,3.16,9.21,43,8.94,47,1.44S162,101.65,155.71,101.26Z"/></g><path class="cls-2" d="M143.87,67.12c0,.39,0,7.49,1.58,9.47S137.56,79,137.56,79l-7-4.82s1.45-6.63,1-9.79S143.87,67.12,143.87,67.12Z"/><g class="cls-11"><ellipse class="cls-12" cx="138.34" cy="62.38" rx="10.66" ry="10.26"/></g><ellipse class="cls-2" cx="138.34" cy="53.89" rx="12.63" ry="16.78"/><path class="cls-13" d="M151,52.9l1.19-1.57S153,41.46,151,38.7s-8.69-8.27-13.82-9.08c-7.5-1.19-3.16,6.71-7.1,5.13S121.37,37.91,123,43s2.76,10.65,2.76,10.65-.39-9.07,1.58-8.28,6.32,4.34,11.84-.4C142,42.59,150.18,39.88,151,52.9Z"/><path class="cls-2" d="M150.05,53.79c-.55,2-.13,3.81.92,4.1s2.34-1.08,2.88-3,.13-3.8-.92-4.09S150.59,51.82,150.05,53.79Z"/><path class="cls-2" d="M127,53.79c.54,2,.13,3.81-.92,4.1s-2.35-1.08-2.89-3-.13-3.8.92-4.09S126.5,51.82,127,53.79Z"/><polygon class="cls-3" points="145.06 73.83 146.63 78.96 138.34 108.17 131.62 127.36 127.29 92.38 128.21 78.43 130.06 73.83 137.16 78.17 145.06 73.83"/><g class="cls-14"><path class="cls-15" d="M137.56,78.17s3.15,3.94,2.36,4.34-1.58,1.58-2.76,1.58-2.76-2-2.76-2Z"/><polygon class="cls-15" points="137.16 84.09 137.36 99.67 133.51 116.95 131.24 112.11 131.63 99.09 137.16 84.09"/></g><path class="cls-16" d="M145.45,75.8s10.26,12.63,7.89,13-6.31,2-5.52,4,4.73,7.11-1.58,10.66-16.18,23.68-17.37,44.6C128.87,148,131.17,98.86,145.45,75.8Z"/><path class="cls-16" d="M129.27,75.8s-12.59,10.33-10.38,11.26,5.69,3.39,4.46,5.13-6.26,5.81-.94,10.73,10.23,26.8,6.52,47.42C128.93,150.34,137.8,101.55,129.27,75.8Z"/><polygon class="cls-17" points="131.98 114.7 137.36 114.88 134.67 122.45 129.07 121.98 131.98 114.7"/><path class="cls-2" d="M136.93,116.07s10.76-2.45,15.07.35-.43,9.51-6.35,8.32-11.45-2-11.45-2Z"/><path class="cls-1" d="M148.61,79.35c-2.36-3-3.39-2.7-1.58-2.37,4.21.78,17.21,8.11,20.33,13.42,3.4,5.79,4.34,35.92-6.32,43.82-8.89,6.58-46.58-8.69-46.58-8.69l9.48-3.94s17.36,1.18,22.5,2.36S154,105.16,154.92,103C161.24,88,148.61,79.35,148.61,79.35Z"/><path class="cls-1" d="M127.29,77.38s-17.56,6.31-22.3,13-11.84,27.24-10.66,32.37,15,7.09,34.74-.8l3.16-7.88s-18.62,3.06-18.95.79C109.53,88.82,127.29,77.38,127.29,77.38Z"/><path class="cls-2" d="M117,115.25s-3.11-5.34-8.29-7.28c-3.16-1.19-8.09-.2-8.49,3s4.15,5.23,7.61,4.78S117,115.25,117,115.25Z"/><path class="cls-13" d="M150.57,49.66s-1.22,11.72-6.09,11.72-6.64-2.22-11.52,0-7.26-10.74-7.26-10.74L125,50.3s1.77,4.87.89,7.53c0,0-.45,8.86.88,10.19s10.63,6.2,12.85,5.76,11.52-6.2,12-7.53-.44-8.86-.44-8.86-.45-4.87.44-7.53S150.57,49.66,150.57,49.66Z"/><path class="cls-18" d="M276.46,264.41,182.2,171.65l18.49-18.78,94.25,92.76a13.16,13.16,0,0,1,.15,18.63h0A13.16,13.16,0,0,1,276.46,264.41Z"/><path class="cls-19" d="M270.94,264.46l-61.21-60.24,24-24.35,61.21,60.24a17.08,17.08,0,0,1,.19,24.15h0A17.08,17.08,0,0,1,270.94,264.46Z"/><path class="cls-18" d="M71.71,162.88a91.26,91.26,0,1,1,129.05-1A91.37,91.37,0,0,1,71.71,162.88Zm119.12-121a78.57,78.57,0,1,0,.89,111.1A78.65,78.65,0,0,0,190.83,41.84Z"/><g class="cls-20"><g class="cls-21"><line class="cls-22" x1="305.28" y1="6.66" x2="293.01" y2="9.13"/><line class="cls-22" x1="293.01" y1="9.13" x2="279.98" y2="12.57"/><line class="cls-22" x1="301.82" y1="30.26" x2="288.36" y2="34.69"/><line class="cls-22" x1="309.55" y1="51.88" x2="295.51" y2="57.41"/><line class="cls-22" x1="279.98" y1="12.57" x2="266.12" y2="17.1"/><line class="cls-22" x1="288.36" y1="34.69" x2="274" y2="40.34"/><line class="cls-22" x1="295.51" y1="57.41" x2="280.47" y2="64.34"/><line class="cls-22" x1="301.41" y1="80.74" x2="285.61" y2="89.08"/><line class="cls-22" x1="306.19" y1="104.66" x2="289.54" y2="114.46"/><line class="cls-22" x1="310.12" y1="128.84" x2="292.54" y2="140.22"/><line class="cls-22" x1="312.75" y1="153.75" x2="294.17" y2="166.77"/><line class="cls-22" x1="314.01" y1="179.43" x2="294.37" y2="194.15"/><line class="cls-22" x1="313.9" y1="205.87" x2="293.19" y2="222.37"/><line class="cls-22" x1="313.02" y1="232.6" x2="291.25" y2="250.83"/><line class="cls-22" x1="310.95" y1="259.96" x2="288.14" y2="279.93"/><line class="cls-22" x1="308.26" y1="287.45" x2="284.46" y2="309.13"/><line class="cls-22" x1="266.12" y1="17.1" x2="251.39" y2="22.86"/><line class="cls-22" x1="274" y1="40.34" x2="258.67" y2="47.39"/><line class="cls-22" x1="280.47" y1="64.34" x2="264.4" y2="72.85"/><line class="cls-22" x1="285.61" y1="89.08" x2="268.7" y2="99.14"/><line class="cls-22" x1="289.54" y1="114.46" x2="271.72" y2="126.18"/><line class="cls-22" x1="292.54" y1="140.22" x2="273.76" y2="153.64"/><line class="cls-22" x1="294.17" y1="166.77" x2="274.36" y2="181.96"/><line class="cls-22" x1="294.37" y1="194.15" x2="273.51" y2="211.2"/><line class="cls-22" x1="293.19" y1="222.37" x2="271.3" y2="241.25"/><line class="cls-22" x1="291.25" y1="250.83" x2="268.31" y2="271.54"/><line class="cls-22" x1="288.14" y1="279.93" x2="264.19" y2="302.46"/><line class="cls-22" x1="242.93" y1="-1.02" x2="227.87" y2="4.78"/><line class="cls-22" x1="251.39" y1="22.86" x2="235.79" y2="29.98"/><line class="cls-22" x1="258.67" y1="47.39" x2="242.39" y2="55.96"/><line class="cls-22" x1="264.4" y1="72.85" x2="247.32" y2="83.01"/><line class="cls-22" x1="268.7" y1="99.14" x2="250.78" y2="111.02"/><line class="cls-22" x1="271.72" y1="126.18" x2="252.85" y2="139.85"/><line class="cls-22" x1="273.76" y1="153.64" x2="253.89" y2="169.15"/><line class="cls-22" x1="274.36" y1="181.96" x2="253.49" y2="199.37"/><line class="cls-22" x1="273.51" y1="211.2" x2="251.61" y2="230.52"/><line class="cls-22" x1="271.3" y1="241.25" x2="248.39" y2="262.5"/><line class="cls-22" x1="268.31" y1="271.54" x2="244.44" y2="294.69"/><line class="cls-22" x1="227.87" y1="4.78" x2="212.03" y2="11.83"/><line class="cls-22" x1="235.79" y1="29.98" x2="219.35" y2="38.51"/><line class="cls-22" x1="242.39" y1="55.96" x2="225.25" y2="66.08"/><line class="cls-22" x1="247.32" y1="83.01" x2="229.38" y2="94.87"/><line class="cls-22" x1="250.78" y1="111.02" x2="231.94" y2="124.72"/><line class="cls-22" x1="252.85" y1="139.85" x2="233.07" y2="155.48"/><line class="cls-22" x1="253.89" y1="169.15" x2="233.16" y2="186.73"/><line class="cls-22" x1="253.49" y1="199.37" x2="231.77" y2="218.93"/><line class="cls-22" x1="251.61" y1="230.52" x2="228.92" y2="252.08"/><line class="cls-22" x1="248.39" y1="262.5" x2="224.77" y2="286"/><line class="cls-22" x1="244.44" y1="294.69" x2="219.94" y2="320.12"/><line class="cls-22" x1="212.03" y1="11.83" x2="195.36" y2="20.28"/><line class="cls-22" x1="219.35" y1="38.51" x2="202.04" y2="48.59"/><line class="cls-22" x1="225.25" y1="66.08" x2="207.2" y2="77.91"/><line class="cls-22" x1="229.38" y1="94.87" x2="210.53" y2="108.59"/><line class="cls-22" x1="231.94" y1="124.72" x2="212.23" y2="140.38"/><line class="cls-22" x1="233.07" y1="155.48" x2="212.46" y2="173.14"/><line class="cls-22" x1="233.16" y1="186.73" x2="211.61" y2="206.42"/><line class="cls-22" x1="231.77" y1="218.93" x2="209.3" y2="240.68"/><line class="cls-22" x1="228.92" y1="252.08" x2="205.58" y2="275.85"/><line class="cls-22" x1="224.77" y1="286" x2="200.62" y2="311.76"/><line class="cls-22" x1="186.25" y1="-6.03" x2="169.34" y2="2.29"/><line class="cls-22" x1="195.36" y1="20.28" x2="177.94" y2="30.14"/><line class="cls-22" x1="202.04" y1="48.59" x2="184.02" y2="60.2"/><line class="cls-22" x1="207.2" y1="77.91" x2="188.44" y2="91.38"/><line class="cls-22" x1="210.53" y1="108.59" x2="191" y2="124.03"/><line class="cls-22" x1="212.23" y1="140.38" x2="191.88" y2="157.87"/><line class="cls-22" x1="212.46" y1="173.14" x2="191.26" y2="192.72"/><line class="cls-22" x1="211.61" y1="206.42" x2="189.53" y2="228.12"/><line class="cls-22" x1="209.3" y1="240.68" x2="186.4" y2="264.45"/><line class="cls-22" x1="205.58" y1="275.85" x2="181.88" y2="301.67"/><line class="cls-22" x1="169.34" y1="2.29" x2="151.87" y2="11.86"/><line class="cls-22" x1="177.94" y1="30.14" x2="159.97" y2="41.36"/><line class="cls-22" x1="184.02" y1="60.2" x2="165.42" y2="73.27"/><line class="cls-22" x1="188.44" y1="91.38" x2="169.17" y2="106.41"/><line class="cls-22" x1="191" y1="124.03" x2="170.98" y2="141.13"/><line class="cls-22" x1="191.88" y1="157.87" x2="171.11" y2="177.06"/><line class="cls-22" x1="191.26" y1="192.72" x2="169.74" y2="214.05"/><line class="cls-22" x1="189.53" y1="228.12" x2="167.25" y2="251.59"/><line class="cls-22" x1="186.4" y1="264.45" x2="163.36" y2="290.03"/><line class="cls-22" x1="151.87" y1="11.86" x2="133.45" y2="23.19"/><line class="cls-22" x1="159.97" y1="41.36" x2="141" y2="54.53"/><line class="cls-22" x1="165.42" y1="73.27" x2="145.83" y2="88.41"/><line class="cls-22" x1="169.17" y1="106.41" x2="148.94" y2="123.64"/><line class="cls-22" x1="170.98" y1="141.13" x2="150.06" y2="160.51"/><line class="cls-22" x1="171.11" y1="177.06" x2="149.5" y2="198.61"/><line class="cls-22" x1="169.74" y1="214.05" x2="147.45" y2="237.76"/><line class="cls-22" x1="167.25" y1="251.59" x2="144.27" y2="277.47"/><line class="cls-22" x1="163.36" y1="290.03" x2="139.79" y2="317.99"/><line class="cls-22" x1="133.45" y1="23.19" x2="114.26" y2="36.2"/><line class="cls-22" x1="141" y1="54.53" x2="121.29" y2="69.49"/><line class="cls-22" x1="145.83" y1="88.41" x2="125.6" y2="105.44"/><line class="cls-22" x1="148.94" y1="123.64" x2="128.09" y2="142.85"/><line class="cls-22" x1="150.06" y1="160.51" x2="128.6" y2="181.91"/><line class="cls-22" x1="149.5" y1="198.61" x2="127.45" y2="222.22"/><line class="cls-22" x1="147.45" y1="237.76" x2="124.81" y2="263.54"/><line class="cls-22" x1="144.27" y1="277.47" x2="121.1" y2="305.38"/><line class="cls-22" x1="114.26" y1="36.2" x2="94.69" y2="50.56"/><line class="cls-22" x1="121.29" y1="69.49" x2="101.25" y2="85.87"/><line class="cls-22" x1="125.6" y1="105.44" x2="105.09" y2="123.92"/><line class="cls-22" x1="128.09" y1="142.85" x2="107.09" y2="163.5"/><line class="cls-22" x1="128.6" y1="181.91" x2="107.1" y2="204.78"/><line class="cls-22" x1="127.45" y1="222.22" x2="105.5" y2="247.27"/><line class="cls-22" x1="124.81" y1="263.54" x2="102.43" y2="290.75"/><line class="cls-22" x1="94.69" y1="50.56" x2="74.48" y2="66.64"/><line class="cls-22" x1="101.25" y1="85.87" x2="80.65" y2="104.05"/><line class="cls-22" x1="105.09" y1="123.92" x2="84.15" y2="144.24"/><line class="cls-22" x1="107.09" y1="163.5" x2="85.73" y2="186.04"/><line class="cls-22" x1="107.1" y1="204.78" x2="85.38" y2="229.51"/><line class="cls-22" x1="105.5" y1="247.27" x2="83.43" y2="274.17"/><line class="cls-22" x1="102.43" y1="290.75" x2="80.06" y2="319.75"/><line class="cls-22" x1="74.48" y1="66.64" x2="53.7" y2="84.6"/><line class="cls-22" x1="80.65" y1="104.05" x2="59.54" y2="124.18"/><line class="cls-22" x1="84.15" y1="144.24" x2="62.74" y2="166.53"/><line class="cls-22" x1="85.73" y1="186.04" x2="64.06" y2="210.55"/><line class="cls-22" x1="85.38" y1="229.51" x2="63.46" y2="256.2"/><line class="cls-22" x1="83.43" y1="274.17" x2="61.29" y2="302.94"/><line class="cls-22" x1="53.7" y1="84.6" x2="32.59" y2="104.13"/><line class="cls-22" x1="59.54" y1="124.18" x2="38.22" y2="145.88"/><line class="cls-22" x1="62.74" y1="166.53" x2="41.29" y2="190.36"/><line class="cls-22" x1="64.06" y1="210.55" x2="42.46" y2="236.52"/><line class="cls-22" x1="63.46" y1="256.2" x2="41.75" y2="284.28"/><line class="cls-22" x1="32.59" y1="104.13" x2="11.25" y2="125.18"/><line class="cls-22" x1="38.22" y1="145.88" x2="16.82" y2="169.09"/><line class="cls-22" x1="41.29" y1="190.36" x2="19.89" y2="215.65"/><line class="cls-22" x1="42.46" y1="236.52" x2="21.05" y2="263.88"/><line class="cls-22" x1="41.75" y1="284.28" x2="20.44" y2="313.66"/><line class="cls-22" x1="11.25" y1="125.18" x2="-10.19" y2="147.73"/><line class="cls-22" x1="16.82" y1="169.09" x2="-4.58" y2="193.74"/><line class="cls-22" x1="19.89" y1="215.65" x2="-1.35" y2="242.27"/><line class="cls-22" x1="21.05" y1="263.88" y2="292.5"/><line class="cls-22" y1="292.5" x2="-20.64" y2="322.21"/></g></g></g></g></svg>