<svg id="Layer_1" data-name="Layer 1" xmlns="http://www.w3.org/2000/svg" viewBox="0 0 100 100"><defs><style>.cls-1{fill:#0084ce;}</style></defs><path class="cls-1" d="M95.66,100a4.45,4.45,0,0,1-3.15-1.52L80.22,86.17l-5.76-5.75c-1-1-1.78-1.78-3.06-1.78a4.83,4.83,0,0,0-2.78,1.2A43.76,43.76,0,0,1,1.29,54.38,43.85,43.85,0,0,1,36.7.54,37.18,37.18,0,0,1,42.6,0h1.47A43.76,43.76,0,0,1,87.18,37.6a42.52,42.52,0,0,1-7.59,31.33,3.57,3.57,0,0,0,.47,5.14C86.33,80.26,92.57,86.5,98.61,92.6a4.5,4.5,0,0,1,1.3,4.1,4.08,4.08,0,0,1-2.61,3A4.63,4.63,0,0,1,95.66,100ZM43.83,8.47a35.25,35.25,0,1,0,25,10.36,35.31,35.31,0,0,0-25-10.36Z"/></svg>