<svg id="Layer_1" data-name="Layer 1" xmlns="http://www.w3.org/2000/svg" viewBox="0 0 100 100"><defs><style>.cls-1{fill:#0084ce;}</style></defs><path class="cls-1" d="M100.34,52.59a10.49,10.49,0,0,1-.73,1.27,4.12,4.12,0,0,1-7.32-1.48,11.2,11.2,0,0,1-.11-4.28,4.11,4.11,0,0,1,3.5-3.59A4.2,4.2,0,0,1,100,46.89c.1.2.22.4.33.59Z"/><path class="cls-1" d="M49.87,8.37A41.57,41.57,0,0,0,21.79,19.26,41.85,41.85,0,0,0,10,63c3.68,11.62,11.12,20,22,25.39a40.12,40.12,0,0,0,9.66,3.25c.48.1,1,.2,1.43.34a4.11,4.11,0,0,1,2.92,4.63A4,4,0,0,1,41.76,100a25.44,25.44,0,0,1-6-1.29A49.81,49.81,0,0,1,16,87.53,50.27,50.27,0,0,1-.16,46.24a50.36,50.36,0,0,1,35.43-44A50.23,50.23,0,0,1,53.69.12a48.83,48.83,0,0,1,23.24,7.7c.83.54,1.27.58,1.81-.34.71-1.21,1.58-2.32,2.4-3.47a1.48,1.48,0,0,1,1.45-.82c.65.1.88.66,1,1.19,1.27,4.47,2.53,8.94,3.73,13.43a2.32,2.32,0,0,1-2.17,3c-4.29.41-8.59.81-12.89,1.16-.8.07-1.81.4-2.33-.54s.25-1.6.71-2.29c.69-1,1.39-2.06,2.12-3.07.36-.5.38-.81-.2-1.17a41.85,41.85,0,0,0-18.2-6.3C52.88,8.44,51.38,8.44,49.87,8.37Z"/><path class="cls-1" d="M50.9,34.81c0,4.58,0,9.16,0,13.75A1.41,1.41,0,0,0,51.76,50Q63.94,56.26,76.1,62.56c.38.19.76.38,1.13.6A3.37,3.37,0,0,1,74,69.08c-1.82-.88-3.61-1.84-5.42-2.77-7.64-4-15.27-7.94-22.95-11.83a2.45,2.45,0,0,1-1.55-2.57c.06-9.92,0-19.84,0-29.75a10.35,10.35,0,0,1,.13-1.76,3.37,3.37,0,0,1,3.52-2.78A3.3,3.3,0,0,1,50.88,21c0,4.62,0,9.23,0,13.85Z"/><path class="cls-1" d="M73.72,94.53a4.25,4.25,0,0,1-4.44-2.7,4.1,4.1,0,0,1,1.31-4.6,18.74,18.74,0,0,1,3.35-2,4.09,4.09,0,0,1,4.73,1,3.91,3.91,0,0,1,.44,4.82A9.36,9.36,0,0,1,73.72,94.53Z"/><path class="cls-1" d="M93.48,71a4.12,4.12,0,0,1-4.18-5.28,27.84,27.84,0,0,1,1.12-3.14A4.11,4.11,0,0,1,98.22,65a14.59,14.59,0,0,1-1.37,3.88A3.81,3.81,0,0,1,93.48,71Z"/><path class="cls-1" d="M85.42,84.5a4,4,0,0,1-3.77-2.12,3.82,3.82,0,0,1,.19-4.27,25.57,25.57,0,0,1,2.27-2.83,4,4,0,0,1,5.13-.57,4,4,0,0,1,1.68,4.79,11.63,11.63,0,0,1-3.35,4.3A3.14,3.14,0,0,1,85.42,84.5Z"/><path class="cls-1" d="M58.75,100a4.2,4.2,0,0,1-4.38-3.29,4.07,4.07,0,0,1,2.47-4.63,14.82,14.82,0,0,1,4.31-.92,4.1,4.1,0,0,1,4.06,3.21A4.05,4.05,0,0,1,62.93,99,16.49,16.49,0,0,1,58.75,100Z"/><path class="cls-1" d="M92.76,29.14a3.66,3.66,0,0,1,3.38,1.49A10.11,10.11,0,0,1,98,36a4.08,4.08,0,0,1-7.25,2.51,10.1,10.1,0,0,1-1.87-5.2A3.88,3.88,0,0,1,92.76,29.14Z"/></svg>