<svg id="Layer_1" data-name="Layer 1" xmlns="http://www.w3.org/2000/svg" viewBox="0 0 100 100"><defs><style>.cls-1{fill:#0084ce;}</style></defs><path class="cls-1" d="M19.71,100a14.65,14.65,0,0,1-9.19-5.45A15,15,0,0,1,7.57,84.1a42.77,42.77,0,0,1,4.15-16.43A42.15,42.15,0,0,1,33.32,47c1.38-.6,1.38-.59.21-1.57a25,25,0,0,1-9.1-16.72A25.76,25.76,0,0,1,71.09,11a24.43,24.43,0,0,1,4.6,13.36,25.33,25.33,0,0,1-7.75,19.79,20.46,20.46,0,0,1-2,1.72c-.55.42-.52.62.12.88a40.14,40.14,0,0,1,7,3.65A42.37,42.37,0,0,1,89.68,70.89a41.66,41.66,0,0,1,2.78,14.38A14.19,14.19,0,0,1,80.58,99.9c-.09,0-.18.07-.27.1ZM50,92.17h0c9.42,0,18.83,0,28.25,0a6,6,0,0,0,6.19-5.24,22.46,22.46,0,0,0-.58-7.83A33.52,33.52,0,0,0,73.25,60.5,33.68,33.68,0,0,0,46,51.72,33.32,33.32,0,0,0,24.62,62.64a34.16,34.16,0,0,0-9.15,22.83,6.37,6.37,0,0,0,6.64,6.71Q36,92.15,50,92.17ZM67.8,25.71A17.8,17.8,0,1,0,50,43.55,17.68,17.68,0,0,0,67.8,25.71Z"/></svg>