<svg id="Layer_1" data-name="Layer 1" xmlns="http://www.w3.org/2000/svg" viewBox="0 0 100 100"><defs><style>.cls-1{fill:#0084ce;}</style></defs><path class="cls-1" d="M100,51.07a60.68,60.68,0,0,1-8.4,12.52A61.34,61.34,0,0,1,71.12,79.84a47.79,47.79,0,0,1-24.63,4.74A50.57,50.57,0,0,1,19.63,74.23,69.66,69.66,0,0,1,.87,52.82C.54,52.26.29,51.66,0,51.07V48.93A60.61,60.61,0,0,1,8.4,36.42,61.36,61.36,0,0,1,29,20.12a47.84,47.84,0,0,1,24.45-4.71c10.92.81,20.5,5.05,29,11.91A70.26,70.26,0,0,1,98.79,46.59c.44.76.81,1.56,1.21,2.34ZM50,76.74l.88,0c.32,0,.64-.08,1-.09a40.64,40.64,0,0,0,19.3-5.87c8.37-4.93,14.75-11.85,19.91-20A1.32,1.32,0,0,0,91,49.1,62.38,62.38,0,0,0,76.56,32.94c-8.47-6.55-17.93-10.12-28.79-9.53a41.2,41.2,0,0,0-18.83,5.81c-8.4,4.93-14.81,11.87-20,20A1.41,1.41,0,0,0,9.1,51,62.84,62.84,0,0,0,23.44,67.06C31.24,73.13,40,76.61,50,76.74Z"/><path class="cls-1" d="M50,30.66A19.34,19.34,0,1,1,30.63,50.33,19.44,19.44,0,0,1,50,30.66ZM38.7,49.94A11.3,11.3,0,1,0,50,38.66,11.34,11.34,0,0,0,38.7,49.94Z"/></svg>