<?xml version="1.0" encoding="UTF-8"?><svg id="Layer_1" xmlns="http://www.w3.org/2000/svg" viewBox="0 0 137.33 100"><defs><style>.cls-1{fill:#fff;}.cls-2{fill:#ff9a15;}.cls-3{fill:#2d3a8e;}.cls-4{fill:#37aa41;}</style></defs><g><g><rect class="cls-2" x=".85" y=".54" width="135.57" height="98.93" rx="16.96" ry="16.96"/><path class="cls-4" d="M119.56,99.46H17.7c-9.31,0-16.85-7.55-16.85-16.85V48.36H136.41v34.26c0,9.31-7.55,16.85-16.85,16.85Z"/><rect class="cls-1" x=".85" y="31.49" width="135.64" height="36.38"/></g><g><path class="cls-3" d="M74.59,50.94c-.02,.13-.06,.23-.1,.35l9.56,4.43-9.79-3.52-.09-.04c-.04,.11-.08,.21-.12,.3l8.43,6.05-8.92-5.28c-.09,.1-.15,.19-.21,.29l7.02,7.65-7.67-7c-.04,.06-.11,.11-.15,.17l5.49,8.81-6.25-8.26c-.11,.07-.21,.13-.32,.19l3.58,9.75-4.4-9.37c-.09,.02-.17,.06-.27,.08v.02l1.69,10.39-2.58-10.08-.02-.11c-.13,.05-.26,.07-.36,.07l-.47,10.51-.47-10.39v-.1c-.06,.02-.15,.02-.21,0l-2.39,10.23,1.46-10.29,.02-.07c-.12-.02-.25-.06-.38-.08l-4.42,9.51,3.54-9.79,.03-.04-.25-.12-6.13,8.51,5.3-8.96,.02-.05c-.11-.06-.19-.14-.29-.2l-7.71,7.05,7.01-7.66,.03-.02c-.05-.06-.11-.12-.15-.19l-8.88,5.53,8.31-6.27c-.07-.11-.13-.21-.19-.32l-9.79,3.56,9.41-4.43s-.07-.08-.07-.14l-10.27,1.69,10.02-2.56c-.02-.14-.04-.27-.04-.4l-10.38-.46,10.32-.48c0-.08,0-.18,.02-.27l-10.1-2.33,10.22,1.42c.04-.13,.06-.25,.12-.38l-9.41-4.36,9.7,3.49c.03-.06,.07-.14,.11-.21l-8.5-6.1,8.94,5.3c.09-.1,.15-.21,.25-.31l-7.05-7.72,7.66,7.02c.07-.07,.13-.13,.2-.2l-5.51-8.83,6.25,8.28c.1-.06,.23-.14,.36-.2l-3.58-9.8,4.4,9.39c.11-.02,.23-.06,.34-.1l-1.68-10.21,2.57,9.99c.13-.02,.28-.04,.4-.04l.47-10.37,.47,10.35c.09,0,.19,0,.27,.02l2.33-10.1-1.44,10.24c.13,.02,.28,.06,.4,.1l4.37-9.41-3.52,9.73c.09,.04,.15,.08,.21,.12l6.13-8.54-5.3,8.96-.05,.04c.1,.09,.21,.17,.32,.23l7.75-7.1-7.04,7.69-.07,.06c.07,.06,.13,.1,.17,.17l8.94-5.56-8.31,6.26-.08,.06c.06,.1,.12,.21,.19,.32h.02l9.89-3.63-9.43,4.43-.11,.04c.02,.06,.07,.15,.09,.23l10.34-1.69-10.08,2.58h-.05c.02,.13,.05,.25,.05,.38l10.49,.47-10.38,.47h-.09c.02,.09,0,.15,0,.23l10.26,2.37-10.32-1.44-.07-.02Z"/><path class="cls-3" d="M68.46,66.51c-9.35,0-16.95-7.6-16.95-16.95s7.6-16.95,16.95-16.95,16.95,7.6,16.95,16.95-7.61,16.95-16.95,16.95Zm0-32.83c-8.76,0-15.89,7.12-15.89,15.89s7.13,15.9,15.89,15.9,15.89-7.13,15.89-15.9-7.13-15.89-15.89-15.89Z"/></g></g><path class="cls-1" d="M120.31,100H17.04c-3.23,0-6.37-.91-9.09-2.64-2.14-1.35-3.98-3.2-5.33-5.34-1.71-2.71-2.62-5.84-2.62-9.04V17.04c0-3.27,.93-6.44,2.7-9.19,1.31-2.04,3.08-3.81,5.12-5.13C10.57,.94,13.76,0,17.02,0H120.3C123.56,0,126.73,.93,129.47,2.69c2.07,1.33,3.86,3.12,5.18,5.19,1.75,2.74,2.68,5.9,2.68,9.14V82.96c0,3.21-.9,6.33-2.6,9.03-1.36,2.16-3.22,4.03-5.39,5.39-2.71,1.71-5.84,2.61-9.04,2.61ZM17.04,1.69c-2.95,0-5.82,.85-8.3,2.45-1.84,1.19-3.43,2.78-4.61,4.62-1.59,2.47-2.43,5.33-2.43,8.26V82.96c0,2.89,.81,5.71,2.36,8.15,1.22,1.93,2.88,3.6,4.81,4.82,2.45,1.55,5.28,2.37,8.17,2.37H120.3c2.89,0,5.7-.81,8.15-2.35,1.95-1.23,3.63-2.91,4.85-4.86,1.53-2.44,2.34-5.25,2.34-8.12V17.04c0-2.93-.83-5.78-2.41-8.24h0c-1.19-1.86-2.81-3.48-4.67-4.68-2.47-1.59-5.32-2.42-8.25-2.42H17.04Z"/></svg>