<?xml version="1.0" encoding="UTF-8"?><svg id="Layer_1" xmlns="http://www.w3.org/2000/svg" xmlns:xlink="http://www.w3.org/1999/xlink" viewBox="0 0 100 100"><defs><style>.cls-1{fill:none;}.cls-2{fill:#34a853;}.cls-2,.cls-3,.cls-4,.cls-5{fill-rule:evenodd;}.cls-3{fill:#4285f4;}.cls-4{fill:#ea4335;}.cls-5{fill:#fbbc05;}</style><clipPath id="clippath"><rect class="cls-1" x=".16" y="493.57" width="1920" height="1080"/></clipPath></defs><path class="cls-4" d="M6.4,27.58c2.04-4.49,4.92-8.4,8.3-11.94C22.35,7.62,31.61,2.49,42.57,.74c15.34-2.45,29.07,1.17,40.94,11.38,.75,.65,.93,1.02,.12,1.82-4.19,4.1-8.31,8.27-12.46,12.41-.43,.43-.71,.94-1.47,.25-10.45-9.57-27.5-9.46-38.6,.86-3.81,3.54-6.52,7.79-8.3,12.66-.26-.17-.53-.32-.78-.51-5.21-4.01-10.42-8.03-15.63-12.04Z"/><path class="cls-2" d="M22.68,59.68c1.5,3.8,3.36,7.4,6.12,10.45,7.03,7.77,15.75,11.12,26.19,10.03,4.85-.5,9.27-2.15,13.4-4.67,.4,.35,.77,.73,1.19,1.06,4.83,3.77,9.68,7.54,14.51,11.31-5.34,5.07-11.64,8.44-18.72,10.23-16.71,4.22-32.11,1.55-45.79-9.24-5.65-4.46-10.1-9.97-13.24-16.5,5.44-4.23,10.88-8.45,16.33-12.68Z"/><path class="cls-3" d="M84.11,87.86c-4.84-3.77-9.68-7.54-14.51-11.31-.42-.33-.79-.71-1.19-1.06,3.28-2.5,6.01-5.46,7.81-9.22,.72-1.5,1.22-3.07,1.69-4.65,.33-1.09,.23-1.52-1.13-1.51-8.05,.07-16.11,.03-24.16,.03q-1.71,0-1.71-1.77c0-5.46,.03-10.92-.02-16.38,0-1.05,.18-1.46,1.36-1.45,14.86,.04,29.71,.03,44.57,.01,.8,0,1.31,.06,1.45,1.03,1.85,12.99,.37,25.41-6.43,36.87-2.08,3.51-4.58,6.72-7.72,9.38Z"/><path class="cls-5" d="M22.68,59.68c-5.44,4.23-10.88,8.45-16.33,12.68-2.66-4.94-4.19-10.25-4.91-15.78-1.24-9.58,.12-18.8,4.19-27.59,.22-.48,.51-.94,.76-1.41,5.21,4.01,10.42,8.03,15.63,12.04,.24,.19,.52,.34,.78,.51-2.18,6.5-2.07,13.02-.12,19.55Z"/></svg>