<?xml version="1.0" encoding="UTF-8"?><svg id="Layer_1" xmlns="http://www.w3.org/2000/svg" viewBox="0 0 100 100"><defs><style>.cls-1{fill:#333;}</style></defs><path class="cls-1" d="M100.34,52.59c-.24,.43-.44,.89-.73,1.27-.99,1.29-2.29,1.91-3.93,1.63-1.78-.31-2.98-1.34-3.38-3.11-.32-1.4-.34-2.85-.12-4.28,.31-1.96,1.68-3.33,3.5-3.59,1.77-.25,3.44,.67,4.33,2.37,.11,.2,.22,.4,.33,.6v5.11Z"/><path class="cls-1" d="M49.87,8.37c-10.69,.18-20.11,3.69-28.08,10.89-6.59,5.95-10.88,13.28-12.81,21.94-1.64,7.34-1.31,14.62,.96,21.8,3.68,11.62,11.12,19.99,21.97,25.39,3.06,1.52,6.3,2.55,9.65,3.25,.48,.1,.96,.2,1.43,.34,2.04,.62,3.27,2.57,2.93,4.63-.34,2.04-2.05,3.49-4.17,3.41-2.07-.08-4.06-.71-6.03-1.29-7.44-2.2-13.99-5.96-19.72-11.2-7.39-6.75-12.28-14.99-14.78-24.65C-.19,57.42-.63,51.87-.16,46.24c.94-11.22,5.21-21.03,12.64-29.41,6.2-6.99,13.84-11.81,22.79-14.58C41.29,.38,47.44-.31,53.69,.12c8.38,.57,16.15,3.17,23.23,7.7,.84,.54,1.27,.57,1.81-.34,.72-1.21,1.58-2.33,2.4-3.47,.35-.49,.77-.93,1.45-.82,.65,.1,.88,.66,1.03,1.2,1.26,4.47,2.53,8.94,3.73,13.43,.41,1.54-.57,2.83-2.17,2.99-4.3,.41-8.59,.81-12.89,1.17-.8,.07-1.81,.4-2.33-.54-.5-.91,.25-1.6,.71-2.29,.69-1.04,1.39-2.06,2.12-3.07,.36-.5,.38-.81-.2-1.17-5.59-3.48-11.62-5.65-18.2-6.3-1.5-.15-3-.15-4.52-.22Z"/><path class="cls-1" d="M50.9,34.81c0,4.58,.01,9.17-.02,13.75,0,.72,.24,1.11,.88,1.44,8.12,4.17,16.23,8.37,24.34,12.56,.38,.2,.76,.38,1.12,.6,1.65,1.01,2.21,2.9,1.35,4.5-.88,1.64-2.78,2.27-4.55,1.42-1.83-.88-3.62-1.84-5.42-2.77-7.65-3.95-15.28-7.93-22.95-11.83-1.16-.59-1.56-1.27-1.55-2.56,.06-9.92,.03-19.84,.04-29.75,0-.59,.03-1.18,.14-1.76,.32-1.72,1.88-2.93,3.52-2.78,1.78,.16,3.09,1.54,3.09,3.34,.02,4.62,0,9.23,0,13.85h0Z"/><path class="cls-1" d="M73.72,94.53c-2.27,.06-3.86-1.04-4.45-2.7-.58-1.65-.07-3.56,1.31-4.6,1.04-.79,2.16-1.48,3.35-2.04,1.59-.75,3.59-.28,4.74,1.04,1.18,1.36,1.48,3.41,.44,4.82-1.44,1.97-3.53,3.02-5.39,3.47Z"/><path class="cls-1" d="M93.48,70.97c-2.97,.03-4.97-2.57-4.17-5.29,.31-1.07,.67-2.13,1.12-3.14,.89-2.02,3-2.94,5.04-2.28,1.99,.64,3.18,2.61,2.76,4.72-.27,1.35-.75,2.65-1.37,3.87-.72,1.4-1.96,2.05-3.37,2.12Z"/><path class="cls-1" d="M85.42,84.5c-1.79,.03-3-.73-3.77-2.11-.8-1.43-.74-2.92,.19-4.27,.68-.99,1.45-1.94,2.27-2.83,1.31-1.41,3.45-1.61,5.13-.57,1.6,.99,2.41,3.09,1.68,4.79-.73,1.71-1.93,3.1-3.35,4.29-.64,.54-1.45,.73-2.15,.7Z"/><path class="cls-1" d="M58.75,100.01c-2.31,0-3.99-1.35-4.38-3.29-.39-1.93,.62-3.91,2.48-4.63,1.37-.53,2.83-.84,4.3-.93,1.87-.11,3.64,1.35,4.06,3.21,.42,1.89-.51,3.89-2.27,4.64-1.42,.6-2.95,.81-4.18,.99Z"/><path class="cls-1" d="M92.76,29.14c1.53-.03,2.67,.43,3.39,1.48,1.09,1.61,1.82,3.41,1.89,5.38,.06,1.71-1.13,3.25-2.74,3.79-1.63,.55-3.55,.09-4.51-1.28-1.08-1.54-1.76-3.31-1.87-5.19-.14-2.38,1.7-4.18,3.85-4.18Z"/></svg>