<?xml version="1.0" encoding="UTF-8"?><svg id="Layer_1" xmlns="http://www.w3.org/2000/svg" viewBox="0 0 100 100"><defs><style>.cls-1{fill:#fff;}</style></defs><g id="Group_91"><path id="Path_14100" class="cls-1" d="M84.13,64.39c-1.52-.07-1.73-.28-1.73-1.81v-17.16c.02-1.69-.08-3.38-.29-5.05-1.28-11.43-8.45-21.36-18.9-26.17-1.47-.73-2.17-1.23-2.12-3.16C61.08,4.94,56.12,0,50,0s-11.06,4.97-11.05,11.08c0,.27,.01,.55,.03,.82,.21,.73-.22,1.5-.96,1.71-.03,0-.05,.01-.08,.02-7.21,2.85-13.14,8.23-16.67,15.13-2.47,4.82-3.72,10.18-3.64,15.6v18.65c-.05,1.04-.37,1.35-1.44,1.41-.58,.04-1.17,.1-1.74,.19-5.46,.94-9.51,5.6-9.69,11.14,.02,6.22,5.01,11.29,11.23,11.4,6.07,.03,12.16,.03,18.24,0,.99,0,1.32,.33,1.5,1.25,.63,3.22,2.35,6.13,4.88,8.22,2.09,1.74,4.6,2.9,7.28,3.35h4.29c.09-.04,.18-.08,.27-.1,6.08-.97,10.86-5.7,11.92-11.76,.17-.76,.52-.96,1.25-.96,6.21,0,12.42,.05,18.63,0,6.21-.13,11.13-5.27,11-11.47v-.02c-.17-6.09-5.02-11.02-11.11-11.28ZM45.62,10.39c.38-2.43,2.66-4.08,5.09-3.7,1.92,.3,3.42,1.81,3.7,3.73,.14,.98-.05,1.14-1.04,1.04-2.23-.23-4.48-.23-6.71,0-1.01,.11-1.21-.07-1.05-1.07Zm11.92,77.61c-1.4,4.15-5.9,6.39-10.06,4.99-2.35-.79-4.19-2.64-4.99-4.99-.24-.76,.03-.88,.71-.87h13.71c.71-.02,.82,.21,.62,.85v.02Zm26.99-7.58c-.74,.09-1.49,.14-2.23,.15H17.36c-1.34,.12-2.68-.19-3.83-.88-1.68-1.12-2.43-3.2-1.86-5.14,.59-1.96,2.36-3.33,4.41-3.41,2.68,.06,5.23-1.19,6.82-3.35,.95-1.29,1.46-2.86,1.45-4.47,0-6.53-.04-13.06,0-19.59-.04-13.31,10.08-24.45,23.33-25.68,13.11-1.01,24.9,7.94,27.43,20.84,.4,1.94,.59,3.92,.59,5.9,0,5.92,.14,11.83-.05,17.74-.25,4.49,3.19,8.34,7.68,8.6,.18,.01,.35,.01,.53,.01,2.58,.1,4.6,2.27,4.5,4.85-.08,2.19-1.68,4.04-3.84,4.43h0Z"/><path id="Path_14101" class="cls-1" d="M8.24,38.81c1.7,.02,3.16-1.23,3.39-2.92,1.07-4.64,3-9.03,5.69-12.96,1.43-1.93,2.97-3.78,4.61-5.54,1.16-1.41,.96-3.49-.44-4.65-1.3-1.08-3.2-1-4.41,.18-6.09,5.99-10.29,13.64-12.06,22-.34,1.77,.83,3.49,2.61,3.82,.2,.04,.41,.06,.61,.06Z"/><path id="Path_14102" class="cls-1" d="M85.72,28.18c1.17,2.5,2.08,5.11,2.71,7.8,.26,1.65,1.71,2.85,3.37,2.8,1.79,0,3.25-1.46,3.25-3.25,0-.22-.02-.43-.06-.64-.61-3-1.56-5.91-2.83-8.69-2.19-4.95-5.3-9.44-9.14-13.24-.83-.93-2.12-1.28-3.3-.89-1.23,.33-2.15,1.35-2.35,2.6-.19,1.32,.34,2.64,1.39,3.46,2.87,2.94,5.23,6.34,6.98,10.06Z"/></g></svg>