<?xml version="1.0" encoding="UTF-8"?><svg id="Layer_1" xmlns="http://www.w3.org/2000/svg" xmlns:xlink="http://www.w3.org/1999/xlink" viewBox="0 0 100 100"><defs><style>.cls-1{fill:none;}.cls-2{clip-path:url(#clippath);}.cls-3{fill:#0084ce;}</style><clipPath id="clippath"><rect class="cls-1" x=".03" y=".01" width="99.95" height="99.97"/></clipPath></defs><g id="Group_495"><g class="cls-2"><g id="Group_494"><path id="Path_15598" class="cls-3" d="M99.97,23.5c.02,3.08-1.16,6.04-3.3,8.25-.32,.35-.66,.68-1,1.02-18.83,18.83-37.65,37.67-56.47,56.52-1.03,1.04-2.31,1.78-3.72,2.16-9.75,2.75-19.51,5.5-29.28,8.26-.58,.18-1.19,.26-1.8,.26-2.28,.15-4.25-1.59-4.4-3.87-.03-.54,.04-1.08,.21-1.6,1.21-4.46,2.48-8.93,3.72-13.43,1.55-5.52,3.12-11.02,4.64-16.56,.38-1.41,1.14-2.7,2.19-3.72C29.27,42.32,47.75,23.84,66.23,5.35c1.04-1.11,2.15-2.14,3.34-3.09,3.25-2.44,7.57-2.93,11.29-1.29,1.94,.75,3.68,1.92,5.11,3.43,3.41,3.46,6.86,6.87,10.28,10.31,2.41,2.29,3.76,5.48,3.72,8.8M35.53,80.77c.22-.2,.5-.44,.74-.7,13.6-13.59,27.21-27.19,40.81-40.79,.64-.64,.74-1,0-1.68-4.91-4.85-9.73-9.73-14.58-14.6-.91-.92-.92-.92-1.87,0L21.69,61.99c-.69,.7-1.37,1.41-2.09,2.08-.42,.39-.43,.67,0,1.08,5.08,5.08,10.16,10.16,15.24,15.26,.16,.22,.41,.36,.68,.39M91.47,23.56c0-1-.41-1.96-1.12-2.66-3.76-3.77-7.51-7.55-11.29-11.29-1.27-1.38-3.42-1.46-4.79-.2-.05,.05-.1,.09-.15,.14-2,1.93-3.93,3.93-5.95,5.88-.43,.42-.45,.74,0,1.18,5.08,5.09,10.15,10.19,15.2,15.29,.42,.42,.67,.39,1.07,0,1.97-2.01,3.97-3.99,5.95-5.95,.62-.63,1-1.47,1.06-2.35M10.98,89.48l.39-.1c4.99-1.4,9.98-2.81,14.98-4.21,.81-.22,.68-.5,.19-.98-3.59-3.57-7.16-7.14-10.71-10.73-.58-.59-.74-.42-.94,.27-.82,2.98-1.67,5.95-2.51,8.93-.58,2.05-1.16,4.11-1.73,6.17-.08,.3-.32,.71,.33,.67"/></g></g></g></svg>