<?xml version="1.0" encoding="UTF-8"?><svg id="Layer_1" xmlns="http://www.w3.org/2000/svg" xmlns:xlink="http://www.w3.org/1999/xlink" viewBox="0 0 300 300"><defs><style>.cls-1{fill:none;}.cls-2{fill:url(#linear-gradient);}.cls-3{fill:#f9f7f7;}.cls-4{fill:#eaeaea;}.cls-5{fill:#dbdbdb;}.cls-6{fill:#a8a8a8;}.cls-7{clip-path:url(#clippath-1);}.cls-8{clip-path:url(#clippath-4);}.cls-9{clip-path:url(#clippath-3);}.cls-10{clip-path:url(#clippath-2);}.cls-11{clip-path:url(#clippath-7);}.cls-12{clip-path:url(#clippath-8);}.cls-13{clip-path:url(#clippath-6);}.cls-14{clip-path:url(#clippath-5);}.cls-15{clip-path:url(#clippath-9);}.cls-16{fill:url(#radial-gradient-2);}.cls-17{fill:url(#linear-gradient-2);}.cls-18{fill:url(#radial-gradient);}</style><clipPath id="clippath"><rect class="cls-1" x="-2122.93" y="361.27" width="1920" height="1080"/></clipPath><clipPath id="clippath-1"><circle class="cls-1" cx="150" cy="150" r="150"/></clipPath><clipPath id="clippath-2"><rect class="cls-1" width="299.83" height="300"/></clipPath><clipPath id="clippath-3"><path class="cls-1" d="M93.24,235.37v34.15c36.4-12.36,72.92-12.79,109.03,0v-34.15c-18.07-4.46-36.61-6.74-55.22-6.8-18.15,0-36.23,2.28-53.81,6.8"/></clipPath><linearGradient id="linear-gradient" x1="-2134.83" y1="-232.54" x2="-2134.82" y2="-232.54" gradientTransform="translate(87671.06 -3338.16) scale(41.07 -15.43)" gradientUnits="userSpaceOnUse"><stop offset="0" stop-color="#b9b8b8"/><stop offset=".13" stop-color="#d4d3d3"/><stop offset=".27" stop-color="#ebebeb"/><stop offset=".41" stop-color="#fafafa"/><stop offset=".52" stop-color="#fff"/><stop offset=".65" stop-color="#fbfbfb"/><stop offset=".76" stop-color="#f0f0f0"/><stop offset=".86" stop-color="#dedede"/><stop offset=".96" stop-color="#c5c5c4"/><stop offset="1" stop-color="#babab9"/></linearGradient><clipPath id="clippath-4"><path class="cls-1" d="M106.34,206.28s0,17.79,.48,28.71c.31,6.47-1.56,12.86-5.31,18.15l-18.44,13.98c-1.52,1.15-3.16,2.15-4.88,2.96l-8.97,4.25-7.35,1.9c-6.24,1.62-11.96,4.82-16.61,9.29l-15.08,14.49h239.47s.08-.34-1.37-3.28c-2.53-5.12-20.82-18.32-30.71-21.32-21.57-6.54-42.55-15.13-45.93-26.21-2.52-8.3-7.43-42.91-4.71-42.91l-80.59-.02Zm80.6,0h0"/></clipPath><linearGradient id="linear-gradient-2" x1="-2166.85" y1="-206.23" x2="-2166.85" y2="-206.23" gradientTransform="translate(195510.98 -7026.81) scale(90.23 -35.3)" gradientUnits="userSpaceOnUse"><stop offset="0" stop-color="#f6f6f6"/><stop offset="0" stop-color="#f6f6f6"/><stop offset=".31" stop-color="#f2f2f2"/><stop offset=".54" stop-color="#e9e9e9"/><stop offset=".75" stop-color="#d9d9d8"/><stop offset=".94" stop-color="#c2c2c1"/><stop offset="1" stop-color="#babab9"/></linearGradient><clipPath id="clippath-5"><rect class="cls-1" width="299.83" height="300"/></clipPath><clipPath id="clippath-6"><rect class="cls-1" x="86.05" y="249" width="62.43" height="39.12"/></clipPath><clipPath id="clippath-7"><path class="cls-1" d="M86.05,265.2s25.19,20.71,42.88,22.8c1.42,.17,5.1,.3,5.7-.6l13.86-21.45-51.64-16.95-10.79,16.2Z"/></clipPath><radialGradient id="radial-gradient" cx="-2023.31" cy="-133.25" fx="-2023.31" fy="-133.25" r="1.94" gradientTransform="translate(30005.66 2308.5) scale(14.79 14.82)" gradientUnits="userSpaceOnUse"><stop offset="0" stop-color="#a6a6a5"/><stop offset=".16" stop-color="#c2c2c1"/><stop offset=".33" stop-color="#d9d9d8"/><stop offset=".52" stop-color="#e9e9e9"/><stop offset=".73" stop-color="#f2f2f2"/><stop offset=".99" stop-color="#f6f6f6"/><stop offset="1" stop-color="#f6f6f6"/></radialGradient><clipPath id="clippath-8"><rect class="cls-1" x="148.69" y="249.3" width="62.43" height="39.12"/></clipPath><clipPath id="clippath-9"><path class="cls-1" d="M211.12,265.5s-25.19,20.71-42.88,22.8c-1.42,.17-5.1,.3-5.7-.6l-13.86-21.45,51.64-16.95,10.79,16.2Z"/></clipPath><radialGradient id="radial-gradient-2" cx="-2022.34" cy="-133.11" fx="-2022.34" fy="-133.11" r="2.02" gradientTransform="translate(30020.53 2308.39) scale(14.79 14.82)" xlink:href="#radial-gradient"/></defs><g id="Group_533"><g class="cls-7"><g id="Mask_Group_1"><g id="Group_464"><g class="cls-10"><g id="Group_463"><path id="Path_15590" class="cls-5" d="M0,0H299.83V300H0V0Z"/><g id="Group_448"><g class="cls-9"><g id="Group_447"><rect id="Rectangle_599" class="cls-2" x="93.24" y="228.57" width="109.03" height="40.95"/></g></g></g><g id="Group_450"><g class="cls-8"><g id="Group_449"><rect id="Rectangle_600" class="cls-17" x="30.19" y="206.28" width="239.54" height="93.72"/></g></g></g><g id="Group_462"><g class="cls-14"><g id="Group_461"><path id="Path_15577" class="cls-6" d="M134.04,299.7h27.74l-8.09-10.2h-11.24l-8.4,10.2Z"/><path id="Path_15578" class="cls-6" d="M145.27,265.35l-15.29,15.3s3.05,12.68,9.89,11.4c.65-.12-.05,.59,3.06,1.98,3.29,1.48,7.43-.05,10.57-.48,3.96-.55,7.45-2.9,9.46-6.35l3.74-6.4-14.54-14.85-6.9-.6Z"/><g id="Group_455"><g id="Group_454"><g class="cls-13"><g id="Group_453"><g id="Group_452"><g class="cls-11"><g id="Group_451"><rect id="Rectangle_601" class="cls-18" x="86.05" y="249" width="62.43" height="39.3"/></g></g></g></g></g></g></g><g id="Group_460"><g id="Group_459"><g class="cls-12"><g id="Group_458"><g id="Group_457"><g class="cls-15"><g id="Group_456"><rect id="Rectangle_603" class="cls-16" x="148.69" y="249.3" width="62.43" height="39.3"/></g></g></g></g></g></g></g><path id="Path_15581" class="cls-4" d="M91.4,174.46s7.64,37.43,26.85,49.06c30,18.15,50.6,2.76,50.6,2.76,0,0,23.94-21.44,27.86-34.07,1.88-5.83,3.46-11.75,4.74-17.75,2.04-.1,3.95-1.04,5.26-2.61,2.11-2.61,2.63-19.31,4.21-24.01s2.63-12.53-2.63-12.01-7.9,9.4-7.9,9.4c0,0,9.94-34.14,6.78-43.54-3.16-9.4-6.26-10.75-18.89-18.58s-18.93-14.03-26.68-11.42-43.96,4.25-53.97,.6c-10-3.65-19.41,26.97-20.99,34.8s4.22,31.86,4.75,38.13l.53,6.26s-3.68-16.7-6.84-17.75-8.95-1.04-7.9,11.48,2.33,2.83,6.84,26.1c2.63,13.57,7.37,3.13,7.37,3.13"/><path id="Path_15582" class="cls-3" d="M93.18,235.62s-4.59,26.99-7.54,27.75,32.62,18.26,45.7,19.94c0,0,7.86-13.58,16.65-17.69,0,0-53-17.97-54.82-30"/><path id="Path_15583" class="cls-3" d="M202.37,235.37s4.83,26.93,7.74,27.66-32.06,18.61-44.97,20.44c0,0-7.91-13.5-16.66-17.52,0,0,52.22-18.54,53.89-30.58"/><path id="Path_15584" class="cls-6" d="M91.75,143.34s-4.38-13.76-3.41-20.64c.97-6.88-3.89-34.9,12.65-39.82s30.17,.49,34.55-.49,21.5-8.95,27.74-7.37c7.04,1.79,31.14,21.14,36.98,21.14,0,0,2.48,14.49,3.94,16.95s-1.51,22.37-1.51,25.32c-.16,2.5,.17,5,.97,7.37,0,0,1.46-5.41,1.95-8.85s6.33-12.29,6.33-12.29c0,0,4.87-29.49,3.89-31.46s4.87-4.42-3.89-20.64c-8.76-16.22-47.68-39.82-63.74-41.78s-38.44,0-47.68,25.56c0,0-24.33,5.41-27.74,30.97-3.41,25.56,15.57,43.75,15.57,51.61-.15,4.23,.68,8.44,2.43,12.29l.97-7.85Z"/><path id="Path_15585" class="cls-6" d="M202.06,144.2c.44,1.2-4.05-.73-4.05-.73,0,0-5.46,16.08-8.39,16.87s-31.59,1-33.56-1.47c-1.97-3.81-3.5-7.83-4.55-11.98-3.47-2.12-7.91-1.77-11,.87-.99,3.86-2.43,7.59-4.3,11.12-1.96,2.47-30.63,2.27-33.56,1.47s-8.39-16.87-8.39-16.87c0,0-4.48,1.93-4.05,.73,.72-1.99-1.06-5.77-2.47-8.17,1.64,1.33,3.74,1.96,5.84,1.75,1.32-1.89,3.54-2.95,5.84-2.79,11.49-.37,31.98-1.95,43.58,3.04,2.05,.47,4.18,.47,6.23,0,11.6-4.99,32.08-3.41,43.58-3.04,2.31-.17,4.53,.9,5.86,2.79,2.1,.21,4.2-.42,5.84-1.75-1.41,2.39-3.19,6.18-2.47,8.17"/><path id="Path_15586" class="cls-4" d="M135.52,138.6c-11.24-2.46-22.86-2.66-34.18-.6-9.47,1.56,1.8,19.5,2.1,19.8,10.03,1.68,20.29,1.58,30.28-.3,4.36-.95,6-19.2,1.8-18.9"/><path id="Path_15587" class="cls-4" d="M156.97,138.6c11.24-2.46,22.86-2.66,34.18-.6,9.47,1.56-1.8,19.5-2.1,19.8-10.03,1.68-20.28,1.58-30.28-.3-4.36-.95-6-19.2-1.8-18.9"/><path id="Path_15588" class="cls-6" d="M204.08,134.28c-.34,.66-.8,1.25-1.35,1.75,1.06-1.78,1.9-2.81,1.35-1.75"/><path id="Path_15589" class="cls-6" d="M85.95,136.03c-.55-.5-1-1.09-1.35-1.75-.55-1.06,.29-.03,1.35,1.75"/></g></g></g></g></g></g></g></g></g></svg>