<?xml version="1.0" encoding="UTF-8"?><svg id="Layer_1" xmlns="http://www.w3.org/2000/svg" viewBox="0 0 100 100"><defs><style>.cls-1{fill:#333;}</style></defs><path class="cls-1" d="M95.66,99.99c-1.09,0-2.15-.51-3.15-1.52-4.09-4.1-8.19-8.2-12.29-12.3l-5.76-5.75c-.99-.99-1.78-1.78-3.07-1.78-1.02,0-1.76,.51-2.77,1.21-7.36,5.07-15.91,7.75-24.71,7.75-20.21,0-37.73-13.66-42.61-33.21C-1.66,42.55,.5,29.9,7.23,19.68,13.95,9.48,24.69,2.5,36.7,.54c2.2-.36,4.19-.54,5.9-.54,.28,0,.55,0,.82,.01h.66c21.58,0,40.11,16.16,43.11,37.59,1.59,11.38-.96,21.92-7.59,31.32-1.31,1.86-1.15,3.54,.47,5.14,6.27,6.19,12.51,12.43,18.55,18.53,1.12,1.13,1.61,2.66,1.3,4.09-.29,1.36-1.24,2.44-2.61,2.96-.57,.22-1.12,.33-1.64,.33ZM43.83,8.47c-19.45,0-35.29,15.79-35.31,35.2,0,9.49,3.64,18.38,10.28,25.06,6.64,6.67,15.52,10.35,24.98,10.35,19.46,0,35.31-15.79,35.33-35.19,0-9.48-3.64-18.38-10.29-25.05-6.65-6.68-15.52-10.36-24.97-10.36h-.02Z"/></svg>