<?xml version="1.0" encoding="UTF-8"?><svg id="Layer_1" xmlns="http://www.w3.org/2000/svg" viewBox="0 0 100 100"><defs><style>.cls-1{fill:#333;}</style></defs><path class="cls-1" d="M49.58,.03c20.89-.2,39.13,15.05,42.01,36.02,1.87,13.66-2.06,25.6-11.67,35.48-8.91,9.15-18.03,18.09-27.07,27.12-1.84,1.84-3.85,1.83-5.7-.01-9.01-9-18.04-17.98-27.01-27.03-6.99-7.05-10.97-15.57-11.97-25.45C5.99,24.69,20.66,4.88,41.78,.77,44.49,.25,47.23-.1,49.58,.03Zm35.1,42.04c.03-1.7-.08-3.39-.32-5.07-2.7-18.73-20.07-31.82-38.94-29.34-16.03,2.1-28.67,15.17-29.98,31.26-.86,10.58,2.35,19.86,9.82,27.48,7.91,8.07,15.97,15.99,23.93,24,.67,.67,1.05,.6,1.67-.03,7.92-7.96,15.9-15.85,23.78-23.84,6.67-6.76,9.97-14.96,10.04-24.45Z"/><path class="cls-1" d="M67.75,39.98c0,9.79-8.02,17.84-17.75,17.8-9.79-.04-17.75-8.02-17.74-17.82,0-9.91,7.91-17.83,17.81-17.82,9.8,0,17.68,7.95,17.68,17.84Zm-17.77-10.46c-5.78,0-10.49,4.69-10.5,10.45,0,5.72,4.76,10.45,10.53,10.45,5.71,0,10.49-4.64,10.47-10.37-.02-6.55-5.42-10.72-10.51-10.52Z"/></svg>