<?xml version="1.0" encoding="UTF-8"?><svg id="Layer_1" xmlns="http://www.w3.org/2000/svg" viewBox="0 0 137.33 100"><defs><style>.cls-1{fill:#fff;}.cls-2{fill:#d11735;}.cls-3{fill:#23376e;}</style></defs><g><path class="cls-3" d="M3.34,91.55s-.06-.09-.09-.14c.03,.05,.06,.09,.09,.14Z"/><path class="cls-3" d="M120.68,.87c-.12-.02-.25-.02-.37-.02h-38.43V28.75L120.68,.87Z"/><path class="cls-3" d="M1.57,87.73c-.11-.36-.22-.73-.3-1.1,.09,.37,.19,.74,.3,1.1Z"/><path class="cls-3" d="M10.63,97.82s-.07-.03-.1-.05c.03,.02,.07,.03,.1,.05Z"/><path class="cls-3" d="M2.88,90.77c-.07-.12-.13-.24-.2-.36,.06,.12,.13,.24,.2,.36Z"/><path class="cls-3" d="M2.39,89.82c-.07-.15-.14-.3-.2-.45,.07,.15,.13,.3,.2,.45Z"/><path class="cls-3" d="M1.95,88.8c-.07-.19-.14-.38-.21-.57,.07,.19,.13,.38,.21,.57Z"/><path class="cls-3" d="M1.27,13.37c-.27,1.17-.42,2.39-.42,3.66v15.78H28.35L1.27,13.37Z"/><path class="cls-3" d="M.85,64.53v18.44c0,1.27,.15,2.49,.42,3.66l30.79-22.1H.85Z"/><path class="cls-3" d="M81.88,99.15h38.43c.12,0,.25,0,.37-.02l-38.8-27.87v27.9Z"/><polygon class="cls-3" points="5.13 93.88 5.13 93.88 5.13 93.88 5.13 93.88"/><path class="cls-3" d="M16.65,99.13c.12,.02,.25,.02,.37,.02H55.45v-27.9l-38.8,27.87Z"/><path class="cls-3" d="M136.06,86.63c.27-1.17,.42-2.39,.42-3.66v-18.44h-31.21l30.79,22.1Z"/><path class="cls-3" d="M55.45,.85H17.02c-.12,0-.25,0-.37,.02L55.45,28.75V.85Z"/><path class="cls-3" d="M136.06,13.37l-27.08,19.44h27.5v-15.78c0-1.27-.15-2.49-.42-3.66Z"/><polygon class="cls-1" points="28.35 32.8 .85 32.8 .85 39.42 37.56 39.42 28.35 32.8"/><polygon class="cls-1" points="41.24 57.94 .85 57.94 .85 64.53 32.06 64.53 41.24 57.94"/><polygon class="cls-1" points="105.28 64.53 136.49 64.53 136.49 57.94 96.09 57.94 105.28 64.53"/><polygon class="cls-1" points="75.29 66.53 75.29 99.15 81.88 99.15 81.88 71.25 75.29 66.53"/><polygon class="cls-1" points="81.88 28.75 81.88 .85 75.29 .85 75.29 33.47 81.88 28.75"/><polygon class="cls-1" points="62.05 33.47 62.05 .85 55.45 .85 55.45 28.75 62.05 33.47"/><polygon class="cls-1" points="55.45 71.25 55.45 99.15 62.05 99.15 62.05 66.53 55.45 71.25"/><polygon class="cls-1" points="99.78 39.42 136.49 39.42 136.49 32.8 108.98 32.8 99.78 39.42"/><path class="cls-1" d="M6.94,95.57c-.23-.19-.45-.37-.67-.58,.22,.2,.44,.39,.67,.58Z"/><path class="cls-1" d="M5.53,94.3c-.14-.14-.28-.28-.4-.42,.13,.14,.26,.28,.4,.42Z"/><path class="cls-1" d="M7.8,96.23c-.18-.13-.36-.26-.54-.4,.18,.14,.36,.27,.54,.4Z"/><path class="cls-1" d="M45.94,64.53h-13.89L1.27,86.63c.09,.37,.19,.74,.3,1.1,.05,.17,.11,.33,.17,.49,.07,.19,.13,.38,.21,.57,.07,.19,.15,.38,.24,.57,.07,.15,.13,.3,.2,.45,.09,.2,.19,.4,.29,.6,.06,.12,.13,.24,.2,.36,.12,.22,.24,.43,.37,.64,.03,.05,.06,.09,.09,.14,.52,.83,1.12,1.61,1.79,2.32,0,0,0,0,0,0l40.82-29.34Z"/><path class="cls-1" d="M55.45,64.53l-2.71,1.94L9.76,97.39c-.62-.3-1.22-.65-1.79-1.04,.8,.55,1.66,1.03,2.56,1.42,.03,.02,.07,.03,.1,.05,.26,.11,.53,.22,.79,.32,1.62,.62,3.38,.97,5.23,1l38.8-27.87v-6.72Z"/><polygon class="cls-1" points="45.94 64.53 55.45 64.53 55.45 71.25 62.05 66.53 62.05 57.94 41.24 57.94 32.06 64.53 45.94 64.53"/><path class="cls-1" d="M75.29,33.47v5.95h24.49l9.21-6.62,27.08-19.44c-.77-3.29-2.54-6.22-5-8.36l-38.7,27.8h-9.51L125.91,1.87c-1.62-.62-3.38-.97-5.23-1l-38.8,27.87-6.6,4.73Z"/><path class="cls-1" d="M96.09,57.94h-20.81v8.59l6.6,4.73,38.8,27.87c4.08-.07,7.79-1.69,10.58-4.31l-42.14-30.29h9.51l36.01,25.88c.62-1.17,1.12-2.44,1.42-3.78l-30.79-22.1-9.18-6.6Z"/><path class="cls-1" d="M37.56,39.42h24.49v-5.95l-6.6-4.73L16.65,.87c-4.08,.07-7.79,1.69-10.58,4.31l38.45,27.63h-9.51L2.69,9.58c-.62,1.17-1.12,2.44-1.42,3.78l27.08,19.44,9.21,6.62Z"/><polygon class="cls-2" points="75.29 39.42 75.29 33.47 75.29 .85 62.05 .85 62.05 33.47 62.05 39.42 37.56 39.42 .85 39.42 .85 57.94 41.24 57.94 62.05 57.94 62.05 66.53 62.05 99.15 75.29 99.15 75.29 66.53 75.29 57.94 96.09 57.94 136.49 57.94 136.49 39.42 99.78 39.42 75.29 39.42"/><path class="cls-2" d="M89.12,64.53l42.14,30.29c1.39-1.24,2.54-2.74,3.38-4.41l-36.01-25.88h-9.51Z"/><path class="cls-2" d="M44.52,32.8L6.07,5.18c-1.39,1.24-2.54,2.74-3.38,4.41l32.33,23.22h9.51Z"/><path class="cls-2" d="M92.36,32.8L131.06,5c-1.49-1.37-3.24-2.44-5.15-3.14l-43.06,30.94h9.51Z"/><path class="cls-2" d="M52.74,66.48l2.71-1.94h-9.51L5.13,93.88h0s0,0,0,0c.13,.14,.26,.28,.4,.42,.24,.24,.49,.48,.74,.7,.22,.2,.44,.39,.67,.58,.11,.09,.22,.17,.33,.26,.18,.14,.35,.27,.54,.4,.06,.04,.11,.08,.16,.12,.57,.39,1.17,.74,1.79,1.04l42.98-30.91Z"/></g><path class="cls-1" d="M120.31,100H17.04c-3.23,0-6.37-.91-9.09-2.64-2.14-1.35-3.98-3.2-5.33-5.34-1.71-2.71-2.62-5.84-2.62-9.04V17.04c0-3.27,.93-6.44,2.7-9.19,1.31-2.04,3.08-3.81,5.12-5.13C10.57,.94,13.76,0,17.02,0H120.3C123.56,0,126.73,.93,129.47,2.69c2.07,1.33,3.86,3.12,5.18,5.19,1.75,2.74,2.68,5.9,2.68,9.14V82.96c0,3.21-.9,6.33-2.6,9.03-1.36,2.16-3.22,4.03-5.39,5.39-2.71,1.71-5.84,2.61-9.04,2.61ZM17.04,1.69c-2.95,0-5.82,.85-8.3,2.45-1.84,1.19-3.43,2.78-4.61,4.62-1.59,2.47-2.43,5.33-2.43,8.26V82.96c0,2.89,.81,5.71,2.36,8.15,1.22,1.93,2.88,3.6,4.81,4.82,2.45,1.55,5.28,2.37,8.17,2.37H120.3c2.89,0,5.7-.81,8.15-2.35,1.95-1.23,3.63-2.91,4.85-4.86,1.53-2.44,2.34-5.25,2.34-8.12V17.04c0-2.93-.83-5.78-2.41-8.24h0c-1.19-1.86-2.81-3.48-4.67-4.68-2.47-1.59-5.32-2.42-8.25-2.42H17.04Z"/></svg>