<?xml version="1.0" encoding="UTF-8"?><svg id="Layer_1" xmlns="http://www.w3.org/2000/svg" viewBox="0 0 100 100"><defs><style>.cls-1{fill:#333;}</style></defs><path class="cls-1" d="M100,78.11c-.82,2.86-2.38,5.11-5.18,6.35-1.05,.47-2.14,.74-3.3,.74-27.67,0-55.35,0-83.02-.01-4.54,0-8.48-3.96-8.49-8.51-.02-17.79-.02-35.57,0-53.36,0-4.71,4-8.51,8.88-8.51,25.43,0,50.86,0,76.29,0,1.95,0,3.9,0,5.85,0,4.2,.01,7.43,2.37,8.71,6.36,.08,.25,.17,.49,.26,.73v56.21ZM10.54,20.85c.32,.35,.5,.57,.71,.77,12,12.05,24.01,24.11,36.02,36.16,1.84,1.85,3.69,1.86,5.51,.03,4.29-4.31,8.57-8.64,12.86-12.94,7.69-7.72,15.39-15.43,23.08-23.15,.24-.24,.58-.42,.65-.87H10.54Zm.02,58.28H89.48c-.16-.2-.23-.31-.32-.4-7.92-7.94-15.85-15.88-23.76-23.83-.52-.52-.81-.38-1.25,.07-2.42,2.46-4.86,4.89-7.3,7.32-3.98,3.97-9.67,3.96-13.65-.01-2.37-2.37-4.77-4.71-7.08-7.13-.72-.75-1.09-.63-1.75,.04-7.67,7.73-15.37,15.43-23.06,23.15-.23,.23-.44,.47-.75,.8ZM6.07,25.27v49.61c.36-.33,.6-.53,.82-.76,7.74-7.75,15.47-15.52,23.23-23.24,.72-.71,.68-1.08-.01-1.77-7.74-7.71-15.44-15.45-23.16-23.18-.24-.24-.43-.57-.88-.67Zm87.93,49.47V25.27c-.42,.09-.6,.39-.82,.61-7.74,7.75-15.47,15.51-23.23,23.24-.7,.7-.7,1.06,0,1.76,7.74,7.7,15.44,15.45,23.16,23.17,.24,.25,.44,.57,.89,.69Z"/></svg>