<?xml version="1.0" encoding="UTF-8"?><svg id="Layer_1" xmlns="http://www.w3.org/2000/svg" viewBox="0 0 100 100"><defs><style>.cls-1{fill:#0084ce;}</style></defs><path class="cls-1" d="M100,51.07c-2.21,4.56-5.15,8.65-8.4,12.52-5.71,6.8-12.41,12.39-20.48,16.25-7.79,3.73-16.02,5.4-24.63,4.75-9.97-.75-18.88-4.4-26.86-10.35-7.78-5.8-13.93-13.04-18.76-21.42C.54,52.26,.29,51.66,0,51.07c0-.71,0-1.43,0-2.14,2.21-4.56,5.15-8.65,8.4-12.51,5.74-6.82,12.46-12.44,20.57-16.29,7.74-3.68,15.9-5.35,24.45-4.71,10.93,.81,20.51,5.05,28.96,11.91,6.66,5.4,12.08,11.89,16.42,19.28,.44,.76,.81,1.56,1.21,2.34v2.14Zm-50.01,25.67c.29-.01,.59-.02,.88-.04,.32-.03,.65-.08,.97-.1,6.95-.26,13.35-2.37,19.3-5.87,8.37-4.93,14.75-11.84,19.91-19.97,.42-.66,.25-1.11-.1-1.66-3.92-6.16-8.59-11.67-14.39-16.15-8.46-6.55-17.93-10.12-28.78-9.53-6.77,.37-13.02,2.41-18.83,5.81-8.41,4.93-14.82,11.87-20,20.02-.45,.71-.2,1.18,.16,1.75,3.91,6.13,8.58,11.59,14.34,16.07,7.8,6.07,16.56,9.55,26.55,9.68Z"/><path class="cls-1" d="M49.97,30.66c10.46-.08,19.34,8.61,19.42,19.02,.08,10.86-8.51,19.69-19.35,19.67-10.92-.02-19.26-8.67-19.4-19.02-.15-10.88,8.47-19.58,19.34-19.67Zm-11.27,19.28c-.02,6.25,5.02,11.38,11.19,11.41,6.3,.02,11.4-5.02,11.42-11.27,.02-6.29-5.04-11.4-11.29-11.41-6.21,0-11.3,5.06-11.32,11.27Z"/></svg>