<?xml version="1.0" encoding="UTF-8"?><svg id="Layer_1" xmlns="http://www.w3.org/2000/svg" xmlns:xlink="http://www.w3.org/1999/xlink" viewBox="0 0 100 100"><defs><style>.cls-1{fill:none;}.cls-2{clip-path:url(#clippath);}.cls-3{fill:#0084ce;}.cls-4{fill:#fff;}</style><clipPath id="clippath"><rect class="cls-1" x="23.08" y="23.08" width="51.12" height="51.13"/></clipPath></defs><g id="Group_532"><circle id="Ellipse_25" class="cls-3" cx="50" cy="50" r="50"/><g class="cls-2"><g id="Group_496"><path id="Path_15599" class="cls-4" d="M74.2,35.09c.02,1.58-.59,3.1-1.68,4.23-.16,.18-.34,.35-.51,.52-9.63,9.63-19.26,19.27-28.88,28.92-.52,.53-1.18,.91-1.9,1.1-4.99,1.39-9.99,2.8-14.98,4.23-.3,.09-.61,.14-.92,.13-1.17,.08-2.18-.8-2.26-1.97-.02-.29,.02-.58,.12-.85,.62-2.31,1.27-4.58,1.92-6.87,.79-2.82,1.6-5.64,2.37-8.46,.2-.72,.58-1.38,1.12-1.9,9.45-9.45,18.9-18.91,28.34-28.37,.53-.57,1.11-1.1,1.72-1.59,1.67-1.24,3.87-1.49,5.77-.65,.99,.38,1.88,.98,2.61,1.75,1.74,1.77,3.51,3.52,5.26,5.27,1.24,1.17,1.94,2.8,1.92,4.5m-32.96,29.31c.11-.1,.25-.23,.38-.36,6.95-6.96,13.91-13.92,20.87-20.88,.33-.33,.38-.51,0-.86-2.5-2.48-4.98-4.99-7.47-7.47q-.47-.47-.96,0l-19.9,19.94c-.35,.36-.7,.72-1.07,1.07-.21,.2-.22,.34,0,.55,2.6,2.59,5.19,5.19,7.79,7.8,.08,.11,.21,.18,.35,.2m28.61-29.28c0-.51-.21-1-.57-1.36-1.92-1.92-3.85-3.85-5.77-5.77-.65-.7-1.75-.75-2.45-.1-.02,.02-.05,.05-.07,.07-1.02,.98-2.02,2.01-3.03,3-.22,.22-.23,.38,0,.6,2.6,2.6,5.19,5.21,7.78,7.82,.21,.22,.34,.2,.55,0,1.01-1.03,2.03-2.04,3.05-3.08,.32-.32,.51-.75,.54-1.2M28.68,68.85l.2-.05c2.56-.72,5.12-1.43,7.66-2.15,.42-.12,.35-.25,.1-.5-1.84-1.83-3.67-3.67-5.49-5.5-.3-.3-.38-.22-.48,.14-.42,1.54-.85,3.04-1.28,4.56-.3,1.05-.59,2.1-.88,3.15-.04,.15-.16,.36,.17,.34"/></g></g></g></svg>