<?xml version="1.0" encoding="UTF-8"?><svg id="Layer_1" xmlns="http://www.w3.org/2000/svg" viewBox="0 0 100 100"><defs><style>.cls-1{fill:#333;}</style></defs><path class="cls-1" d="M19.71,100c-3.72-.71-6.84-2.43-9.18-5.45-2.39-3.09-3.18-6.61-2.95-10.45,.34-5.74,1.61-11.25,4.15-16.43,4.67-9.51,11.85-16.43,21.59-20.67,1.38-.6,1.39-.59,.21-1.57-5.23-4.38-8.32-9.99-9.1-16.72-1.28-11,4.42-21.44,14.54-26.17,11.6-5.42,24.65-1.96,32.11,8.44,2.85,3.97,4.38,8.45,4.61,13.36,.35,7.75-2.31,14.32-7.75,19.79-.62,.62-1.3,1.18-2,1.71-.54,.42-.51,.62,.13,.88,2.45,1,4.79,2.2,7,3.65,7.72,5.08,13.27,11.91,16.61,20.51,1.79,4.62,2.68,9.43,2.78,14.38,.15,7.39-4.61,13.23-11.88,14.63-.09,.02-.18,.07-.27,.1H19.71Zm30.26-7.83h0c9.41,0,18.83,.02,28.24-.01,3.25-.01,5.74-2.1,6.19-5.25,.38-2.63-.04-5.26-.57-7.83-1.52-7.32-5-13.56-10.58-18.58-7.77-6.99-16.93-9.93-27.29-8.78-8.44,.94-15.58,4.66-21.34,10.92-5.94,6.45-8.87,14.11-9.14,22.83-.03,1.08,.12,2.16,.62,3.12,1.26,2.41,3.27,3.59,6.01,3.58,9.28-.02,18.57,0,27.85,0ZM67.8,25.71c0-9.9-7.9-17.78-17.81-17.77-9.91,0-17.8,7.9-17.79,17.79,.01,9.86,7.98,17.82,17.81,17.82,9.83,0,17.79-7.99,17.79-17.84Z"/></svg>