<?xml version="1.0" encoding="UTF-8"?><svg id="Layer_1" xmlns="http://www.w3.org/2000/svg" viewBox="0 0 100 100"><defs><style>.cls-1{fill:#333;}</style></defs><path class="cls-1" d="M100,92.69c-.09-1.71-1.38-3.11-3.08-3.33V43.2c.01-.37,0-.74-.04-1.12-.12-1.64-1.33-2.99-2.95-3.27-.63-.11-1.28-.16-1.92-.15H56.43V7.66c.01-.39,0-.79-.04-1.18-.23-1.81-1.78-3.17-3.61-3.17-.4,0-.8,.08-1.18,.21-.43,.16-.84,.36-1.23,.59l-11.58,6.42c-10.72,5.95-21.8,12.11-32.71,18.15-1.64,.82-2.65,2.52-2.58,4.35,0,2.41-.01,4.82-.04,7.23,0,4.6-.04,9.36-.11,14.04-.14,9.26-.19,18.68-.23,27.79,0,2.42-.01,4.83-.04,7.24-1.71,.21-3.02,1.63-3.1,3.35-.09,1.64,.9,3.15,2.45,3.71,.57,.2,1.17,.29,1.77,.27H95.69c.68,.03,1.35-.08,1.98-.32,1.47-.6,2.4-2.08,2.31-3.66m-66.09-11.71v8.3h-7.74v-12.85h7.74v4.56m15.14,8.26h-4.56c-1.23,0-2.24,0-3.17,.04,.02-4.02,.02-8.12,.02-12.07v-3.68c0-3.12-1.4-4.51-4.56-4.51h-13.57c-2.1-.35-4.08,1.08-4.43,3.18-.07,.41-.07,.82,0,1.23v15.86c-1.3,0-2.63-.04-4.07-.04h-4.24c.04-3.94,.06-7.94,.08-11.8,.04-6.97,.08-14.16,.19-21.24,.1-6.02,.11-12.14,.12-18.05v-2.84c0-.73,.09-.9,.67-1.22,9.6-5.31,19.35-10.71,28.77-15.93l8.76-4.82V89.29m25.37-8.26v8.28h-2.72v-12.82h2.73v4.55m15.12-18.41v26.68h-7.73v-15.51c0-3.37-1.39-4.72-4.77-4.72h-8.48c-2.07-.28-3.98,1.17-4.27,3.24-.05,.34-.05,.68,0,1.02v15.94c-1.18-.04-2.47-.05-3.76-.05s-2.6,0-4.02,.05V46.03h33.01v16.52"/><path class="cls-1" d="M22.58,58.93c-.86-.04-1.77-.06-2.64-.06s-1.77,0-2.64,.05c-2.03,.02-3.67,1.68-3.65,3.71s1.68,3.67,3.71,3.65h5.07c2.03,.04,3.71-1.58,3.75-3.61,.04-2.03-1.58-3.71-3.61-3.75"/><path class="cls-1" d="M23.25,38.84c-1.11-.18-2.23-.26-3.35-.27-1.12,0-2.24,.09-3.35,.27-1.82,.37-3.05,2.06-2.85,3.91,.2,1.82,1.71,3.22,3.54,3.28h5.42c1.82-.09,3.3-1.5,3.48-3.32,.21-1.85-1.04-3.54-2.87-3.88"/><path class="cls-1" d="M17.21,56.16h5.39c1.83-.05,3.34-1.45,3.51-3.27,.23-1.85-1-3.56-2.83-3.92-1.11-.19-2.22-.28-3.35-.28-1.12,0-2.24,.09-3.35,.27-1.83,.34-3.08,2.03-2.87,3.88,.18,1.83,1.67,3.25,3.51,3.32"/><path class="cls-1" d="M43.45,48.95c-1.08-.17-2.17-.26-3.27-.26-1.1,0-2.21,.08-3.3,.24-1.89,.32-3.19,2.08-2.95,3.98,.21,1.81,1.72,3.19,3.54,3.25h5.27c1.84-.02,3.36-1.42,3.54-3.25,.29-1.88-.98-3.64-2.85-3.97"/><path class="cls-1" d="M43.02,58.98c-.94-.06-1.91-.09-2.89-.09s-1.88,0-2.84,.08c-.95,.06-1.83,.49-2.45,1.22-.65,.74-.97,1.71-.9,2.69,.16,1.92,1.75,3.4,3.67,3.42h5.06c1.94,.03,3.56-1.49,3.65-3.43,.2-1.95-1.22-3.68-3.17-3.88h-.13"/><path class="cls-1" d="M36.93,38.81c-1.86,.31-3.17,2.01-2.99,3.89,.17,1.87,1.73,3.31,3.61,3.33h5.16c2.02-.01,3.64-1.66,3.63-3.68-.01-1.78-1.31-3.3-3.07-3.58-1.05-.13-2.1-.2-3.16-.2-1.06,0-2.12,.08-3.17,.23"/><path class="cls-1" d="M68.08,58.93c-.86-.04-1.77-.06-2.64-.06s-1.77,0-2.64,.05c-2.03,.02-3.67,1.68-3.65,3.72,.02,2.03,1.68,3.67,3.72,3.65h5.06c2.03,.04,3.71-1.58,3.75-3.61s-1.58-3.71-3.61-3.75"/><path class="cls-1" d="M68.89,48.99c-1.13-.21-2.27-.31-3.42-.31-1.14,0-2.28,.09-3.4,.28-1.83,.36-3.07,2.06-2.84,3.91,.19,1.81,1.68,3.21,3.51,3.28h4.35c.44,0,.81,0,1.18-.03,1.79-.12,3.22-1.53,3.38-3.31,.2-1.79-.98-3.44-2.74-3.84"/><path class="cls-1" d="M83.44,58.97c-.94-.06-1.89-.09-2.83-.09s-1.94,.03-2.9,.09c-.92,.06-1.79,.48-2.4,1.18-.65,.76-.98,1.74-.9,2.74,.12,1.88,1.66,3.36,3.54,3.42h5.17c1.93-.02,3.53-1.52,3.65-3.45,.06-.98-.26-1.95-.91-2.69-.62-.7-1.5-1.13-2.44-1.18"/><path class="cls-1" d="M83.89,48.94c-1.09-.17-2.19-.25-3.29-.25-1.1,0-2.2,.08-3.28,.25-1.88,.31-3.16,2.06-2.89,3.94,.17,1.84,1.7,3.25,3.54,3.27h5.28c1.82-.06,3.33-1.44,3.54-3.25,.26-1.89-1.02-3.64-2.89-3.97"/></svg>