<?xml version="1.0" encoding="UTF-8"?><svg id="Layer_1" xmlns="http://www.w3.org/2000/svg" viewBox="0 0 100 100"><defs><style>.cls-1{fill:#333;}</style></defs><path class="cls-1" d="M50,0C22.39,0,0,22.39,0,50c0,27.61,22.39,50,50,50,27.61,0,50-22.39,50-50C100,22.39,77.61,0,50,0Zm30.16,80.16c-7.73,7.72-18.37,12.49-30.16,12.49-11.78,0-22.43-4.77-30.16-12.49-7.72-7.73-12.49-18.37-12.49-30.16,0-11.78,4.77-22.43,12.49-30.16,7.73-7.72,18.37-12.49,30.16-12.49,11.78,0,22.43,4.77,30.16,12.49,7.72,7.73,12.49,18.37,12.49,30.16,0,11.78-4.77,22.43-12.49,30.16Z"/><path class="cls-1" d="M56.8,39.59c0,.21-.15,1.15-.44,2.82s-.67,3.76-1.15,6.28c-.47,2.52-1.01,5.25-1.59,8.19-.58,2.94-1.18,5.87-1.79,8.78-.61,2.92-1.18,5.54-1.71,7.87h5.96v3.82c-1.91,.8-3.79,1.37-5.65,1.71-1.85,.34-3.55,.52-5.09,.52-1.8,0-3.18-.3-4.13-.91-.96-.61-1.43-1.84-1.43-3.7,0-.47,.15-1.47,.44-2.98,.29-1.51,.67-3.38,1.15-5.6,.47-2.22,.99-4.6,1.55-7.11,.56-2.51,1.11-5.05,1.67-7.59,.56-2.54,1.04-4.87,1.47-6.99l-5.24-.64-.79-3.34c2.01-.53,4.02-1.01,6.04-1.43,2.02-.42,3.84-.77,5.49-1.03,1.64-.26,2.83-.4,3.58-.4,1.11,0,1.67,.58,1.67,1.75Zm-2.62-19.15c1.59,0,2.99,.58,4.21,1.75,1.22,1.16,1.83,2.57,1.83,4.21s-.6,2.97-1.79,4.13c-1.19,1.16-2.61,1.75-4.25,1.75s-2.98-.58-4.17-1.75c-1.19-1.16-1.79-2.54-1.79-4.13s.6-3.05,1.79-4.21c1.19-1.16,2.58-1.75,4.17-1.75Z"/></svg>