<?xml version="1.0" encoding="UTF-8"?><svg id="Layer_1" xmlns="http://www.w3.org/2000/svg" viewBox="0 0 100 100"><defs><style>.cls-1{fill:#333;}</style></defs><path class="cls-1" d="M26.38,100c-2.53-.68-4.69-1.9-6.14-4.17-.99-1.54-1.54-3.21-1.54-5.06,0-27.16,0-54.32,0-81.48C18.71,4.15,22.87,.02,28.05,.01c14.64-.02,29.27-.02,43.91,0,5.18,0,9.33,4.13,9.33,9.29,.01,27.16,.01,54.32,0,81.48,0,3.98-2.52,7.45-6.28,8.77-.46,.16-.93,.3-1.39,.45H26.38Zm-1.3-49.96c0,13.24,0,26.47,0,39.71,0,2.8,1.12,3.93,3.9,3.93,8.75,0,17.5,0,26.25,0,5.37,0,10.73,0,16.1,0,1.25,0,2.3-.37,3.04-1.43,.51-.73,.55-1.57,.55-2.43,0-26.54,0-53.08,0-79.62,0-.2,0-.39,0-.59-.09-1.9-1.32-3.17-3.22-3.23-1.72-.05-3.45,.01-5.17-.02-.71-.01-.9,.3-.89,.94,.03,1.11,.02,2.21,0,3.32-.04,2.28-1.34,3.56-3.6,3.56-8.03,0-16.07,0-24.1,0-2.2,0-3.51-1.28-3.56-3.49-.03-1.14-.03-2.28,0-3.41,.02-.67-.25-.92-.92-.91-1.43,.03-2.86,0-4.29,0-3,0-4.07,1.06-4.07,4.04,0,13.2,0,26.41,0,39.61ZM49.97,7.81c2.73,0,5.46,0,8.19,0,.52,0,.98,.02,.97-.73,0-.77-.51-.7-1-.7-5.43,0-10.86,0-16.28,0-.52,0-.98-.02-.97,.73,0,.77,.51,.7,1,.7,2.7,0,5.4,0,8.09,0Z"/></svg>