<?xml version="1.0" encoding="UTF-8"?><svg id="Layer_1" xmlns="http://www.w3.org/2000/svg" viewBox="0 0 552.6 100"><defs><style>.cls-1{fill:#0084ce;}.cls-2{fill:#fff;}.cls-3{fill:#1a1a1a;}</style></defs><path class="cls-3" d="M534.47,99.65H261.92V.35h272.54c10.01,0,18.13,8.12,18.13,18.13v63.04c0,10.01-8.12,18.13-18.13,18.13Z"/><path class="cls-1" d="M255.88,.35H12.51C5.6,.35,0,6.05,0,13.09V86.88c0,7.04,5.6,12.75,12.51,12.75H255.88V.35Z"/><path class="cls-2" d="M46.48,60.31c0,1.58-.03,2.97-.09,4.17-.06,1.21-.26,2.22-.6,3.06-.55,1.32-1.44,2.28-2.69,2.88-1.25,.6-2.42,.9-3.51,.9-1.58,0-3.07-.58-4.48-1.74-1.41-1.16-2.24-2.53-2.5-4.11l-11.53,2.75c1.35,4.3,3.62,7.72,6.82,10.24,3.2,2.52,7.27,3.79,12.2,3.79,3.41,0,6.53-.69,9.34-2.07,2.81-1.38,5.09-3.59,6.84-6.63,.8-1.38,1.34-2.7,1.61-3.98,.27-1.28,.42-2.65,.43-4.11,.01-1.46,.02-3.18,.02-5.16V19h-11.88V60.31Z"/><path class="cls-2" d="M113.9,21.75c-4.49-2.7-9.83-4.05-16.03-4.05s-11.54,1.35-16.03,4.05c-4.49,2.7-7.95,6.47-10.37,11.32-2.42,4.85-3.64,10.49-3.64,16.91s1.21,12.07,3.64,16.91c2.42,4.85,5.88,8.62,10.37,11.32,4.49,2.7,9.83,4.05,16.03,4.05s11.54-1.35,16.03-4.05c4.49-2.7,7.95-6.47,10.37-11.32,2.42-4.85,3.64-10.49,3.64-16.91s-1.21-12.06-3.64-16.91c-2.43-4.85-5.88-8.62-10.37-11.32Zm-.34,39.51c-1.31,3.21-3.26,5.7-5.87,7.44-2.61,1.75-5.88,2.6-9.81,2.54-3.93-.06-7.2-.96-9.81-2.71-2.61-1.75-4.57-4.2-5.87-7.36-1.31-3.16-1.96-6.89-1.96-11.19s.65-8.06,1.96-11.28c1.31-3.21,3.26-5.69,5.87-7.44,2.61-1.75,5.88-2.6,9.81-2.54,3.93,.06,7.2,.96,9.81,2.71,2.61,1.75,4.57,4.2,5.87,7.36,1.31,3.16,1.96,6.89,1.96,11.19s-.65,8.06-1.96,11.28Z"/><path class="cls-2" d="M174.05,48.37c1.38-.83,2.54-1.94,3.49-3.34,1.56-2.3,2.35-5.18,2.35-8.65,0-2.73-.63-5.42-1.89-8.09-1.26-2.67-3.26-4.88-5.98-6.65-2.73-1.76-6.3-2.65-10.72-2.65h-24.79v61.97h27.46c4.22,0,7.72-.8,10.5-2.39,2.78-1.59,4.86-3.79,6.22-6.61,1.36-2.81,2.04-6.07,2.04-9.77,0-3.44-.97-6.56-2.9-9.34-1.41-2.03-3.34-3.52-5.77-4.5Zm-25.66-18.44h12.74c2.24,0,3.94,.65,5.12,1.94,1.18,1.29,1.76,2.88,1.76,4.78,0,1.52-.3,2.76-.9,3.72-.6,.96-1.42,1.67-2.45,2.13-1.03,.46-2.21,.69-3.53,.69h-12.74v-13.25Zm21.5,36.17c-.7,1.22-1.67,2.17-2.9,2.84-1.23,.67-2.64,1.01-4.22,1.01h-14.37v-15.84h14.37c1.81,0,3.32,.34,4.54,1.01,1.22,.67,2.13,1.59,2.73,2.73,.6,1.15,.9,2.45,.9,3.92,0,1.66-.35,3.11-1.05,4.33Z"/><path class="cls-2" d="M237.88,54.8c-1.16-2.04-2.64-3.68-4.43-4.93-1.79-1.25-3.67-2.22-5.62-2.93-1.95-.7-3.73-1.27-5.34-1.7l-10.76-2.93c-1.32-.34-2.61-.77-3.87-1.29-1.26-.52-2.31-1.2-3.14-2.04-.83-.85-1.25-1.94-1.25-3.29,0-1.46,.51-2.73,1.53-3.79,1.02-1.06,2.34-1.87,3.96-2.43,1.62-.56,3.35-.81,5.19-.75,1.86,.06,3.65,.45,5.36,1.16,1.71,.72,3.18,1.76,4.41,3.14,1.23,1.38,2.08,3.07,2.54,5.08l12.65-2.15c-1-3.87-2.64-7.15-4.91-9.83-2.27-2.68-5.08-4.73-8.44-6.13-3.36-1.41-7.17-2.14-11.45-2.19-4.25-.03-8.12,.63-11.62,1.98-3.5,1.35-6.3,3.4-8.39,6.15-2.09,2.75-3.14,6.21-3.14,10.37,0,2.96,.49,5.4,1.48,7.34,.99,1.94,2.23,3.49,3.72,4.67,1.49,1.18,3.03,2.08,4.63,2.71,1.59,.63,2.99,1.12,4.2,1.46l16.1,4.73c1.2,.37,2.2,.79,2.99,1.25,.79,.46,1.4,.95,1.83,1.46,.43,.52,.74,1.07,.93,1.66,.19,.59,.28,1.2,.28,1.83,0,1.72-.58,3.17-1.74,4.35-1.16,1.18-2.65,2.07-4.45,2.67-1.81,.6-3.67,.9-5.59,.9-3.44,0-6.51-.96-9.21-2.88-2.7-1.92-4.48-4.66-5.34-8.22l-12.22,1.81c.63,4.19,2.13,7.8,4.5,10.82,2.37,3.03,5.39,5.35,9.08,6.97,3.69,1.62,7.82,2.43,12.42,2.43,3.16,0,6.22-.4,9.19-1.21,2.97-.8,5.63-2.02,7.98-3.64,2.35-1.62,4.22-3.67,5.62-6.15,1.39-2.48,2.09-5.39,2.09-8.71,0-3.13-.58-5.71-1.74-7.75Z"/><path class="cls-2" d="M321.94,49.83c-1.79-1.25-3.67-2.22-5.62-2.93-1.95-.7-3.73-1.27-5.34-1.7l-10.76-2.93c-1.32-.34-2.61-.77-3.87-1.29-1.26-.52-2.31-1.2-3.14-2.04-.83-.85-1.25-1.94-1.25-3.29,0-1.46,.51-2.73,1.53-3.79,1.02-1.06,2.34-1.87,3.96-2.43,1.62-.56,3.35-.81,5.19-.75,1.86,.06,3.65,.45,5.36,1.16,1.71,.72,3.18,1.76,4.41,3.14,1.23,1.38,2.08,3.07,2.54,5.08l12.65-2.15c-1-3.87-2.64-7.15-4.91-9.83-2.27-2.68-5.08-4.73-8.44-6.13-3.36-1.41-7.17-2.14-11.45-2.2-4.25-.03-8.12,.63-11.62,1.98-3.5,1.35-6.3,3.4-8.39,6.15-2.09,2.75-3.14,6.21-3.14,10.37,0,2.96,.49,5.4,1.48,7.34,.99,1.94,2.23,3.49,3.72,4.67,1.49,1.18,3.03,2.08,4.63,2.71,1.59,.63,2.99,1.12,4.2,1.46l16.1,4.73c1.2,.37,2.2,.79,2.99,1.25,.79,.46,1.4,.95,1.83,1.46,.43,.52,.74,1.07,.93,1.66,.19,.59,.28,1.2,.28,1.83,0,1.72-.58,3.17-1.74,4.35-1.16,1.18-2.65,2.07-4.45,2.67-1.81,.6-3.67,.9-5.59,.9-3.44,0-6.51-.96-9.21-2.88-2.7-1.92-4.48-4.66-5.34-8.22l-12.22,1.81c.63,4.19,2.13,7.8,4.5,10.82,2.37,3.03,5.39,5.35,9.08,6.97,3.69,1.62,7.82,2.43,12.42,2.43,3.16,0,6.22-.4,9.19-1.21,2.97-.8,5.63-2.02,7.98-3.64,2.35-1.62,4.22-3.67,5.62-6.15,1.39-2.48,2.09-5.39,2.09-8.71,0-3.13-.58-5.71-1.74-7.75-1.16-2.04-2.64-3.68-4.43-4.93Z"/><polygon class="cls-2" points="350.15 18.96 338.45 18.96 338.45 80.93 376.83 80.93 376.83 70 350.15 70 350.15 18.96"/><path class="cls-2" d="M398.78,18.96l-18.94,61.97h12.05l3.92-12.91h23.33l3.98,12.91h12.05l-18.94-61.97h-17.47Zm.36,38.13l8.25-27.16,8.38,27.16h-16.64Z"/><polygon class="cls-2" points="432.61 29.89 452.15 29.89 452.15 80.93 463.85 80.93 463.85 29.89 483.39 29.89 483.39 18.96 432.61 18.96 432.61 29.89"/><polygon class="cls-2" points="530.73 29.89 530.73 18.96 490.27 18.96 490.27 80.93 530.73 80.93 530.73 70 501.98 70 501.98 54.07 525.56 54.07 525.56 43.14 501.98 43.14 501.98 29.89 530.73 29.89"/></svg>