<?xml version="1.0" encoding="UTF-8"?><svg id="Layer_1" xmlns="http://www.w3.org/2000/svg" xmlns:xlink="http://www.w3.org/1999/xlink" viewBox="0 0 300 300"><defs><style>.cls-1{fill:none;}.cls-2{fill:#f2f2f2;}.cls-3{fill:#00cfff;}.cls-4{fill:#263644;}</style><clipPath id="clippath"><rect class="cls-1" x="-1781.97" y="361.27" width="1920" height="1080"/></clipPath></defs><rect id="Rectangle_487" class="cls-2" width="300" height="300" rx="10.47" ry="10.47"/><g id="Group_172"><path id="Path_14266" class="cls-4" d="M136,129.98h-44.69v39.03h38.64v-24.02h-23.22v9.02h14.2v5.99h-20.61v-21h35.68v36.39H61.94c0,4.98,4.04,9.02,9.02,9.02h74.06v-54.43h-9.02Z"/><path id="Path_14267" class="cls-3" d="M145.02,115.6H29.91v68.8h24.94v-36.83l21,15,9.02,6.44v-39.02h-9.02v21.5l-21-15-9.02-6.44v45.33h-6.92v-50.78h97.08c4.98,0,9.02-4.02,9.03-9Z"/><g id="Group_169"><path id="Path_14268" class="cls-4" d="M167.87,130.48h-3.95l-6.38-11.1h-.09c.13,1.96,.19,3.36,.19,4.19v6.91h-2.79v-14.65h3.93l6.37,10.99h.07c-.1-1.91-.15-3.25-.15-4.04v-6.94h2.79l.02,14.66Z"/><path id="Path_14269" class="cls-4" d="M180.01,130.48h-8.45v-14.65h8.45v2.55h-5.34v3.22h4.96v2.55h-4.96v3.78h5.34v2.55Z"/><path id="Path_14270" class="cls-4" d="M194.93,130.48h-3.54l-3.41-5.55-3.41,5.55h-3.33l4.86-7.57-4.54-7.1h3.43l3.16,5.28,3.1-5.28h3.35l-4.61,7.28,4.92,7.4Z"/><path id="Path_14271" class="cls-4" d="M202.35,122.24h5.82v7.6c-.87,.29-1.76,.51-2.67,.65-.85,.12-1.7,.19-2.55,.18-1.89,.13-3.75-.59-5.07-1.95-1.26-1.58-1.88-3.58-1.74-5.6-.12-2.05,.62-4.06,2.03-5.54,1.54-1.39,3.57-2.1,5.64-1.99,1.5,0,2.98,.31,4.35,.9l-1.05,2.49c-1.04-.53-2.18-.8-3.34-.8-1.23-.05-2.41,.45-3.23,1.35-.85,1.02-1.28,2.32-1.21,3.64-.09,1.29,.26,2.57,.98,3.65,.69,.86,1.75,1.33,2.84,1.26,.66,0,1.33-.07,1.98-.2v-3.06h-2.79l.02-2.59Z"/><path id="Path_14272" class="cls-4" d="M220.11,130.48h-8.45v-14.65h8.45v2.55h-5.34v3.22h4.97v2.55h-4.96v3.78h5.34v2.55Z"/><path id="Path_14273" class="cls-4" d="M236.18,130.48h-3.96l-6.38-11.1h-.09c.13,1.96,.19,3.36,.19,4.19v6.91h-2.79v-14.65h3.92l6.38,10.99h.07c-.1-1.91-.15-3.25-.15-4.04v-6.94h2.79l.02,14.66Z"/></g><g id="Group_170"><path id="Path_14274" class="cls-3" d="M154.85,157.35v-14.65h3.11v14.65h-3.11Z"/><path id="Path_14275" class="cls-3" d="M174.97,149.99c.13,2.02-.52,4.02-1.81,5.58-2.96,2.61-7.39,2.61-10.35,0-1.3-1.57-1.94-3.59-1.81-5.62-.14-2.02,.51-4.02,1.81-5.58,1.38-1.35,3.26-2.06,5.19-1.93,1.93-.13,3.81,.58,5.17,1.95,1.29,1.57,1.93,3.58,1.79,5.61Zm-10.7,0c-.09,1.3,.24,2.6,.93,3.7,.67,.85,1.71,1.32,2.79,1.25,2.48,0,3.72-1.65,3.72-4.95s-1.24-4.95-3.7-4.96c-1.08-.07-2.12,.4-2.79,1.25-.71,1.1-1.04,2.4-.95,3.71Z"/><path id="Path_14276" class="cls-3" d="M183.67,157.35h-3.11v-12.08h-3.99v-2.59h11.08v2.59h-3.99v12.08Z"/></g><g id="Group_171"><path id="Path_14277" class="cls-4" d="M163.51,180.13c.05,1.22-.48,2.38-1.43,3.14-1.16,.82-2.56,1.23-3.98,1.14-1.43,.03-2.86-.27-4.16-.88v-2.89c.81,.38,1.65,.69,2.52,.93,.61,.17,1.25,.26,1.88,.27,.55,.04,1.1-.1,1.57-.39,.37-.27,.58-.71,.55-1.16,0-.28-.08-.54-.24-.77-.19-.26-.43-.47-.7-.65-.61-.37-1.25-.7-1.9-.99-.72-.31-1.4-.72-2.02-1.21-.44-.38-.81-.84-1.08-1.36-.28-.56-.42-1.18-.4-1.8-.06-1.17,.43-2.3,1.32-3.06,1.04-.8,2.34-1.19,3.65-1.12,.74,0,1.47,.09,2.18,.27,.74,.2,1.47,.45,2.17,.76l-1.01,2.42c-.63-.27-1.28-.49-1.94-.67-.49-.12-1-.19-1.51-.19-.49-.03-.97,.11-1.35,.41-.31,.27-.48,.66-.47,1.07,0,.25,.06,.5,.19,.72,.16,.24,.37,.44,.61,.59,.64,.38,1.29,.73,1.97,1.03,1.08,.44,2.04,1.11,2.82,1.97,.52,.7,.78,1.55,.75,2.42Z"/><path id="Path_14278" class="cls-4" d="M179.49,176.84c.13,2.03-.51,4.03-1.81,5.6-2.96,2.61-7.39,2.61-10.35,0-1.3-1.57-1.94-3.59-1.81-5.62-.14-2.02,.51-4.02,1.81-5.58,1.38-1.35,3.26-2.06,5.19-1.93,1.93-.13,3.81,.58,5.17,1.95,1.28,1.57,1.93,3.56,1.79,5.59Zm-10.7,0c-.09,1.3,.24,2.6,.93,3.7,.67,.85,1.71,1.32,2.79,1.25,2.48,0,3.72-1.65,3.72-4.95s-1.24-4.95-3.7-4.95c-1.08-.07-2.12,.4-2.79,1.25-.71,1.1-1.04,2.4-.95,3.71Z"/><path id="Path_14279" class="cls-4" d="M182.53,184.2v-14.65h3.11v12.1h5.95v2.57h-9.06Z"/><path id="Path_14280" class="cls-4" d="M206.08,169.53v9.5c.02,1-.23,1.98-.73,2.85-.49,.82-1.22,1.48-2.09,1.88-1.02,.46-2.13,.68-3.25,.65-1.6,.1-3.17-.42-4.4-1.45-1.07-1.03-1.64-2.48-1.56-3.97v-9.45h3.1v8.98c-.07,.89,.18,1.77,.7,2.49,.6,.58,1.42,.87,2.26,.79,.82,.08,1.63-.22,2.21-.8,.52-.73,.77-1.61,.7-2.5v-8.96h3.07Z"/><path id="Path_14281" class="cls-4" d="M215.33,184.2h-3.11v-12.08h-3.99v-2.59h11.08v2.59h-3.99v12.08Z"/><path id="Path_14282" class="cls-4" d="M221.57,184.2v-14.65h3.11v14.65h-3.11Z"/><path id="Path_14283" class="cls-4" d="M241.69,176.84c.13,2.03-.51,4.03-1.81,5.6-2.96,2.61-7.4,2.61-10.36,0-1.3-1.57-1.94-3.59-1.8-5.62-.14-2.02,.51-4.02,1.81-5.58,1.38-1.35,3.26-2.06,5.19-1.93,1.92-.13,3.81,.58,5.17,1.95,1.29,1.57,1.93,3.56,1.79,5.59Zm-10.71,0c-.09,1.3,.24,2.6,.94,3.7,.67,.85,1.71,1.32,2.79,1.25,2.48,0,3.72-1.65,3.72-4.95s-1.23-4.95-3.7-4.95c-1.08-.07-2.12,.4-2.79,1.25-.71,1.1-1.04,2.4-.96,3.71Z"/><path id="Path_14284" class="cls-4" d="M257.75,184.2h-3.95l-6.38-11.1h-.09c.13,1.96,.19,3.35,.19,4.19v6.9h-2.79v-14.65h3.92l6.38,10.99h.07c-.1-1.91-.15-3.26-.15-4.04v-6.94h2.79l.02,14.66Z"/><path id="Path_14285" class="cls-4" d="M270.1,180.13c.05,1.22-.48,2.38-1.43,3.14-1.16,.82-2.56,1.23-3.98,1.14-1.43,.03-2.86-.27-4.16-.88v-2.89c.81,.38,1.65,.69,2.52,.93,.61,.17,1.25,.26,1.88,.27,.55,.04,1.1-.1,1.57-.39,.37-.27,.58-.71,.55-1.16,0-.28-.08-.54-.24-.77-.19-.25-.43-.47-.7-.65-.61-.37-1.25-.7-1.9-.99-.72-.31-1.4-.72-2.02-1.21-.44-.38-.81-.84-1.08-1.36-.28-.56-.42-1.18-.4-1.8-.06-1.17,.43-2.3,1.32-3.06,1.04-.8,2.34-1.19,3.65-1.12,.74,0,1.47,.09,2.18,.27,.74,.2,1.47,.45,2.17,.76l-1.01,2.42c-.63-.27-1.28-.49-1.94-.67-.49-.12-1-.19-1.51-.19-.49-.03-.97,.11-1.35,.41-.31,.27-.48,.66-.47,1.07,0,.25,.06,.5,.19,.72,.16,.23,.37,.43,.61,.59,.64,.38,1.29,.73,1.97,1.03,1.08,.44,2.04,1.11,2.82,1.97,.52,.7,.78,1.55,.75,2.42Z"/></g></g></svg>