<?xml version="1.0" encoding="UTF-8"?><svg id="Layer_1" xmlns="http://www.w3.org/2000/svg" viewBox="0 0 100 100"><defs><style>.cls-1{fill:#333;}</style></defs><path class="cls-1" d="M0,86.89V19.76c.71-1.49,1.89-2.06,3.54-2.05,8.07,.04,16.13,.02,24.2,.02,.29,0,.59,0,.88,0,.53,0,.77-.25,.77-.78,0-.81,0-1.63,.01-2.44,.12-4.53,3.93-8.43,8.45-8.46,8.07-.06,16.13-.04,24.2,0,2.46,.01,4.52,1.08,6.19,2.89,1.95,2.11,2.43,4.66,2.3,7.42-.06,1.37,0,1.38,1.33,1.38,8.23,0,16.46,0,24.69,0,2.34,0,3.43,1.06,3.43,3.38,0,21.34,0,42.68,0,64.01,0,.75-.06,1.49-.26,2.22-1.15,4.16-4.5,6.65-8.98,6.65-27.19,0-54.38,0-81.58,0-.29,0-.59,0-.88-.01-1.88-.09-3.54-.75-5.02-1.9-1.73-1.34-2.65-3.16-3.27-5.19ZM6.07,39.78s-.09,.02-.14,.02c0,.25,0,.5,0,.74,0,14.57,0,29.14,0,43.71,0,.29,0,.59,.03,.88,.19,1.68,1.15,2.64,2.83,2.83,.42,.05,.84,.03,1.27,.03,26.6,0,53.2,0,79.8,0,.58,0,1.17,.02,1.75-.11,1.24-.28,2.02-1.01,2.26-2.26,.1-.51,.12-1.03,.12-1.55,0-14.47,0-28.94,0-43.41v-.86c-.22,.27-.34,.56-.43,.85-1.32,3.95-2.61,7.9-3.95,11.84-1.41,4.15-4.54,6.36-8.91,6.37-4.42,0-8.85,0-13.27,0q-2.71,0-2.75,2.7c-.04,1.95-1.22,3.13-3.19,3.15-2.54,.02-5.07,0-7.61,0-5.11,0-10.21,0-15.32,0-2.14,0-3.29-1.17-3.3-3.33,0-.42,0-.85,0-1.27,0-1.22-.03-1.25-1.28-1.25-5.07,0-10.15,.05-15.22-.02-3.82-.06-6.54-1.95-8.07-5.43-.64-1.45-1.06-3-1.57-4.51-1.02-3.04-2.03-6.08-3.05-9.12ZM50.02,23.73c-13.85,0-27.71,0-41.56,0q-1.33,0-.9,1.29c2.77,8.29,5.53,16.59,8.3,24.88,.8,2.4,1.57,2.95,4.14,2.95,4.16,0,8.33,0,12.49,0q2.71,0,2.76-2.7c.03-1.96,1.22-3.14,3.19-3.15,2.47-.02,4.94,0,7.41,0,5.2,0,10.41,0,15.61,0,2.02,0,3.18,1.2,3.21,3.23,0,.46,0,.91,0,1.37,0,1.23,.03,1.26,1.27,1.26,4.72,0,9.43,0,14.15,0,2.36,0,3.19-.6,3.94-2.84,2.79-8.36,5.57-16.71,8.36-25.07q.41-1.22-.9-1.22c-13.82,0-27.64,0-41.46,0Zm-.16-6.01c4.23,0,8.46,0,12.68,0,2.16,0,1.98,.18,1.97-2.02,0-2.61-1.07-3.68-3.68-3.68-7.25,0-14.51,0-21.76,0-2.61,0-3.67,1.07-3.68,3.68,0,.2,0,.39,0,.59q0,1.43,1.39,1.43c4.36,0,8.72,0,13.07,0Zm.1,40.98c2.53,0,5.06-.02,7.6,.01,.76,0,1.15-.2,1.12-1.04-.05-1.26-.02-2.53,0-3.8,0-.62-.25-.88-.87-.88-5.23,0-10.45,0-15.68,0-.63,0-.87,.28-.87,.89,.02,1.23,.04,2.47,0,3.7-.03,.85,.27,1.15,1.13,1.13,2.53-.04,5.06-.01,7.6-.01Z"/></svg>