<?xml version="1.0" encoding="UTF-8"?><svg xmlns="http://www.w3.org/2000/svg" xmlns:xlink="http://www.w3.org/1999/xlink" viewBox="0 0 300 300"><defs><style>.cls-1{fill:none;}.cls-2{clip-path:url(#clippath);}.cls-3{fill:#ffa21f;}.cls-4{fill:#fff;}.cls-5,.cls-6{fill:#fdab7d;}.cls-7{fill:#fdfefd;}.cls-8{fill:#17161d;}.cls-9{fill:#37344b;}.cls-10{fill:#6181d8;}.cls-11,.cls-12{fill:#506ac1;}.cls-13{clip-path:url(#clippath-1);}.cls-14{clip-path:url(#clippath-3);}.cls-15{clip-path:url(#clippath-2);}.cls-6{opacity:.37;}.cls-6,.cls-16{mix-blend-mode:multiply;}.cls-16{fill:#20367b;opacity:.35;}.cls-17{isolation:isolate;}.cls-12{opacity:.4;}</style><clipPath id="clippath"><path class="cls-11" d="M160.13,150.81s3.55,29.6,1.58,45.79c-1.97,16.18,2.37,37.89,.79,46.58-1.58,8.68-3.55,28.42-1.18,30.79,0,0-7.5,4.34-10.26,0,0,0-5.92-36.31-7.5-48.94-1.58-12.63-7.89-60-9.47-60.39-1.58-.39,3.95,50.13,2.76,60.39-1.18,10.26-2.76,38.68-1.58,45,0,0-9.47,2.76-12.24-.39,0,0,.79-31.58,0-39.47-.79-7.89-11.05-58.81-6.32-74.6,4.74-15.79,29.21-45,43.42-4.74Z"/></clipPath><clipPath id="clippath-1"><path class="cls-11" d="M151.25,65.15h-16.18l-18.35,10.66-2.96,28.81s2.76,46.58-1.18,55.26c-3.95,8.68,15-1.18,16.97-3.95,1.97-2.76,3.95-7.89,3.95-7.89,0,0-1.97,7.89,9.47,12.63,11.45,4.74,25.26,7.1,24.47,5.53-.79-1.58-4.74-21.71-5.53-26.45-.79-4.74,.39-27.63,.39-27.63,0,0,13.22-36.31-11.05-46.97Z"/></clipPath><clipPath id="clippath-2"><path class="cls-5" d="M149.87,55.68c0,.39,0,7.5,1.58,9.47,1.58,1.97-7.89,2.37-7.89,2.37l-6.98-4.81s1.45-6.64,1.06-9.79c-.39-3.16,12.24,2.76,12.24,2.76Z"/></clipPath><clipPath id="clippath-3"><polygon class="cls-7" points="151.05 62.39 152.63 67.52 144.34 96.73 137.62 115.92 133.29 80.94 134.21 67 136.05 62.39 143.16 66.73 151.05 62.39"/></clipPath><clipPath id="clippath-4"><rect class="cls-1" x="-1104.69" y="361.27" width="1920" height="1080"/></clipPath></defs><g class="cls-17"><g id="Layer_1"><g><path class="cls-12" d="M207.48,166.97l2.36-.68,1.58-36.36c3.04,.79,6.42-1.01,6.42-1.01,1.8-7.43-5.18-40.63-5.18-40.63l-14.86-7.09-3.1-2.48c-2.93-6.42,1.91-4.28,3.55-11.14,0,0,.2-.93,.44-2.37,.04,0,.08,0,.12,0,1.74,0,3.15-1.21,3.15-2.7,0-1.07-.73-1.99-1.78-2.43,.53-.47,.87-1.1,.9-1.78,.67-.55,1.06-1.34,.97-2.18-.04-.4-.19-.77-.42-1.1,.75-.55,1.19-1.39,1.1-2.28-.1-.99-.83-1.77-1.82-2.11,.3-.41,.48-.89,.48-1.41,0-1.43-1.34-2.59-2.98-2.59-.02,0-.04,0-.06,0-.07-1.38-1.37-2.48-2.98-2.48-.29,0-.57,.04-.84,.11-.35-1.1-1.5-1.91-2.87-1.91-1.03,0-1.93,.45-2.47,1.14-.54-.62-1.4-1.02-2.37-1.02s-1.89,.43-2.43,1.09c-.52-.4-1.21-.64-1.96-.64-1.24,0-2.31,.66-2.76,1.6-.3-.09-.62-.14-.96-.14-1.65,0-2.98,1.16-2.98,2.59,0,.54,.19,1.05,.53,1.47-1.22,.33-2.1,1.31-2.1,2.47,0,.75,.37,1.42,.95,1.89-.81,.46-1.34,1.26-1.34,2.16s.49,1.64,1.25,2.1c-.82,.46-1.36,1.26-1.36,2.17,0,1.11,.81,2.06,1.95,2.42-.05,.23-.08,.47-.08,.73,0,1.55,.98,2.81,2.19,2.81,.22,0,.44-.04,.65-.12,.34,1.46,.72,2.74,1.1,3.28,0,0,4.67,5.85,2.64,9.68-.22,.42-19.3,12.04-19.3,12.04-7.65,12.83,6.75,42.44,6.75,42.44l-.45,31.85,4.5,.68s.56,31.07-1.01,35.91c-1.58,4.84-3.83,41.2-5.4,44.8-1.58,3.6,.56,2.93,.9,5.29,.34,2.36-3.15,3.94-1.01,8.89,2.14,4.95,11.26,2.25,12.16,.79,.9-1.46-3.04-8.1-2.14-9.34s.56-1.46,.45-3.49c-.11-2.03,0-4.05,0-4.05,.23-11.82,6.64-41.31,6.64-41.31,1.8-3.15,8.78-37.14,8.78-37.14l-3.6,37.14c-3.83,12.04,.23,38.61,.79,40.07,.56,1.46,1.24,3.71,.79,6.98-.45,3.26,1.13,4.73,1.13,4.73l-2.59,5.07c5.29,4.28,24.99,1.35,24.99,1.35,0,0,2.14-4.61-4.73-4.39-6.87,.23-8.33-3.94-8.33-3.94,1.69-1.91-.68-5.07,.11-5.97,.79-.9-.79-33.54,1.69-42.44,2.48-8.89,4.28-37.03,4.28-37.03Z"/><path class="cls-12" d="M251.54,58.37s1.35-7.17,11.91-4.86c10.56,2.31,23.55,27.06,8.66,35.85l10.83,5.78s13.81,23.36,10.56,34.46c0,0-4.06,2.31-10.29-.69l1.35,11.56-2.98,.93s4.6,25.67-14.08,63.83l2.44,41.4,5.14,10.18s10.56,3.7,3.79,4.39c-6.77,.69-10.29-.46-10.83-1.85-.54-1.39-2.17-8.33-2.17-8.33,0,0-1.08,9.48-1.35,8.79-.27-.69-2.17-10.87-2.17-10.87l2.17-5.09-5.14-19.89-6.5,16.42s-1.35,13.41-.27,14.34c1.08,.93,6.23,2.54,2.71,3.7-3.52,1.16-9.75,.69-9.48-1.39,.11-.84,.53-3.18,.99-5.65,.68-3.62,1.44-7.54,1.44-7.54l-3.25,7.86s-.27-10.64,2.98-13.41c3.25-2.78,0-27.98,9.21-35.38l-.54-10.64s-3.79-15.26-10.02-24.28c-6.23-9.02,4.87-26.83,4.87-26.83l-.81-2.08s-2.17,1.62-6.23-5.78c-4.06-7.4-13.54-32.38-5.14-37.23,8.39-4.86,12.73-5.55,12.73-5.55,0,0-9.48-3.01-9.21-10.64,.27-7.63,2.98-23.59,8.66-21.51Z"/><path class="cls-12" d="M54.48,198.59s.61-4.46,.98-11.09c-1.94,1.02-1.99,1.02-.05,0,.71-12.82,.55-33.75-6.66-46.28l2.65-.38c.82-.12,1.49-.71,1.71-1.51,.1-.38,.32-.72,.61-.99,2.68-2.44,16.67-15.32,18.7-20.46,0,0-9.83-20.17-19.31-25.35l-5.34-2.07s7.76-10.69,6.9-21.9c-.86-11.21-7.63-25.43-17.26-17.72,0,0-5.85-4.5-10.85,4.81-5,9.31-2.58,37.06-2.58,37.06,0,0-9.14,10.86-8.1,35,0,0-6.72,27.76-7.24,28.27-.52,.52-4.31,6.21-1.72,11.38,2.59,5.17,3.97,1.55,3.97,1.55,0,0,2.93-3.28,1.21-7.07,0,0,.52-3.45-.34-5.17l10-25.17v4.05s-9.96,17.56-2.38,52.93c.02,0,0,.02,.03,.03,.7,3.26,1.52,6.67,2.54,10.23,0,0,4.99,25.17,5.51,54.31l-5.35,10.34s-5.86,.69-3.62,1.9c2.24,1.21,7.07,.17,7.07,.17l2.93-6.9,.69,6.9c1.55-.17,3.1-10.52,3.1-10.52l-2.41-3.1s8.74-32.09,2.59-53.62c-.1-.34,.32-2.77,.89-6.35,2.79,.23,5.83,.22,8.94-.2h0c1.03-.14,1.14-.14,.09,0,1.42,4.84,2.88,8.73,4.22,10.34l14.83,48.79-.86,11.72s-3.1,1.03-.52,1.9c2.59,.86,6.03,.69,6.03-1.21s-1.9-12.41-1.9-13.1,.17-40.86-9.66-51.55Zm-9.19-63.91l8.84-24.89,10.17,9.66-12.93,16.55-6.08-1.32Z"/><path class="cls-12" d="M148.64,260.7c-8.93-.71-15.6-6.24-15.6-6.24l3.97-92.31,2.13-.28-.71-30.49c1.91,.3,3.47,.41,4.68,.42,1.92,.02,3.6-1.3,4.03-3.17,3.7-15.87-.91-31.71-3.12-37.91-.61-1.72-1.9-3.1-3.56-3.84l-12.18-5.4-1.61-2.42-.39-3.77c-.11-1.12,.26-2.23,1.03-3.05,.51-.54,.85-1.22,.98-1.96l.83-4.55s.02,0,.03,0c1.53,0,2.77-1.36,2.77-3.05,0-1.14-.57-2.14-1.42-2.66,4.25-13.13-2.69-15.84-2.69-15.84-13.05-5.39-17.87,2.98-17.87,2.98-3.69-.57-3.26,4.54-3.26,4.54l-.22,5.86c-.03,.72,.01,1.44,.11,2.15-1.23,.31-2.16,1.52-2.16,2.97,0,1.68,1.24,3.05,2.77,3.05,.23,0,.46-.04,.67-.09l1.05,4.62c.13,.57,.4,1.09,.78,1.52l.79,.89c.48,.55,.72,1.27,.64,2l-.45,4.53-1.7,2.13-12.52,5.55c-1.67,.74-2.95,2.13-3.56,3.84-2.21,6.2-6.82,22.04-3.12,37.91,.44,1.87,2.11,3.19,4.03,3.17,1.21-.01,2.77-.12,4.68-.42l-.71,30.49,2.13,.28,3.97,92.31s-6.66,5.53-15.6,6.24c0,0-2.41,.14-1.56,2.69,0,0,3.97,1.99,15.03,.99,11.06-.99,13.61-.85,13.61-.85l-2.98-8.37,1.13-2.84-1.42-4.4,6.38-80.37,6.38,80.37-1.42,4.4,1.13,2.84-2.98,8.37s2.55-.14,13.61,.85c11.06,.99,15.03-.99,15.03-.99,.85-2.55-1.56-2.69-1.56-2.69Z"/><g><path class="cls-8" d="M133.69,268.43c0,.39,2.37,7.89,.79,8.29-1.58,.39-5.53,.39-6.32,0-.79-.39-1.58-.39-3.16,.39-1.58,.79-15.79,1.18-16.58,0-.79-1.18,11.05-3.95,15.79-8.29,4.74-4.34,9.47-.39,9.47-.39Z"/><path class="cls-8" d="M158.95,273.17s7.89,5.13,7.5,6.71c-.39,1.58-10.26,2.76-14.21,1.58-3.95-1.18-5.92-1.58-3.16-4.74,2.76-3.16,5.53-5.53,9.87-3.55Z"/><g><path class="cls-11" d="M160.13,150.81s3.55,29.6,1.58,45.79c-1.97,16.18,2.37,37.89,.79,46.58-1.58,8.68-3.55,28.42-1.18,30.79,0,0-7.5,4.34-10.26,0,0,0-5.92-36.31-7.5-48.94-1.58-12.63-7.89-60-9.47-60.39-1.58-.39,3.95,50.13,2.76,60.39-1.18,10.26-2.76,38.68-1.58,45,0,0-9.47,2.76-12.24-.39,0,0,.79-31.58,0-39.47-.79-7.89-11.05-58.81-6.32-74.6,4.74-15.79,29.21-45,43.42-4.74Z"/><g class="cls-2"><path class="cls-16" d="M164.47,170.54s-24.08-1.32-31.18-16.45c-7.1-15.13,0,0,0,0,0,0-16.97,18.03-24.47,12.5-7.5-5.53,28.02-29.6,28.02-29.6,0,0,31.18,16.97,27.63,33.55Z"/></g></g><g><path class="cls-11" d="M151.25,65.15h-16.18l-18.35,10.66-2.96,28.81s2.76,46.58-1.18,55.26c-3.95,8.68,15-1.18,16.97-3.95,1.97-2.76,3.95-7.89,3.95-7.89,0,0-1.97,7.89,9.47,12.63,11.45,4.74,25.26,7.1,24.47,5.53-.79-1.58-4.74-21.71-5.53-26.45-.79-4.74,.39-27.63,.39-27.63,0,0,13.22-36.31-11.05-46.97Z"/><g class="cls-13"><path class="cls-16" d="M111.98,118.24s7.89-1.58,10.66-2.37c0,0,39.87,17.76,46.58,13.42,6.71-4.34-18.55-11.84-18.55-11.84l-35.92-10.26-2.76,11.05Z"/><path class="cls-16" d="M161.71,89.82c-.56-.03-3.95,14.43-7.5,14.52-3.55,.09-10.66,.09-10.66,.09l-1.18-1.97s-15.5-.87-17.37-1.18c-4.74-.79-5.92-16.78-5.92-16.78,0,0-7.1,13.22-7.89,15.99-.79,2.76,3.16,9.21,3.16,9.21,0,0,43.02,8.95,46.97,1.45,3.95-7.5,6.71-20.92,.39-21.31Z"/></g></g><g><path class="cls-5" d="M149.87,55.68c0,.39,0,7.5,1.58,9.47,1.58,1.97-7.89,2.37-7.89,2.37l-6.98-4.81s1.45-6.64,1.06-9.79c-.39-3.16,12.24,2.76,12.24,2.76Z"/><g class="cls-15"><ellipse class="cls-6" cx="144.34" cy="50.94" rx="10.66" ry="10.26"/></g></g><ellipse class="cls-5" cx="144.34" cy="42.46" rx="12.63" ry="16.78"/><path class="cls-9" d="M156.97,41.47l1.19-1.58s.79-9.87-1.18-12.63c-1.97-2.76-8.69-8.27-13.82-9.08-7.5-1.18-3.16,6.71-7.1,5.13-3.95-1.58-8.68,3.16-7.1,8.29,1.58,5.13,2.76,10.66,2.76,10.66,0,0-.39-9.08,1.58-8.29,1.97,.79,6.32,4.34,11.84-.39,2.83-2.42,11.04-5.13,11.84,7.89Z"/><path class="cls-5" d="M156.04,42.36c-.54,1.97-.13,3.8,.92,4.09,1.05,.29,2.34-1.07,2.89-3.05,.54-1.97,.13-3.8-.92-4.09-1.05-.29-2.34,1.07-2.89,3.05Z"/><path class="cls-5" d="M133.04,42.36c.54,1.97,.13,3.8-.92,4.09-1.05,.29-2.34-1.07-2.89-3.05-.54-1.97-.13-3.8,.92-4.09,1.05-.29,2.34,1.07,2.89,3.05Z"/><g><polygon class="cls-7" points="151.05 62.39 152.63 67.52 144.34 96.73 137.62 115.92 133.29 80.94 134.21 67 136.05 62.39 143.16 66.73 151.05 62.39"/><g class="cls-14"><path class="cls-3" d="M143.55,66.73s3.16,3.95,2.37,4.34c-.79,.39-1.58,1.58-2.76,1.58s-2.76-1.97-2.76-1.97l3.16-3.95Z"/><polygon class="cls-3" points="143.16 72.65 143.36 88.23 139.51 105.51 137.24 100.68 137.63 87.65 143.16 72.65"/></g></g><path class="cls-10" d="M151.45,64.36s10.26,12.63,7.89,13.03-6.32,1.97-5.53,3.95c.79,1.97,4.74,7.1-1.58,10.66-6.32,3.55-16.18,23.68-17.37,44.6,0,0,2.3-49.17,16.58-72.23Z"/><path class="cls-10" d="M135.26,64.36s-12.59,10.33-10.37,11.27c2.21,.93,5.68,3.39,4.46,5.12-1.23,1.74-6.26,5.81-.94,10.73,5.32,4.92,10.24,26.8,6.52,47.42,0,0,8.86-48.79,.33-74.54Z"/><polygon class="cls-4" points="137.98 103.26 143.36 103.44 140.67 111.02 135.07 110.55 137.98 103.26"/><path class="cls-5" d="M142.93,104.64s10.76-2.45,15.06,.35c4.31,2.8-.43,9.51-6.35,8.32-5.92-1.18-11.45-1.97-11.45-1.97l2.73-6.7Z"/><path class="cls-11" d="M154.61,67.92c-2.36-3.02-3.38-2.7-1.58-2.37,4.21,.77,17.21,8.11,20.33,13.42,3.4,5.78,4.34,35.92-6.32,43.81-8.89,6.58-46.58-8.68-46.58-8.68l9.47-3.95s17.37,1.18,22.5,2.37c5.13,1.18,7.59-18.8,8.49-20.92,6.32-15-6.32-23.68-6.32-23.68Z"/><path class="cls-11" d="M133.29,65.94s-17.56,6.32-22.3,13.03c-4.74,6.71-11.84,27.24-10.66,32.37,1.18,5.13,15,7.09,34.74-.8l3.16-7.89s-18.62,3.07-18.95,.79c-3.75-26.05,14.01-37.5,14.01-37.5Z"/><path class="cls-5" d="M123.03,103.82s-3.12-5.34-8.29-7.28c-3.16-1.18-8.09-.2-8.49,2.96-.39,3.16,4.15,5.23,7.6,4.79,3.45-.44,9.18-.46,9.18-.46Z"/><path class="cls-9" d="M156.56,38.22s-1.21,11.72-6.09,11.72-6.64-2.21-11.52,0-7.26-10.74-7.26-10.74l-.71-.33s1.77,4.87,.89,7.53c0,0-.44,8.86,.89,10.19s10.63,6.2,12.85,5.76c2.21-.44,11.52-6.2,11.96-7.53,.44-1.33-.44-8.86-.44-8.86,0,0-.44-4.87,.44-7.53,.89-2.66-1-.2-1-.2Z"/></g></g></g></g></svg>