<?xml version="1.0" encoding="UTF-8"?><svg id="Layer_1" xmlns="http://www.w3.org/2000/svg" viewBox="0 0 100 100"><defs><style>.cls-1{fill:#333;}</style></defs><g id="Group_486"><g id="Group_485"><path id="Path_15595" class="cls-1" d="M56.02,99.99H22.28c-.67,0-1.34-.05-2-.14-4.35-.42-8.04-3.38-9.39-7.53-.2-.53-.33-.61-.77-.73-4.06-1.13-6.87-4.81-6.9-9.01v-17.28c-.03-4.09,2.6-7.73,6.49-9,.12-.03,.24-.08,.34-.15,.02-.12,.03-.24,.03-.36-.3-5.56,.22-11.13,1.55-16.53,3.19-12.55,12.06-22.89,23.98-27.96,.38-.13,.68-.41,.84-.78,.29-.63,.62-1.25,.98-1.85l.07-.12C39.56,4.45,43.19,1.4,47.56,.06l.17-.05h4.54l.16,.05c4.99,1.67,9.02,5.41,11.06,10.25,.27,.53,.46,.75,.8,.9,11.08,4.67,19.58,13.93,23.29,25.37,1.6,4.82,2.39,9.88,2.35,14.96v.81c.05,.94,.03,1.89-.05,2.83-.08,.72-.05,.95,.98,1.36,3.63,1.34,6,4.86,5.88,8.74,.06,4.74,.05,9.55,.03,14.21v2.84c.06,4.32-2.82,8.12-6.98,9.26-.49,.15-.5,.19-.57,.36-1.51,5.02-6.28,8.34-11.52,8.02h-21.67M49.95,14.74c-5.24-.01-10.39,1.33-14.96,3.9-11.42,6.09-18.52,18.02-18.42,30.96-.3,9.26-.23,18.7-.15,27.79,.03,3.49,.06,7.1,.07,10.66-.1,2.95,2.2,5.43,5.15,5.53,.11,0,.22,0,.34,0h.1c3.48-.05,7.27-.07,11.91-.07h44.24c1.11,.05,2.2-.28,3.09-.94,1.49-1.16,2.32-2.99,2.2-4.87V52.09c0-1.6-.05-3.01-.15-4.33-.65-9.42-4.89-18.23-11.86-24.6-5.88-5.41-13.57-8.41-21.55-8.43M10.06,63.64c-.24,.36-.37,.79-.37,1.23v17.94c0,.45,.12,.89,.37,1.27v-20.45m79.88,0v20.37c.28-.47,.41-1.02,.4-1.57v-17.25c.02-.54-.12-1.08-.4-1.54M50.03,8.35h.57c1.45,.03,2.9,.15,4.34,.35-1.28-1.27-2.91-2.13-4.68-2.47-1.94,.09-3.76,.97-5.03,2.44,1.59-.21,3.2-.32,4.81-.32"/><path id="Path_15596" class="cls-1" d="M65.82,89.75H27.74c-3.94,.21-7.53-2.25-8.77-6-.26-.83-.39-1.69-.37-2.56v-14.59c-.08-4.62,3.6-8.43,8.22-8.51,.1,0,.19,0,.29,0h45.28c4.65-.31,8.66,3.21,8.97,7.86,.03,.38,.02,.77,0,1.15v13.66c.25,4.72-3.36,8.74-8.08,9-.28,.02-.56,.02-.84,0h-6.63m-15.92-25.41H27.97c-2.55,0-3.06,1.15-3.06,3.13v12.71c0,2.61,1.03,3.09,3.04,3.09h44.08c2.34,0,3.06-.72,3.06-3.08v-12.82c0-2.21-.83-3.03-3.05-3.04h-22.16"/><path id="Path_15597" class="cls-1" d="M70.18,57.12H27c-2.86,0-3.86-.98-3.97-3.88-.34-5.3,.62-10.6,2.8-15.44,3.42-8.39,10.87-14.46,19.77-16.11,1.61-.29,3.25-.44,4.89-.45,7.24,.05,14.09,3.31,18.7,8.9,5.14,5.68,7.91,13.1,7.75,20.76v2.94c.11,1.7-1.18,3.16-2.88,3.27-.13,0-.26,0-.39,0h-3.48m-10.17-6.27h10.67v-.04c-.08-5.67-2-11.15-5.47-15.63-6.3-8.37-18.19-10.05-26.56-3.75-.84,.63-1.63,1.34-2.36,2.1-4.46,4.66-6.95,10.86-6.95,17.31h30.66"/></g></g></svg>