<?xml version="1.0" encoding="UTF-8"?><svg id="Layer_1" xmlns="http://www.w3.org/2000/svg" xmlns:xlink="http://www.w3.org/1999/xlink" viewBox="0 0 100 100"><defs><style>.cls-1{fill:none;}.cls-2{fill:#0a66c2;}</style><clipPath id="clippath"><rect class="cls-1" x="-122.24" y="493.57" width="1920" height="1080"/></clipPath></defs><path class="cls-2" d="M100.08,100h-20.74v-32.48c0-7.75-.14-17.72-10.79-17.72s-12.46,8.44-12.46,17.15v33.04h-20.74V33.2h19.91v9.13h.28c4.06-6.94,11.61-11.09,19.65-10.79,21.02,0,24.9,13.83,24.9,31.82v36.64ZM11.95,24.07c-6.65,0-12.04-5.39-12.04-12.03C-.09,5.39,5.3,0,11.95,0c6.65,0,12.04,5.39,12.04,12.03,0,3.19-1.27,6.25-3.52,8.51-2.26,2.26-5.32,3.53-8.51,3.53m10.37,75.93H1.56V33.2H22.32V100Z"/></svg>