<?xml version="1.0" encoding="UTF-8"?><svg id="Layer_1" xmlns="http://www.w3.org/2000/svg" viewBox="0 0 137.33 100"><defs><style>.cls-1{fill:#fff;}.cls-2{fill:#d11e3b;}.cls-3{fill:#243969;}</style></defs><g><path class="cls-2" d="M17.02,99.15H120.31c5.65,0,10.63-2.91,13.51-7.32H3.51c2.89,4.41,7.86,7.32,13.51,7.32Z"/><path class="cls-1" d="M3.51,91.84H133.82c1.47-2.22,2.39-4.8,2.61-7.62H.9c.22,2.81,1.14,5.4,2.61,7.62Z"/><path class="cls-2" d="M.85,82.98c0,.42,.02,.85,.05,1.24H136.44c.02-.4,.05-.82,.05-1.24v-6.35H.85v6.35Z"/><rect class="cls-1" x=".85" y="69.01" width="135.64" height="7.62"/><rect class="cls-2" x=".85" y="61.4" width="135.64" height="7.62"/><polygon class="cls-1" points=".85 53.81 .85 61.4 136.48 61.4 136.48 53.81 68.63 53.81 .85 53.81"/><rect class="cls-2" x="68.63" y="46.19" width="67.86" height="7.62"/><rect class="cls-1" x="68.63" y="38.6" width="67.86" height="7.59"/><rect class="cls-2" x="68.63" y="30.99" width="67.86" height="7.62"/><rect class="cls-1" x="68.63" y="23.37" width="67.86" height="7.62"/><path class="cls-2" d="M136.44,15.78H68.63v7.59h67.86v-6.35c0-.42-.02-.85-.05-1.24Z"/><path class="cls-2" d="M.85,17.02c0-.22,0-.43,.02-.65,0,.21-.02,.43-.02,.65Z"/><path class="cls-2" d="M.9,15.78s0,.1,0,.14c0-.05,0-.1,.01-.14h0Z"/><path class="cls-1" d="M.91,15.69s0,.06,0,.08h0s0-.06,0-.08Z"/><path class="cls-1" d="M1.43,12.72s0-.01,0-.02c0,0,0,.01,0,.02Z"/><path class="cls-1" d="M68.63,15.78h67.81c-.22-2.81-1.14-5.4-2.61-7.62H68.63v7.62Z"/><path class="cls-1" d="M1.73,11.78s.01-.03,.02-.05c0,.02-.01,.03-.02,.05Z"/><path class="cls-2" d="M6.77,4.53s.07-.05,.1-.08c-.03,.03-.07,.05-.1,.08Z"/><path class="cls-2" d="M5.98,5.23s.06-.06,.09-.09c-.03,.03-.06,.06-.09,.09Z"/><path class="cls-2" d="M7.47,3.99c.09-.07,.18-.13,.28-.2-.09,.07-.19,.13-.28,.2Z"/><path class="cls-2" d="M5.3,5.9s.06-.06,.08-.09c-.03,.03-.06,.06-.08,.09Z"/><path class="cls-2" d="M12.7,1.44c.09-.03,.18-.05,.28-.08-.09,.02-.18,.05-.28,.08Z"/><path class="cls-2" d="M13.84,1.16c.1-.02,.21-.04,.31-.06-.1,.02-.21,.03-.31,.06Z"/><path class="cls-2" d="M8.2,3.48c.11-.07,.21-.14,.32-.21-.11,.07-.21,.14-.32,.21Z"/><path class="cls-2" d="M15.76,.9c.1,0,.2-.02,.3-.02-.1,0-.2,.02-.3,.02Z"/><path class="cls-2" d="M133.82,8.16c-2.89-4.41-7.86-7.32-13.51-7.32h-51.68v7.32h65.19Z"/><path class="cls-2" d="M14.78,1.01c.11-.02,.23-.03,.34-.04-.11,.01-.23,.03-.34,.04Z"/><path class="cls-2" d="M10.87,2.07c.13-.05,.25-.1,.38-.15-.13,.05-.26,.1-.38,.15Z"/><path class="cls-2" d="M10.04,2.44c.11-.05,.23-.1,.34-.16-.11,.05-.23,.1-.34,.16Z"/><path class="cls-2" d="M8.99,3c.1-.06,.21-.12,.31-.18-.11,.06-.21,.12-.31,.18Z"/><path class="cls-2" d="M11.73,1.74c.12-.04,.25-.09,.38-.13-.13,.04-.25,.08-.38,.13Z"/><path class="cls-3" d="M68.63,46.19V.85H17.02c-.32,0-.64,.01-.96,.03-.1,0-.2,.02-.3,.02-.22,.02-.43,.04-.65,.06-.11,.01-.23,.03-.34,.04-.21,.03-.42,.06-.62,.1-.1,.02-.21,.03-.31,.06-.29,.06-.58,.12-.87,.2-.09,.02-.18,.05-.28,.08-.2,.06-.4,.11-.6,.18-.13,.04-.25,.08-.38,.13-.16,.06-.32,.11-.48,.18-.13,.05-.26,.1-.38,.15-.16,.07-.32,.14-.48,.21-.11,.05-.23,.1-.34,.16-.25,.12-.5,.25-.74,.38-.11,.06-.21,.12-.31,.18-.16,.09-.31,.18-.46,.28-.11,.07-.21,.14-.32,.21-.15,.1-.3,.2-.45,.31-.09,.07-.19,.13-.28,.2-.2,.15-.4,.3-.6,.46-.03,.03-.07,.05-.1,.08-.24,.2-.47,.4-.7,.61-.03,.03-.06,.06-.09,.09-.2,.19-.4,.38-.59,.58-.03,.03-.06,.06-.08,.09-1.57,1.65-2.8,3.63-3.56,5.83,0,.02-.01,.03-.02,.05-.11,.31-.2,.62-.29,.93,0,0,0,.01,0,.02-.27,.96-.44,1.95-.53,2.97,0,.03,0,.06,0,.08,0,.05,0,.1-.01,.14-.01,.15-.02,.3-.03,.45,0,.22-.02,.43-.02,.65V53.81H68.63v-7.62ZM13.44,12.56l.53-1.62,.53,1.62h1.7l-1.38,1,.53,1.62-1.38-1-1.38,1,.53-1.62-1.38-1h1.7Zm10.71,0l.53-1.62,.53,1.62h1.7l-1.38,1,.53,1.62-1.38-1-1.38,1,.53-1.62-1.38-1h1.7Zm10.71,0l.53-1.62,.53,1.62h1.7l-1.38,1,.53,1.62-1.38-1-1.38,1,.53-1.62-1.38-1h1.7Zm10.71,0l.53-1.62,.53,1.62h1.7l-1.38,1,.53,1.62-1.38-1-1.38,1,.53-1.62-1.38-1h1.7Zm10.71,0l.53-1.62,.53,1.62h1.7l-1.38,1,.53,1.62-1.38-1-1.38,1,.53-1.62-1.38-1h1.7Zm5.35-4.53l.53-1.62,.53,1.62h1.7l-1.38,1,.53,1.62-1.38-1-1.38,1,.53-1.62-1.38-1h1.7Zm-10.71,0l.53-1.62,.53,1.62h1.7l-1.38,1,.53,1.62-1.38-1-1.38,1,.53-1.62-1.38-1h1.7Zm-10.71,0l.53-1.62,.53,1.62h1.7l-1.38,1,.53,1.62-1.38-1-1.38,1,.53-1.62-1.38-1h1.7Zm-10.71,0l.53-1.62,.53,1.62h1.7l-1.38,1,.53,1.62-1.38-1-1.38,1,.53-1.62-1.38-1h1.7Zm-10.71,0l.53-1.62,.53,1.62h1.7l-1.38,1,.53,1.62-1.38-1-1.38,1,.53-1.62-1.38-1h1.7Zm-7.95,0l-1.38,1,.53,1.62-1.38-1-1.38,1,.53-1.62-1.38-1h1.7l.53-1.62,.53,1.62h1.7Zm52.69,30.81l-1.38-1-1.38,1,.53-1.62-1.38-1h1.7l.53-1.62,.53,1.62h1.7l-1.38,1,.53,1.62Zm-5.35,4.53l-1.38-1-1.38,1,.53-1.62-1.38-1h1.7l.53-1.62,.53,1.62h1.7l-1.38,1,.53,1.62Zm-5.35-4.53l-1.38-1-1.38,1,.53-1.62-1.38-1h1.7l.53-1.62,.53,1.62h1.7l-1.38,1,.53,1.62Zm-5.35,4.53l-1.38-1-1.38,1,.53-1.62-1.38-1h1.7l.53-1.62,.53,1.62h1.7l-1.38,1,.53,1.62Zm-5.35-4.53l-1.38-1-1.38,1,.53-1.62-1.38-1h1.7l.53-1.62,.53,1.62h1.7l-1.38,1,.53,1.62Zm-5.35,4.53l-1.38-1-1.38,1,.53-1.62-1.38-1h1.7l.53-1.62,.53,1.62h1.7l-1.38,1,.53,1.62Zm-5.35-4.53l-1.38-1-1.38,1,.53-1.62-1.38-1h1.7l.53-1.62,.53,1.62h1.7l-1.38,1,.53,1.62Zm-5.35,4.53l-1.38-1-1.38,1,.53-1.62-1.38-1h1.7l.53-1.62,.53,1.62h1.7l-1.38,1,.53,1.62Zm-5.35-4.53l-1.38-1-1.38,1,.53-1.62-1.38-1h1.7l.53-1.62,.53,1.62h1.7l-1.38,1,.53,1.62Zm-5.35,4.53l-1.38-1-1.38,1,.53-1.62-1.38-1h1.7l.53-1.62,.53,1.62h1.7l-1.38,1,.53,1.62Zm5.35-23.32l-1.38-1-1.38,1,.53-1.62-1.38-1h1.7l.53-1.62,.53,1.62h1.7l-1.38,1,.53,1.62Zm1.74,1.91h1.7l.53-1.62,.53,1.62h1.7l-1.38,1,.53,1.62-1.38-1-1.38,1,.53-1.62-1.38-1Zm8.96-1.91l-1.38-1-1.38,1,.53-1.62-1.38-1h1.7l.53-1.62,.53,1.62h1.7l-1.38,1,.53,1.62Zm1.74,1.91h1.7l.53-1.62,.53,1.62h1.7l-1.38,1,.53,1.62-1.38-1-1.38,1,.53-1.62-1.38-1Zm8.96-1.91l-1.38-1-1.38,1,.53-1.62-1.38-1h1.7l.53-1.62,.53,1.62h1.7l-1.38,1,.53,1.62Zm1.74,1.91h1.7l.53-1.62,.53,1.62h1.7l-1.38,1,.53,1.62-1.38-1-1.38,1,.53-1.62-1.38-1Zm8.96-1.91l-1.38-1-1.38,1,.53-1.62-1.38-1h1.7l.53-1.62,.53,1.62h1.7l-1.38,1,.53,1.62Zm-6.21,11.3h1.7l-1.38,1,.53,1.62-1.38-1-1.38,1,.53-1.62-1.38-1h1.7l.53-1.62,.53,1.62Zm-10.71,0h1.7l-1.38,1,.53,1.62-1.38-1-1.38,1,.53-1.62-1.38-1h1.7l.53-1.62,.53,1.62Zm-4.5-1.91l-1.38-1-1.38,1,.53-1.62-1.38-1h1.7l.53-1.62,.53,1.62h1.7l-1.38,1,.53,1.62Zm10.71,0l-1.38-1-1.38,1,.53-1.62-1.38-1h1.7l.53-1.62,.53,1.62h1.7l-1.38,1,.53,1.62Zm10.71,0l-1.38-1-1.38,1,.53-1.62-1.38-1h1.7l.53-1.62,.53,1.62h1.7l-1.38,1,.53,1.62Zm-34.03-2.62l.53-1.62,.53,1.62h1.7l-1.38,1,.53,1.62-1.38-1-1.38,1,.53-1.62-1.38-1h1.7Zm5.88,2.91l.53,1.62h1.7l-1.38,1,.53,1.62-1.38-1-1.38,1,.53-1.62-1.38-1h1.7l.53-1.62Zm32.65,1.62h1.7l-1.38,1,.53,1.62-1.38-1-1.38,1,.53-1.62-1.38-1h1.7l.53-1.62,.53,1.62Zm6.21-1.91l-1.38-1-1.38,1,.53-1.62-1.38-1h1.7l.53-1.62,.53,1.62h1.7l-1.38,1,.53,1.62Zm-5.35-4.87l-1.38-1-1.38,1,.53-1.62-1.38-1h1.7l.53-1.62,.53,1.62h1.7l-1.38,1,.53,1.62Zm5.35-4.53l-1.38-1-1.38,1,.53-1.62-1.38-1h1.7l.53-1.62,.53,1.62h1.7l-1.38,1,.53,1.62Zm-53.54,0l-1.38-1-1.38,1,.53-1.62-1.38-1h1.7l.53-1.62,.53,1.62h1.7l-1.38,1,.53,1.62Zm1.74,1.91h1.7l.53-1.62,.53,1.62h1.7l-1.38,1,.53,1.62-1.38-1-1.38,1,.53-1.62-1.38-1Zm-1.74,7.49l-1.38-1-1.38,1,.53-1.62-1.38-1h1.7l.53-1.62,.53,1.62h1.7l-1.38,1,.53,1.62Zm3.98,.29l.53,1.62h1.7l-1.38,1,.53,1.62-1.38-1-1.38,1,.53-1.62-1.38-1h1.7l.53-1.62Zm-7.58,6.49h1.7l.53-1.62,.53,1.62h1.7l-1.38,1,.53,1.62-1.38-1-1.38,1,.53-1.62-1.38-1Zm2.23,11.02l-1.38,1,.53-1.62-1.38-1h1.7l.53-1.62,.53,1.62h1.7l-1.38,1,.53,1.62-1.38-1Zm10.71,0l-1.38,1,.53-1.62-1.38-1h1.7l.53-1.62,.53,1.62h1.7l-1.38,1,.53,1.62-1.38-1Zm10.71,0l-1.38,1,.53-1.62-1.38-1h1.7l.53-1.62,.53,1.62h1.7l-1.38,1,.53,1.62-1.38-1Zm10.71,0l-1.38,1,.53-1.62-1.38-1h1.7l.53-1.62,.53,1.62h1.7l-1.38,1,.53,1.62-1.38-1Zm10.71,0l-1.38,1,.53-1.62-1.38-1h1.7l.53-1.62,.53,1.62h1.7l-1.38,1,.53,1.62-1.38-1Zm10.71,0l-1.38,1,.53-1.62-1.38-1h1.7l.53-1.62,.53,1.62h1.7l-1.38,1,.53,1.62-1.38-1Z"/><polygon class="cls-1" points="64.38 45.62 62.67 45.62 62.15 44 61.62 45.62 59.92 45.62 61.3 46.62 60.77 48.24 62.15 47.24 63.53 48.24 63 46.62 64.38 45.62"/><polygon class="cls-1" points="53.67 45.62 51.97 45.62 51.44 44 50.91 45.62 49.21 45.62 50.59 46.62 50.06 48.24 51.44 47.24 52.82 48.24 52.29 46.62 53.67 45.62"/><polygon class="cls-1" points="32.26 45.62 30.55 45.62 30.02 44 29.5 45.62 27.79 45.62 29.17 46.62 28.65 48.24 30.02 47.24 31.4 48.24 30.88 46.62 32.26 45.62"/><polygon class="cls-1" points="42.96 45.62 41.26 45.62 40.73 44 40.21 45.62 38.5 45.62 39.88 46.62 39.35 48.24 40.73 47.24 42.11 48.24 41.58 46.62 42.96 45.62"/><polygon class="cls-1" points="21.55 45.62 19.84 45.62 19.32 44 18.79 45.62 17.09 45.62 18.46 46.62 17.94 48.24 19.32 47.24 20.7 48.24 20.17 46.62 21.55 45.62"/><polygon class="cls-1" points="10.84 45.62 9.14 45.62 8.61 44 8.08 45.62 6.38 45.62 7.76 46.62 7.23 48.24 8.61 47.24 9.99 48.24 9.46 46.62 10.84 45.62"/><polygon class="cls-1" points="64.38 36.22 62.67 36.22 62.15 34.6 61.62 36.22 59.92 36.22 61.3 37.22 60.77 38.85 62.15 37.84 63.53 38.85 63 37.22 64.38 36.22"/><polygon class="cls-1" points="53.67 36.22 51.97 36.22 51.44 34.6 50.91 36.22 49.21 36.22 50.59 37.22 50.06 38.85 51.44 37.84 52.82 38.85 52.29 37.22 53.67 36.22"/><polygon class="cls-1" points="32.26 36.22 30.55 36.22 30.02 34.6 29.5 36.22 27.79 36.22 29.17 37.22 28.65 38.85 30.02 37.84 31.4 38.85 30.88 37.22 32.26 36.22"/><polygon class="cls-1" points="42.96 36.22 41.26 36.22 40.73 34.6 40.21 36.22 38.5 36.22 39.88 37.22 39.35 38.85 40.73 37.84 42.11 38.85 41.58 37.22 42.96 36.22"/><polygon class="cls-1" points="21.55 36.22 19.84 36.22 19.32 34.6 18.79 36.22 17.09 36.22 18.46 37.22 17.94 38.85 19.32 37.84 20.7 38.85 20.17 37.22 21.55 36.22"/><polygon class="cls-1" points="7.23 38.85 8.61 37.84 9.99 38.85 9.46 37.22 10.84 36.22 9.14 36.22 8.61 34.6 8.08 36.22 6.38 36.22 7.76 37.22 7.23 38.85"/><polygon class="cls-1" points="62.67 26.83 62.15 25.21 61.62 26.83 59.92 26.83 61.3 27.83 60.77 29.45 62.15 28.45 63.53 29.45 63 27.83 64.38 26.83 62.67 26.83"/><polygon class="cls-1" points="51.97 26.83 51.44 25.21 50.91 26.83 49.21 26.83 50.59 27.83 50.06 29.45 51.44 28.45 52.82 29.45 52.29 27.83 53.67 26.83 51.97 26.83"/><polygon class="cls-1" points="30.55 26.83 30.02 25.21 29.5 26.83 27.79 26.83 29.17 27.83 28.65 29.45 30.02 28.45 31.4 29.45 30.88 27.83 32.26 26.83 30.55 26.83"/><polygon class="cls-1" points="41.26 26.83 40.73 25.21 40.21 26.83 38.5 26.83 39.88 27.83 39.35 29.45 40.73 28.45 42.11 29.45 41.58 27.83 42.96 26.83 41.26 26.83"/><polygon class="cls-1" points="17.94 29.45 19.32 28.45 20.7 29.45 20.17 27.83 21.55 26.83 19.84 26.83 19.32 25.21 18.79 26.83 17.09 26.83 18.46 27.83 17.94 29.45"/><polygon class="cls-1" points="9.14 26.83 8.61 25.21 8.08 26.83 6.38 26.83 7.76 27.83 7.23 29.45 8.61 28.45 9.99 29.45 9.46 27.83 10.84 26.83 9.14 26.83"/><polygon class="cls-1" points="62.67 17.43 62.15 15.81 61.62 17.43 59.92 17.43 61.3 18.43 60.77 20.05 62.15 19.05 63.53 20.05 63 18.43 64.38 17.43 62.67 17.43"/><polygon class="cls-1" points="51.97 17.43 51.44 15.81 50.91 17.43 49.21 17.43 50.59 18.43 50.06 20.05 51.44 19.05 52.82 20.05 52.29 18.43 53.67 17.43 51.97 17.43"/><polygon class="cls-1" points="30.55 17.43 30.02 15.81 29.5 17.43 27.79 17.43 29.17 18.43 28.65 20.05 30.02 19.05 31.4 20.05 30.88 18.43 32.26 17.43 30.55 17.43"/><polygon class="cls-1" points="41.26 17.43 40.73 15.81 40.21 17.43 38.5 17.43 39.88 18.43 39.35 20.05 40.73 19.05 42.11 20.05 41.58 18.43 42.96 17.43 41.26 17.43"/><polygon class="cls-1" points="19.84 17.43 19.32 15.81 18.79 17.43 17.09 17.43 18.46 18.43 17.94 20.05 19.32 19.05 20.7 20.05 20.17 18.43 21.55 17.43 19.84 17.43"/><polygon class="cls-1" points="9.14 17.43 8.61 15.81 8.08 17.43 6.38 17.43 7.76 18.43 7.23 20.05 8.61 19.05 9.99 20.05 9.46 18.43 10.84 17.43 9.14 17.43"/><polygon class="cls-1" points="61.3 9.04 60.77 10.66 62.15 9.65 63.53 10.66 63 9.04 64.38 8.03 62.67 8.03 62.15 6.41 61.62 8.03 59.92 8.03 61.3 9.04"/><polygon class="cls-1" points="50.59 9.04 50.06 10.66 51.44 9.65 52.82 10.66 52.29 9.04 53.67 8.03 51.97 8.03 51.44 6.41 50.91 8.03 49.21 8.03 50.59 9.04"/><polygon class="cls-1" points="29.17 9.04 28.65 10.66 30.02 9.65 31.4 10.66 30.88 9.04 32.26 8.03 30.55 8.03 30.02 6.41 29.5 8.03 27.79 8.03 29.17 9.04"/><polygon class="cls-1" points="39.88 9.04 39.35 10.66 40.73 9.65 42.11 10.66 41.58 9.04 42.96 8.03 41.26 8.03 40.73 6.41 40.21 8.03 38.5 8.03 39.88 9.04"/><polygon class="cls-1" points="18.46 9.04 17.94 10.66 19.32 9.65 20.7 10.66 20.17 9.04 21.55 8.03 19.84 8.03 19.32 6.41 18.79 8.03 17.09 8.03 18.46 9.04"/><polygon class="cls-1" points="8.08 8.03 6.38 8.03 7.76 9.04 7.23 10.66 8.61 9.65 9.99 10.66 9.46 9.04 10.84 8.03 9.14 8.03 8.61 6.41 8.08 8.03"/><polygon class="cls-1" points="14.49 40.75 13.96 39.13 13.44 40.75 11.73 40.75 13.11 41.75 12.58 43.37 13.96 42.37 15.34 43.37 14.81 41.75 16.19 40.75 14.49 40.75"/><polygon class="cls-1" points="57.32 40.75 56.79 39.13 56.27 40.75 54.56 40.75 55.94 41.75 55.42 43.37 56.79 42.37 58.17 43.37 57.65 41.75 59.03 40.75 57.32 40.75"/><polygon class="cls-1" points="46.61 40.75 46.09 39.13 45.56 40.75 43.86 40.75 45.23 41.75 44.71 43.37 46.09 42.37 47.46 43.37 46.94 41.75 48.32 40.75 46.61 40.75"/><polygon class="cls-1" points="35.9 40.75 35.38 39.13 34.85 40.75 33.15 40.75 34.53 41.75 34 43.37 35.38 42.37 36.76 43.37 36.23 41.75 37.61 40.75 35.9 40.75"/><polygon class="cls-1" points="25.2 40.75 24.67 39.13 24.14 40.75 22.44 40.75 23.82 41.75 23.29 43.37 24.67 42.37 26.05 43.37 25.52 41.75 26.9 40.75 25.2 40.75"/><polygon class="cls-1" points="11.73 31.36 13.11 32.36 12.58 33.98 13.96 32.98 15.34 33.98 14.81 32.36 16.19 31.36 14.49 31.36 13.96 29.73 13.44 31.36 11.73 31.36"/><polygon class="cls-1" points="56.27 31.36 54.56 31.36 55.94 32.36 55.42 33.98 56.79 32.98 58.17 33.98 57.65 32.36 59.03 31.36 57.32 31.36 56.79 29.73 56.27 31.36"/><polygon class="cls-1" points="45.56 31.36 43.86 31.36 45.23 32.36 44.71 33.98 46.09 32.98 47.46 33.98 46.94 32.36 48.32 31.36 46.61 31.36 46.09 29.73 45.56 31.36"/><polygon class="cls-1" points="34.85 31.36 33.15 31.36 34.53 32.36 34 33.98 35.38 32.98 36.76 33.98 36.23 32.36 37.61 31.36 35.9 31.36 35.38 29.73 34.85 31.36"/><polygon class="cls-1" points="22.44 31.36 23.82 32.36 23.29 33.98 24.67 32.98 26.05 33.98 25.52 32.36 26.9 31.36 25.2 31.36 24.67 29.73 24.14 31.36 22.44 31.36"/><polygon class="cls-1" points="12.58 24.58 13.96 23.58 15.34 24.58 14.81 22.96 16.19 21.96 14.49 21.96 13.96 20.34 13.44 21.96 11.73 21.96 13.11 22.96 12.58 24.58"/><polygon class="cls-1" points="59.03 21.96 57.32 21.96 56.79 20.34 56.27 21.96 54.56 21.96 55.94 22.96 55.42 24.58 56.79 23.58 58.17 24.58 57.65 22.96 59.03 21.96"/><polygon class="cls-1" points="44.71 24.58 46.09 23.58 47.46 24.58 46.94 22.96 48.32 21.96 46.61 21.96 46.09 20.34 45.56 21.96 43.86 21.96 45.23 22.96 44.71 24.58"/><polygon class="cls-1" points="34 24.58 35.38 23.58 36.76 24.58 36.23 22.96 37.61 21.96 35.9 21.96 35.38 20.34 34.85 21.96 33.15 21.96 34.53 22.96 34 24.58"/><polygon class="cls-1" points="23.29 24.58 24.67 23.58 26.05 24.58 25.52 22.96 26.9 21.96 25.2 21.96 24.67 20.34 24.14 21.96 22.44 21.96 23.82 22.96 23.29 24.58"/><polygon class="cls-1" points="12.58 15.19 13.96 14.18 15.34 15.19 14.81 13.56 16.19 12.56 14.49 12.56 13.96 10.94 13.44 12.56 11.73 12.56 13.11 13.56 12.58 15.19"/><polygon class="cls-1" points="55.42 15.19 56.79 14.18 58.17 15.19 57.65 13.56 59.03 12.56 57.32 12.56 56.79 10.94 56.27 12.56 54.56 12.56 55.94 13.56 55.42 15.19"/><polygon class="cls-1" points="44.71 15.19 46.09 14.18 47.46 15.19 46.94 13.56 48.32 12.56 46.61 12.56 46.09 10.94 45.56 12.56 43.86 12.56 45.23 13.56 44.71 15.19"/><polygon class="cls-1" points="34 15.19 35.38 14.18 36.76 15.19 36.23 13.56 37.61 12.56 35.9 12.56 35.38 10.94 34.85 12.56 33.15 12.56 34.53 13.56 34 15.19"/><polygon class="cls-1" points="23.29 15.19 24.67 14.18 26.05 15.19 25.52 13.56 26.9 12.56 25.2 12.56 24.67 10.94 24.14 12.56 22.44 12.56 23.82 13.56 23.29 15.19"/></g><path class="cls-1" d="M120.31,100H17.04c-3.23,0-6.37-.91-9.09-2.64-2.14-1.35-3.98-3.2-5.33-5.34-1.71-2.71-2.62-5.84-2.62-9.04V17.04c0-3.27,.93-6.44,2.7-9.19,1.31-2.04,3.08-3.81,5.12-5.13C10.57,.94,13.76,0,17.02,0H120.3c3.26,0,6.43,.93,9.17,2.69,2.07,1.33,3.86,3.12,5.18,5.19,1.75,2.74,2.68,5.9,2.68,9.14V82.96c0,3.21-.9,6.33-2.6,9.03-1.36,2.16-3.22,4.03-5.39,5.39-2.71,1.71-5.84,2.61-9.04,2.61ZM17.04,1.69c-2.95,0-5.82,.85-8.3,2.45-1.84,1.19-3.43,2.78-4.61,4.62-1.59,2.47-2.43,5.33-2.43,8.26V82.96c0,2.89,.81,5.71,2.36,8.15,1.22,1.93,2.88,3.6,4.81,4.82,2.45,1.55,5.28,2.37,8.17,2.37H120.3c2.89,0,5.7-.81,8.15-2.35,1.95-1.23,3.63-2.91,4.85-4.86,1.53-2.44,2.34-5.25,2.34-8.12V17.04c0-2.93-.83-5.78-2.41-8.24h0c-1.19-1.86-2.81-3.48-4.67-4.68-2.47-1.59-5.32-2.42-8.25-2.42H17.04Z"/></svg>