<?xml version="1.0" encoding="UTF-8"?><svg id="Layer_1" xmlns="http://www.w3.org/2000/svg" viewBox="0 0 100 100"><defs><style>.cls-1{fill:#333;}</style></defs><path class="cls-1" d="M19.94,100c-2.98-.68-5.54-2.05-7.41-4.53-1.54-2.03-2.41-4.31-2.41-6.87,0-13.5-.02-27,0-40.5,.01-6.15,5.27-11.35,11.44-11.41,2.08-.02,4.16-.04,6.25,0,.82,.02,1.06-.26,1.05-1.06-.03-5.04-.04-10.09,0-15.13,.08-10.28,7.97-19.08,18.18-20.33,9.62-1.18,18.08,3.38,22.26,12.03,1.17,2.43,1.82,5.02,1.84,7.72,.04,5.2,.04,10.41,0,15.62,0,.9,.26,1.19,1.16,1.16,1.92-.06,3.84-.03,5.76-.02,6.68,.03,11.83,5.14,11.84,11.8,.02,13.24,.01,26.48,0,39.72,0,5.57-3.52,10.09-8.89,11.52-.31,.08-.62,.18-.93,.26H19.94Zm29.96-7.88c9.11,0,18.21,0,27.32,0,3.26,0,4.72-1.46,4.72-4.71,0-3.97,0-7.94,0-11.9,0-8.75,0-17.5,0-26.25,0-1.48-.29-2.85-1.57-3.81-.97-.73-2.1-.81-3.25-.81-18.08,0-36.17,0-54.25,0-.52,0-1.04,.04-1.55,.13-1.8,.32-2.82,1.34-3.14,3.13-.1,.54-.13,1.1-.13,1.65,0,10.57,0,21.14,0,31.71,0,2.18-.02,4.36,0,6.54,.04,2.77,1.55,4.26,4.32,4.33,.33,0,.65,0,.98,0,8.85,0,17.69,0,26.54,0Zm.02-55.44c4.07,0,8.13-.02,12.2,.02,.87,0,1.1-.28,1.1-1.12-.03-4.78,0-9.56-.03-14.35,0-1.03-.12-2.08-.33-3.1-1.26-6.12-7.16-10.55-13.86-10.11-5.99,.39-12.29,5.25-12.21,13.35,.04,4.72,.03,9.43,0,14.15,0,.87,.21,1.19,1.14,1.18,4-.05,8-.02,12-.02Z"/></svg>