<?xml version="1.0" encoding="UTF-8"?><svg id="Layer_1" xmlns="http://www.w3.org/2000/svg" viewBox="0 0 137.33 100"><defs><style>.cls-1{fill:#fff;}.cls-2{fill:#e31e25;}</style></defs><g><path class="cls-2" d="M120.31,.85h-23.02V99.15h23.02c8.91,0,16.18-7.27,16.18-16.18V17.02c0-8.91-7.27-16.18-16.18-16.18Z"/><path class="cls-2" d="M17.02,.85C8.11,.85,.85,8.11,.85,17.02V82.98c0,8.91,7.27,16.18,16.18,16.18h23.02V.85H17.02Z"/><path class="cls-1" d="M91.81,.85H40.04V99.15h57.24V.85h-5.48Zm-2.06,50.03l-11.73,7.82c-.29,.19-.4,.57-.26,.89l1.71,3.84c.05,.12-.05,.25-.18,.23l-9.74-1.95c-.18-.04-.35,.11-.34,.29,.08,1.65,.42,8.39,.49,9.79,0,.14-.11,.26-.25,.26h-1.56c-.14,0-.25-.12-.25-.26,.07-1.4,.41-8.14,.49-9.79,0-.19-.16-.33-.34-.29l-9.74,1.95c-.13,.03-.24-.11-.18-.23l1.71-3.84c.14-.32,.03-.69-.26-.89l-11.73-7.82c-.11-.07-.09-.24,.03-.29l3.27-1.23c.33-.12,.5-.49,.38-.82l-2.3-6.43c-.04-.12,.06-.24,.18-.22l5.96,.92c.31,.05,.61-.14,.71-.43l.78-2.33c.04-.12,.2-.15,.28-.05l4.85,5.81c.11,.13,.27,.21,.44,.21,.39,0,.66-.37,.55-.74l-3.32-11.37c-.04-.14,.11-.26,.24-.19l3.78,2.1c.31,.17,.7,.06,.87-.25l4.23-7.52c.06-.11,.22-.11,.28,0l4.23,7.52c.17,.31,.56,.42,.87,.25l3.78-2.1c.13-.07,.28,.05,.24,.19l-3.32,11.37c-.11,.37,.17,.74,.55,.74,.17,0,.33-.08,.44-.21l4.85-5.81c.08-.1,.24-.07,.28,.05l.78,2.33c.1,.3,.4,.48,.71,.43l5.96-.92c.12-.02,.22,.1,.18,.22l-2.3,6.43c-.12,.33,.05,.7,.38,.82l3.27,1.23c.12,.05,.14,.22,.03,.29Z"/><path class="cls-2" d="M89.71,50.58l-3.27-1.23c-.33-.12-.5-.49-.38-.82l2.3-6.43c.04-.12-.06-.24-.18-.22l-5.96,.92c-.31,.05-.61-.14-.71-.43l-.78-2.33c-.04-.12-.2-.15-.28-.05l-4.85,5.81c-.11,.13-.27,.21-.44,.21-.39,0-.66-.37-.55-.74l3.32-11.37c.04-.14-.11-.26-.24-.19l-3.78,2.1c-.31,.17-.7,.06-.87-.25l-4.23-7.52c-.06-.11-.22-.11-.28,0l-4.23,7.52c-.17,.31-.56,.42-.87,.25l-3.78-2.1c-.13-.07-.28,.05-.24,.19l3.32,11.37c.11,.37-.17,.74-.55,.74-.17,0-.33-.08-.44-.21l-4.85-5.81c-.08-.1-.24-.07-.28,.05l-.78,2.33c-.1,.3-.4,.48-.71,.43l-5.96-.92c-.12-.02-.22,.1-.18,.22l2.3,6.43c.12,.33-.05,.7-.38,.82l-3.27,1.23c-.12,.05-.14,.22-.03,.29l11.73,7.82c.29,.19,.4,.57,.26,.89l-1.71,3.84c-.05,.12,.05,.25,.18,.23l9.74-1.95c.18-.04,.35,.11,.34,.29-.08,1.65-.42,8.39-.49,9.79,0,.14,.11,.26,.25,.26h1.56c.14,0,.25-.12,.25-.26-.07-1.4-.41-8.14-.49-9.79,0-.19,.16-.33,.34-.29l9.74,1.95c.13,.03,.24-.11,.18-.23l-1.71-3.84c-.14-.32-.03-.69,.26-.89l11.73-7.82c.11-.07,.09-.24-.03-.29Z"/></g><path class="cls-1" d="M120.31,100H17.04c-3.23,0-6.37-.91-9.09-2.64-2.14-1.35-3.98-3.2-5.33-5.34-1.71-2.71-2.62-5.84-2.62-9.04V17.04c0-3.27,.93-6.44,2.7-9.19,1.31-2.04,3.08-3.81,5.12-5.13C10.57,.94,13.76,0,17.02,0H120.3C123.56,0,126.73,.93,129.47,2.69c2.07,1.33,3.86,3.12,5.18,5.19,1.75,2.74,2.68,5.9,2.68,9.14V82.96c0,3.21-.9,6.33-2.6,9.03-1.36,2.16-3.22,4.03-5.39,5.39-2.71,1.71-5.84,2.61-9.04,2.61ZM17.04,1.69c-2.95,0-5.82,.85-8.3,2.45-1.84,1.19-3.43,2.78-4.61,4.62-1.59,2.47-2.43,5.33-2.43,8.26V82.96c0,2.89,.81,5.71,2.36,8.15,1.22,1.93,2.88,3.6,4.81,4.82,2.45,1.55,5.28,2.37,8.17,2.37H120.3c2.89,0,5.7-.81,8.15-2.35,1.95-1.23,3.63-2.91,4.85-4.86,1.53-2.44,2.34-5.25,2.34-8.12V17.04c0-2.93-.83-5.78-2.41-8.24h0c-1.19-1.86-2.81-3.48-4.67-4.68-2.47-1.59-5.32-2.42-8.25-2.42H17.04Z"/></svg>